<?xml version="1.0" encoding="utf-8"?>
<!-- Generator: Adobe Illustrator 16.0.0, SVG Export Plug-In . SVG Version: 6.00 Build 0)  -->
<!DOCTYPE svg PUBLIC "-//W3C//DTD SVG 1.1//EN" "http://www.w3.org/Graphics/SVG/1.1/DTD/svg11.dtd">
<svg version="1.1" id="Layer_1" xmlns="http://www.w3.org/2000/svg" xmlns:xlink="http://www.w3.org/1999/xlink" x="0px" y="0px"
	 width="400px" height="400px" viewBox="0 0 400 400" enable-background="new 0 0 400 400" xml:space="preserve">
<path fill="#FFFFFF" d="M372.935,185.503c0,0-52.784,86.8-173.599,86.8c-105.813,0-173.596-86.8-173.596-86.8
	s56.201-86.798,173.596-86.798C317.263,98.705,372.935,185.503,372.935,185.503"/>
<path fill="#22546C" d="M199.337,279.246c-107.958,0-176.201-85.822-179.063-89.471c-1.832-2.333-1.967-5.56-0.367-8.042
	c2.387-3.677,59.647-89.974,179.43-89.974c120.339,0,177.097,86.312,179.458,90c1.423,2.225,1.464,5.086,0.08,7.352
	C376.638,192.801,322.646,279.246,199.337,279.246 M34.555,185.15c14.647,16.629,76.491,80.209,164.782,80.209
	c101.095,0,153.459-63.58,165.135-79.775c-12.124-16.139-66.346-79.936-165.135-79.936
	C101.633,105.648,47.357,168.307,34.555,185.15"/>
<path fill="#67DDE0" d="M282.988,185.503c0,46.343-37.566,83.911-83.896,83.911c-46.356,0-83.91-37.568-83.91-83.911
	c0-46.33,37.554-83.896,83.91-83.896C245.422,101.606,282.988,139.173,282.988,185.503"/>
<path fill="#22546C" d="M199.093,276.357c-50.099,0-90.854-40.755-90.854-90.854c0-50.098,40.756-90.84,90.854-90.84
	c50.087,0,90.841,40.743,90.841,90.84C289.934,235.603,249.18,276.357,199.093,276.357 M199.093,108.551
	c-42.45,0-76.967,34.528-76.967,76.952c0,42.437,34.517,76.968,76.967,76.968c42.423,0,76.952-34.531,76.952-76.968
	C276.045,143.08,241.516,108.551,199.093,108.551"/>
<path fill="#22546C" d="M226.868,185.503c-15.354,0-27.776-12.435-27.776-27.776c0-4.259,1.031-8.259,2.754-11.867
	c-0.937-0.068-1.819-0.284-2.754-0.284c-22.052,0-39.927,17.875-39.927,39.926c0,22.053,17.875,39.928,39.927,39.928
	s39.928-17.875,39.928-39.928c0-0.935-0.218-1.831-0.284-2.751C235.115,184.473,231.127,185.503,226.868,185.503"/>
<path fill="#FFFFFF" d="M253.87,157.727c0,15.339-12.437,27.776-27.775,27.776c-15.338,0-27.776-12.437-27.776-27.776
	c0-15.337,12.438-27.775,27.776-27.775C241.434,129.952,253.87,142.39,253.87,157.727"/>
</svg>
