<?xml version="1.0" encoding="utf-8"?>
<!-- Generator: Adobe Illustrator 16.0.0, SVG Export Plug-In . SVG Version: 6.00 Build 0)  -->
<!DOCTYPE svg PUBLIC "-//W3C//DTD SVG 1.1//EN" "http://www.w3.org/Graphics/SVG/1.1/DTD/svg11.dtd">
<svg version="1.1" id="Layer_1" xmlns="http://www.w3.org/2000/svg" xmlns:xlink="http://www.w3.org/1999/xlink" x="0px" y="0px"
	 width="1100px" height="450px" viewBox="0 0 1100 450" enable-background="new 0 0 1100 450" xml:space="preserve">
<rect fill="#DC6652" width="1100" height="450"/>
<g>
	<polygon fill="#A74538" points="36.443,391.471 47.33,402.359 36.443,413.247 33.279,410.084 41.005,402.359 33.279,394.633 	"/>
	<polygon fill="#A74538" points="73.714,391.471 84.601,402.359 73.714,413.247 70.55,410.084 78.276,402.359 70.55,394.633 	"/>
	<polygon fill="#A74538" points="110.983,391.471 121.874,402.359 110.983,413.247 107.822,410.084 115.548,402.359 
		107.822,394.633 	"/>
	<polygon fill="#A74538" points="148.257,391.471 159.144,402.359 148.257,413.247 145.093,410.084 152.819,402.359 
		145.093,394.633 	"/>
	<polygon fill="#A74538" points="185.528,391.471 196.415,402.359 185.528,413.247 182.364,410.084 190.09,402.359 182.364,394.633 
			"/>
	<polygon fill="#A74538" points="222.799,391.471 233.686,402.359 222.799,413.247 219.635,410.084 227.361,402.359 
		219.635,394.633 	"/>
	<polygon fill="#A74538" points="260.07,391.471 270.957,402.359 260.07,413.247 256.906,410.084 264.632,402.359 256.906,394.633 	
		"/>
	<polygon fill="#A74538" points="297.342,391.471 308.229,402.359 297.342,413.247 294.178,410.084 301.904,402.359 
		294.178,394.633 	"/>
	<polygon fill="#A74538" points="334.613,391.471 345.5,402.359 334.613,413.247 331.449,410.084 339.175,402.359 331.449,394.633 	
		"/>
	<polygon fill="#A74538" points="1058.336,52.247 1047.449,41.359 1058.336,30.471 1061.5,33.633 1053.773,41.359 1061.5,49.084 	
		"/>
	<polygon fill="#A74538" points="1021.065,52.247 1010.178,41.359 1021.065,30.471 1024.229,33.633 1016.504,41.359 
		1024.229,49.084 	"/>
	<polygon fill="#A74538" points="983.796,52.247 972.906,41.359 983.796,30.471 986.957,33.633 979.23,41.359 986.957,49.084 	"/>
	<polygon fill="#A74538" points="946.522,52.247 935.635,41.359 946.522,30.471 949.687,33.633 941.961,41.359 949.687,49.084 	"/>
	<polygon fill="#A74538" points="909.252,52.247 898.364,41.359 909.252,30.471 912.415,33.633 904.69,41.359 912.415,49.084 	"/>
	<polygon fill="#A74538" points="871.98,52.247 861.093,41.359 871.98,30.471 875.145,33.633 867.419,41.359 875.145,49.084 	"/>
	<polygon fill="#A74538" points="834.71,52.247 823.822,41.359 834.71,30.471 837.873,33.633 830.148,41.359 837.873,49.084 	"/>
	<polygon fill="#A74538" points="797.438,52.247 786.55,41.359 797.438,30.471 800.602,33.633 792.875,41.359 800.602,49.084 	"/>
	<polygon fill="#A74538" points="760.167,52.247 749.279,41.359 760.167,30.471 763.33,33.633 755.605,41.359 763.33,49.084 	"/>
</g>
</svg>
