<?xml version="1.0" encoding="utf-8"?>
<!-- Generator: Adobe Illustrator 16.0.0, SVG Export Plug-In . SVG Version: 6.00 Build 0)  -->
<!DOCTYPE svg PUBLIC "-//W3C//DTD SVG 1.1//EN" "http://www.w3.org/Graphics/SVG/1.1/DTD/svg11.dtd">
<svg version="1.1" id="Layer_1" xmlns="http://www.w3.org/2000/svg" xmlns:xlink="http://www.w3.org/1999/xlink" x="0px" y="0px"
	 width="400px" height="400px" viewBox="0 0 400 400" enable-background="new 0 0 400 400" xml:space="preserve">
<path fill="none" stroke="#61E0DC" stroke-width="5" stroke-miterlimit="10" d="M369.44,200.028
	c0,93.151-75.514,168.665-168.665,168.665S32.11,293.179,32.11,200.028c0-93.15,75.514-168.665,168.665-168.665
	S369.44,106.877,369.44,200.028"/>
<polygon fill="none" stroke="#61E0DC" stroke-width="5" stroke-miterlimit="10" points="179.867,271.241 152.186,271.241 
	152.186,168.716 126.555,176.92 119.994,152.517 170.641,135.911 179.867,135.911 "/>
<polygon fill="none" stroke="#61E0DC" stroke-width="5" stroke-miterlimit="10" points="287.682,192.391 263.021,217.052 
	287.682,241.715 274.26,255.304 249.433,230.642 224.77,255.304 211.348,241.715 236.011,217.052 211.348,192.391 224.77,178.97 
	249.6,203.632 274.26,178.97 "/>
</svg>
