<?xml version="1.0" encoding="utf-8"?>
<!-- Generator: Adobe Illustrator 16.0.0, SVG Export Plug-In . SVG Version: 6.00 Build 0)  -->
<!DOCTYPE svg PUBLIC "-//W3C//DTD SVG 1.1//EN" "http://www.w3.org/Graphics/SVG/1.1/DTD/svg11.dtd">
<svg version="1.1" id="Layer_1" xmlns="http://www.w3.org/2000/svg" xmlns:xlink="http://www.w3.org/1999/xlink" x="0px" y="0px"
	 width="400px" height="400px" viewBox="0 0 400 400" enable-background="new 0 0 400 400" xml:space="preserve">
<circle fill="none" stroke="#61E0DC" stroke-width="5" stroke-miterlimit="10" cx="200.981" cy="198.833" r="169.157"/>
<rect x="196.711" y="129.931" fill="#61E0DC" width="6.722" height="136.098"/>
<path fill="#61E0DC" d="M181.087,179.982L181.087,179.982c-5.225,0-10.391-1.392-14.94-4.018
	c-9.23-5.33-14.979-15.341-15.005-26.126l-0.015-1.949l1.699-0.972c9.217-5.284,20.975-5.342,30.126-0.052
	c9.228,5.323,14.979,15.333,15.018,26.119l0.013,1.956l-1.7,0.972C191.643,178.579,186.391,179.982,181.087,179.982
	 M157.942,151.828c0.649,7.7,4.868,14.449,11.566,18.322c6.551,3.779,14.809,4.062,21.655,0.853
	c-0.65-7.707-4.876-14.455-11.574-18.321C173.052,148.919,164.808,148.625,157.942,151.828"/>
<path fill="#61E0DC" d="M218.854,206.87c-5.3,0-10.557-1.405-15.198-4.071l-1.694-0.971v-1.958
	c0.041-10.783,5.797-20.793,15.021-26.118c9.163-5.285,20.913-5.232,30.129,0.052l1.693,0.971v1.95
	c-0.032,10.785-5.789,20.795-15.02,26.125C229.241,205.477,224.084,206.87,218.854,206.87 M208.775,197.888
	c6.853,3.21,15.112,2.924,21.65-0.852c6.695-3.873,10.923-10.621,11.566-18.322c-6.854-3.196-15.099-2.907-21.647,0.854
	C213.646,183.435,209.426,190.183,208.775,197.888"/>
<path fill="#61E0DC" d="M286.482,294.598h-0.018l-56.309-0.248c-1.845-0.015-3.342-1.512-3.342-3.361v-0.329l-1.692-6.761h-42.71
	c-0.537,0-1.062-0.132-1.535-0.368l-53.938-27.595c-0.664-0.344-1.202-0.894-1.518-1.577c-22.082-47.351-22.082-47.358-22.2-47.896
	c-1.51-4.543-0.29-9.788,3.263-13.333c5.061-5.067,13.923-5.074,19.009,0.007c0.427,0.425,1.438,1.431,19.359,36.287l28.541,5.08
	c-7.751-7.679-18.655-18.479-18.95-18.773c-3.946-3.951-6.669-12.398-0.506-18.918c4.483-4.732,12.379-5.225,17.769-1.333
	l35.416,25.431c7.673,0.242,20.783,1.365,29.709,5.921c19.522,9.952,51.163,60.48,52.502,62.619
	c0.644,1.038,0.685,2.351,0.079,3.415C288.818,293.941,287.699,294.598,286.482,294.598 M232.983,287.64l47.33,0.21
	c-8.631-13.207-32.085-47.671-46.534-55.032c-8.462-4.312-22.3-5.086-27.852-5.218c-0.684-0.021-1.341-0.236-1.884-0.632
	l-36.269-26.033c-1.292-0.938-2.842-1.45-4.385-1.45c-1.24,0-3.045,0.34-4.567,1.949c-4.261,4.504,0.301,9.473,0.347,9.525
	c0.145,0.138,26.62,26.354,26.62,26.354c1.041,1.041,1.292,2.63,0.617,3.943c-0.683,1.3-2.128,1.994-3.573,1.76l-40.79-7.266
	c-1.037-0.183-1.93-0.839-2.403-1.771c-6.722-13.077-17.867-34.522-19.168-36.399c-2.015-1.936-6.702-2.229-9.236,0.308
	c-1.751,1.747-2.343,4.366-1.529,6.834c0.407,0.893,15.085,32.382,21.322,45.75l52.193,26.702h44.523
	c1.553,0,2.892,1.052,3.271,2.548L232.983,287.64z"/>
<path fill="#61E0DC" d="M197.866,121.83c-3.815-0.421-6.637-1.602-9.132-3.343c-1.175-1.226-1.175-3.293-0.334-4.424
	c0.71-0.944,2.494-1.694,4.096-0.518c1.228,0.846,3.257,1.648,5.371,2.067v-9.505c-5.371-1.181-10.78-2.874-9.933-10.312
	c0.466-5.318,4.989-7.909,9.933-8.665v-0.749c0-4.195,5.315-4.195,5.315,0v1.13c2.076,0.374,4.149,0.893,5.844,2.114
	c3.342,2.403,0,7.017-2.967,4.896c-0.801-0.329-1.602-0.748-2.877-1.128v8.571c4.951,1.269,9.842,3.388,9.842,9.459
	c0,5.837-4.38,9.184-9.842,9.985v1.175c0,4.188-5.315,4.188-5.315,0V121.83z M197.866,92.972c-2.494,0.421-4.143,1.549-4.143,4.043
	c0,2.074,1.649,2.967,4.143,3.768V92.972z M203.182,115.612c2.076-0.846,3.769-2.067,3.769-4.561
	c-0.421-1.604-1.692-2.829-3.769-3.296V115.612z"/>
<path fill="#61E0DC" d="M200.071,134.727c-16.672,0-30.249-13.566-30.249-30.248c0-16.679,13.577-30.248,30.249-30.248
	c16.686,0,30.25,13.569,30.25,30.248C230.32,121.16,216.757,134.727,200.071,134.727 M200.071,80.953
	c-12.97,0-23.524,10.555-23.524,23.526s10.555,23.527,23.524,23.527c12.97,0,23.528-10.556,23.528-23.527
	S213.041,80.953,200.071,80.953"/>
</svg>
