<?xml version="1.0" encoding="utf-8"?>
<!-- Generator: Adobe Illustrator 16.0.0, SVG Export Plug-In . SVG Version: 6.00 Build 0)  -->
<!DOCTYPE svg PUBLIC "-//W3C//DTD SVG 1.1//EN" "http://www.w3.org/Graphics/SVG/1.1/DTD/svg11.dtd">
<svg version="1.1" id="Layer_1" xmlns="http://www.w3.org/2000/svg" xmlns:xlink="http://www.w3.org/1999/xlink" x="0px" y="0px"
	 width="400px" height="400px" viewBox="0 0 400 400" enable-background="new 0 0 400 400" xml:space="preserve">
<rect x="154.777" y="87.594" fill="#67DDE0" width="224.644" height="147.778"/>
<path fill="#22546C" d="M385.625,241.576H148.574V81.39h237.051V241.576z M160.98,229.168h212.236V93.796H160.98V229.168z"/>
<rect x="154.777" y="128.79" fill="#FFFFFF" width="224.644" height="147.78"/>
<path fill="#22546C" d="M385.625,282.773H148.574V122.587h237.051V282.773z M160.98,270.367h212.236V134.996H160.98V270.367z"/>
<rect x="179.738" y="202.682" fill="#67DDE0" width="24.961" height="49.254"/>
<path fill="#22546C" d="M210.903,258.139h-37.37v-61.662h37.37V258.139z M185.942,245.731h12.553v-36.848h-12.553V245.731z"/>
<rect x="229.659" y="186.263" fill="#ACF0F2" width="24.956" height="65.672"/>
<path fill="#22546C" d="M260.821,258.139h-37.366v-78.08h37.366V258.139z M235.863,245.731h12.548v-53.265h-12.548V245.731z"/>
<rect x="279.69" y="169.844" fill="#67DDE0" width="25.413" height="82.092"/>
<path fill="#22546C" d="M311.42,258.139h-38.048V163.64h38.048V258.139z M286.006,245.731h12.783v-69.686h-12.783V245.731z"/>
<rect x="329.498" y="153.413" fill="#ACF0F2" width="24.961" height="98.522"/>
<path fill="#22546C" d="M360.662,258.139h-37.368V147.208h37.368V258.139z M335.702,245.731h12.555v-86.115h-12.555V245.731z"/>
<path fill="#FFFFFF" d="M122.104,64.17c0,17.013-13.972,30.792-31.202,30.792c-17.229,0-31.201-13.779-31.201-30.792
	c0-17,13.972-30.776,31.201-30.776C108.132,33.394,122.104,47.17,122.104,64.17"/>
<path fill="#22546C" d="M90.902,101.165c-20.623,0-37.404-16.6-37.404-36.995c0-20.393,16.781-36.979,37.404-36.979
	s37.406,16.586,37.406,36.979C128.308,84.565,111.525,101.165,90.902,101.165 M90.902,39.598c-13.782,0-24.997,11.026-24.997,24.572
	c0,13.56,11.215,24.586,24.997,24.586c13.784,0,24.999-11.027,24.999-24.586C115.9,50.625,104.686,39.598,90.902,39.598"/>
<path fill="#FFFFFF" d="M213.01,108.592h-95.633l-26.475,26.125l-26.477-26.125h-9.959c-19.259,0-34.872,15.365-34.872,34.375
	v70.242c0,10.155,8.429,18.468,18.721,18.468c10.299,0,18.72-8.312,18.72-18.468v124.31c0,10.166,8.427,18.479,18.719,18.479
	c10.295,0,18.722-8.312,18.722-18.479c0,10.166,8.421,18.479,18.721,18.479c10.292,0,18.72-8.312,18.72-18.479V145.536h81.092
	c10.3,0,18.722-8.312,18.722-18.477C231.731,116.905,223.31,108.592,213.01,108.592"/>
<path fill="#22546C" d="M213.01,102.388h-98.178l-23.93,23.616l-23.93-23.616H54.466c-22.646,0-41.075,18.212-41.075,40.58v70.242
	c0,13.607,11.184,24.67,24.924,24.67c4.561,0,8.839-1.221,12.515-3.342v102.981c0,13.607,11.186,24.683,24.924,24.683
	c7.453,0,14.147-3.257,18.722-8.397c4.574,5.141,11.268,8.397,18.721,8.397c13.74,0,24.924-11.075,24.924-24.683V151.74h74.888
	c13.742,0,24.926-11.074,24.926-24.683C237.936,113.45,226.752,102.388,213.01,102.388 M213.01,139.332h-87.295v198.187
	c0,6.761-5.617,12.274-12.517,12.274c-6.39,0-11.671-4.731-12.418-10.8c0.252-0.678,0.41-1.4,0.41-2.166v-75.184
	c0-3.431-2.774-6.204-6.203-6.204c-3.43,0-6.205,2.773-6.205,6.204v75.184c0,0.238,0.043,0.463,0.069,0.691h-0.579
	c0,6.761-5.614,12.274-12.517,12.274c-6.898,0-12.517-5.514-12.517-12.274v-124.31h-0.271v-69.162c0-3.429-2.775-6.204-6.204-6.204
	c-3.428,0-6.203,2.775-6.203,6.204v71.695c-1.195,5.552-6.23,9.73-12.245,9.73c-6.9,0-12.517-5.501-12.517-12.264v-70.242
	c0-15.533,12.862-28.171,28.668-28.171h7.416l29.02,28.632l29.02-28.632h93.088c6.902,0,12.518,5.501,12.518,12.262
	C225.527,133.833,219.912,139.332,213.01,139.332"/>
</svg>
