<?xml version="1.0" encoding="utf-8"?>
<!-- Generator: Adobe Illustrator 16.0.0, SVG Export Plug-In . SVG Version: 6.00 Build 0)  -->
<!DOCTYPE svg PUBLIC "-//W3C//DTD SVG 1.1//EN" "http://www.w3.org/Graphics/SVG/1.1/DTD/svg11.dtd">
<svg version="1.1" id="Layer_1" xmlns="http://www.w3.org/2000/svg" xmlns:xlink="http://www.w3.org/1999/xlink" x="0px" y="0px"
	 width="1093.333px" height="265.186px" viewBox="0 0 1093.333 265.186" enable-background="new 0 0 1093.333 265.186"
	 xml:space="preserve">
<polygon fill="#A8CD41" points="25.874,43.458 23.139,40.724 29.82,34.042 23.139,27.358 25.874,24.624 35.291,34.042 "/>
<polygon fill="#A8CD41" points="58.111,43.458 55.376,40.724 62.058,34.042 55.376,27.358 58.111,24.624 67.528,34.042 "/>
<polygon fill="#A8CD41" points="90.349,43.458 87.614,40.724 94.295,34.042 87.614,27.358 90.349,24.624 99.766,34.042 "/>
<polygon fill="#A8CD41" points="122.586,43.458 119.851,40.724 126.533,34.042 119.851,27.358 122.586,24.624 132.003,34.042 "/>
<polygon fill="#A8CD41" points="154.824,43.458 152.089,40.724 158.771,34.042 152.089,27.358 154.824,24.624 164.241,34.042 "/>
<polygon fill="#A8CD41" points="187.061,43.458 184.326,40.724 191.008,34.042 184.326,27.358 187.061,24.624 196.478,34.042 "/>
<polygon fill="#A8CD41" points="219.298,43.458 216.563,40.724 223.245,34.042 216.563,27.358 219.298,24.624 228.716,34.042 "/>
<polygon fill="#A8CD41" points="251.536,43.458 248.801,40.724 255.483,34.042 248.801,27.358 251.536,24.624 260.953,34.042 "/>
<polygon fill="#A8CD41" points="1072.563,248.458 1063.146,239.042 1072.563,229.624 1075.299,232.358 1068.617,239.042 
	1075.299,245.724 "/>
<polygon fill="#A8CD41" points="1040.327,248.458 1030.908,239.042 1040.327,229.624 1043.061,232.358 1036.378,239.042 
	1043.061,245.724 "/>
<polygon fill="#A8CD41" points="1008.087,248.458 998.67,239.042 1008.087,229.624 1010.824,232.358 1004.141,239.042 
	1010.824,245.724 "/>
<polygon fill="#A8CD41" points="975.85,248.458 966.433,239.042 975.85,229.624 978.586,232.358 971.904,239.042 978.586,245.724 
	"/>
<polygon fill="#A8CD41" points="943.613,248.458 934.196,239.042 943.613,229.624 946.349,232.358 939.667,239.042 946.349,245.724 
	"/>
<polygon fill="#A8CD41" points="911.375,248.458 901.958,239.042 911.375,229.624 914.112,232.358 907.429,239.042 914.112,245.724 
	"/>
<polygon fill="#A8CD41" points="879.137,248.458 869.72,239.042 879.137,229.624 881.874,232.358 875.191,239.042 881.874,245.724 
	"/>
<polygon fill="#A8CD41" points="846.9,248.458 837.483,239.042 846.9,229.624 849.636,232.358 842.954,239.042 849.636,245.724 "/>
</svg>
