<?xml version="1.0" encoding="utf-8"?>
<!-- Generator: Adobe Illustrator 16.0.0, SVG Export Plug-In . SVG Version: 6.00 Build 0)  -->
<!DOCTYPE svg PUBLIC "-//W3C//DTD SVG 1.1 Tiny//EN" "http://www.w3.org/Graphics/SVG/1.1/DTD/svg11-tiny.dtd">
<svg version="1.1" baseProfile="tiny" id="Layer_1" xmlns="http://www.w3.org/2000/svg" xmlns:xlink="http://www.w3.org/1999/xlink"
	 x="0px" y="0px" width="150px" height="150px" viewBox="0 0 150 150" xml:space="preserve">
<g>
	<path fill="#909090" d="M69.902,122.439c-1.25-1.03-2.146-2.473-2.479-4.118l-2.321,2.586L53.96,104.94
		c-0.004-0.006-0.005-0.014-0.009-0.021c-1.566,0.662-3.082,1.379-4.541,2.156l20.366,35.987v-20.18
		C69.776,122.72,69.829,122.573,69.902,122.439z"/>
	<path fill="#909090" d="M83.833,120.907l-2.319-2.585c-0.333,1.645-1.23,3.087-2.479,4.116c0.073,0.135,0.126,0.281,0.126,0.445
		v18.492l20.352-34.305c-1.454-0.775-2.966-1.49-4.527-2.15c-0.004,0.006-0.005,0.014-0.009,0.02L83.833,120.907z"/>
	<path fill="#909090" d="M70.427,112.141l-12.326-8.718c-0.022-0.016-0.033-0.039-0.054-0.057c-0.778,0.264-1.544,0.54-2.3,0.831
		l9.54,13.671L70.427,112.141z"/>
	<path fill="#909090" d="M78.061,111.68c0.035,0.029,0.078,0.047,0.109,0.082l5.478,6.106l9.54-13.671
		c-0.756-0.29-1.524-0.568-2.304-0.832c-0.03,0.025-0.049,0.059-0.082,0.08L78.061,111.68z"/>
	<path fill="#909090" d="M69.07,116.484c0.06,0.124,0.099,0.259,0.099,0.405c0,2.922,2.376,5.299,5.297,5.299
		c2.923,0,5.301-2.377,5.301-5.299c0-0.146,0.039-0.281,0.099-0.404l-3.104-3.462c-0.136-0.151-0.196-0.336-0.218-0.523h-4.151
		c-0.021,0.188-0.083,0.373-0.218,0.524L69.07,116.484z"/>
	<path fill="#909090" d="M77.27,144.255V123.51c-0.862,0.366-1.809,0.569-2.803,0.569c-0.993,0-1.938-0.202-2.799-0.567v22.852
		c0,0.011-0.006,0.02-0.006,0.03L73.702,150h0.342l3.272-5.515C77.297,144.409,77.27,144.337,77.27,144.255z"/>
	<path fill="#909090" d="M100.309,61.981c-0.155,0.1-0.334,0.151-0.514,0.151c-0.12,0-0.241-0.023-0.355-0.069
		c-0.286-0.116-0.497-0.364-0.566-0.665c-2.033-8.873-9.13-14.586-12.056-16.31c0.579,2.225,1.864,6.627,3.087,10.65
		c0.073,0.134,0.115,0.288,0.115,0.452c0,0.522-0.424,0.945-0.946,0.945c-0.005-0.001-0.012,0-0.02,0
		c-0.277,0-0.549-0.122-0.734-0.35c-2.59-3.188-23.66-12.151-31.715-12.151c-0.803,0-1.317,0.095-1.639,0.198
		c-1.416,11.693-9.092,13.598-10.186,13.81c-1.358,0.492-2.016,5.201,0.039,11.566c2.083,6.462,5.264,9.634,6.654,9.384
		c0.416-0.081,0.83,0.126,1.02,0.502c5.419,10.709,15.277,19.422,21.975,19.422s16.555-8.713,21.975-19.422
		c0.19-0.376,0.603-0.583,1.021-0.502c1.397,0.252,4.569-2.925,6.655-9.384c2.066-6.403,1.389-11.135,0.014-11.579
		c-0.062-0.02-0.11-0.062-0.165-0.093C102.058,60.809,100.461,61.883,100.309,61.981z"/>
	<path fill="#909090" d="M150,0H0v150h21.756c0.328-23.199,13.881-41.361,36.414-48.676l0.297-0.095
		c1.423-0.448,2.768-0.871,4.266-5.137c0.002-0.006,0.007-0.009,0.009-0.015c-4.384-3.604-8.608-8.746-11.657-14.584
		c-3.106-0.228-6.341-5.354-8.065-10.703c-1.741-5.393-2.086-11.557,0.354-13.484c-5.516-16.199-6.334-26.721-2.481-32.129
		c2.614-3.669,6.75-4.14,10.061-4.14c0.441,0,0.861,0.008,1.253,0.015c0.595,0.011,1.127,0.022,1.548-0.002
		C64.556,13.607,74.438,9.833,83.132,9.833c7.622,0,14.325,2.971,19.385,8.59c6.549,7.273,8.847,17.088,8.211,23.13
		c-0.758,7.194-3.233,12.211-5.583,15.476c2.894,1.532,2.607,8.077,0.772,13.762c-1.726,5.348-4.961,10.474-8.066,10.702
		c-3.048,5.836-7.271,10.978-11.653,14.581c0.003,0.007,0.009,0.011,0.011,0.018c1.499,4.264,2.845,4.689,4.27,5.141l0.298,0.096
		c22.527,7.317,36.077,25.477,36.405,48.671H150V0z"/>
	<path fill="#909090" d="M23.647,150h47.882l-23.771-42.004C32.697,116.722,23.915,131.738,23.647,150z"/>
	<path fill="#909090" d="M53.145,44.106c0.029-0.289,0.19-0.548,0.436-0.703c0.7-0.442,1.689-0.658,3.024-0.658
		c7.028,0,23.876,6.46,30.672,10.829c-1.166-3.9-2.664-9.07-2.664-9.872c0-0.596,0.471-1.046,1.095-1.046
		c2.07,0,11.565,6.496,14.635,16.891c2.252-1.992,7.392-7.615,8.505-18.19c0.612-5.817-1.849-15.128-7.735-21.667
		c-4.69-5.21-10.908-7.964-17.979-7.964c-8.357,0-17.949,3.709-28.508,11.025c-0.129,0.089-0.278,0.145-0.434,0.163
		c-0.517,0.056-1.206,0.048-2.019,0.032c-0.38-0.007-0.789-0.015-1.217-0.015c-3.035,0-6.42,0.397-8.521,3.346
		c-3.421,4.802-2.515,15.002,2.692,30.324C47.084,55.955,52.196,53.397,53.145,44.106z"/>
	<path fill="#909090" d="M64.305,97.292c-1.285,3.404-2.604,4.634-4.097,5.307l11.329,8.011h4.695l12.44-8.039
		c-1.468-0.681-2.77-1.923-4.037-5.282c-3.537,2.587-7.101,4.121-10.168,4.121C71.401,101.409,67.84,99.876,64.305,97.292z"/>
	<path fill="#909090" d="M101.166,107.991L76.242,150h49.048C125.021,131.734,116.234,116.716,101.166,107.991z"/>
	<path fill="#232323" d="M63.938,95.514c0.493,0.174,0.752,0.713,0.579,1.206c-0.07,0.201-0.141,0.385-0.212,0.572
		c3.535,2.584,7.096,4.117,10.163,4.117c3.067,0,6.631-1.534,10.168-4.121c-0.07-0.186-0.141-0.369-0.211-0.568
		c-0.174-0.492,0.086-1.032,0.578-1.205c0.489-0.175,1.015,0.082,1.194,0.561c4.383-3.604,8.605-8.745,11.653-14.581
		c3.105-0.229,6.341-5.354,8.066-10.702c1.835-5.685,2.121-12.23-0.772-13.762c-0.4,0.557-0.793,1.052-1.178,1.509
		c0.055,0.031,0.103,0.073,0.165,0.093c1.375,0.444,2.053,5.176-0.014,11.579c-2.086,6.459-5.258,9.636-6.655,9.384
		c-0.418-0.081-0.83,0.126-1.021,0.502c-5.42,10.709-15.277,19.422-21.975,19.422s-16.555-8.713-21.975-19.422
		c-0.19-0.376-0.604-0.583-1.02-0.502c-1.39,0.25-4.57-2.922-6.654-9.384c-2.055-6.365-1.397-11.074-0.039-11.566
		c-0.059,0.011-0.104,0.019-0.123,0.022c-0.456,0.071-0.889-0.193-1.039-0.625c-0.086-0.25-0.162-0.487-0.246-0.734
		c-2.44,1.927-2.095,8.091-0.354,13.484c1.725,5.348,4.959,10.475,8.065,10.703c3.049,5.838,7.273,10.98,11.657,14.584
		C62.921,95.597,63.452,95.343,63.938,95.514z"/>
	<path fill="#232323" d="M44.658,58.667c0.019-0.003,0.063-0.011,0.123-0.022c1.094-0.212,8.77-2.117,10.186-13.81
		c0.322-0.104,0.835-0.198,1.639-0.198c8.055,0,29.125,8.963,31.715,12.151c0.186,0.228,0.457,0.35,0.734,0.35
		c0.008,0,0.015-0.001,0.02,0c0.522,0,0.946-0.423,0.946-0.945c0-0.164-0.042-0.317-0.115-0.452
		c-1.223-4.023-2.508-8.426-3.087-10.65c2.926,1.724,10.022,7.437,12.056,16.31c0.069,0.3,0.28,0.549,0.566,0.665
		c0.114,0.046,0.235,0.069,0.355,0.069c0.18,0,0.358-0.051,0.514-0.151c0.152-0.099,1.749-1.172,3.658-3.442
		c0.385-0.457,0.777-0.952,1.178-1.509c2.35-3.265,4.825-8.282,5.583-15.476c0.636-6.042-1.662-15.857-8.211-23.13
		c-5.06-5.62-11.763-8.59-19.385-8.59c-8.694,0-18.576,3.774-29.377,11.218c-0.421,0.025-0.953,0.013-1.548,0.002
		c-0.392-0.007-0.812-0.015-1.253-0.015c-3.311,0-7.447,0.471-10.061,4.14c-3.853,5.408-3.035,15.93,2.481,32.129
		c0.084,0.247,0.159,0.483,0.246,0.734C43.769,58.473,44.202,58.738,44.658,58.667z M42.432,26.276
		c2.101-2.949,5.486-3.346,8.521-3.346c0.429,0,0.837,0.008,1.217,0.015c0.813,0.016,1.502,0.024,2.019-0.032
		c0.156-0.018,0.305-0.073,0.434-0.163c10.56-7.315,20.151-11.025,28.508-11.025c7.071,0,13.289,2.754,17.979,7.964
		c5.887,6.539,8.348,15.85,7.735,21.667c-1.113,10.575-6.253,16.198-8.505,18.19c-3.069-10.395-12.564-16.891-14.635-16.891
		c-0.624,0-1.095,0.45-1.095,1.046c0,0.802,1.498,5.972,2.664,9.872c-6.796-4.368-23.644-10.829-30.672-10.829
		c-1.335,0-2.324,0.215-3.024,0.658c-0.246,0.155-0.406,0.415-0.436,0.703c-0.948,9.292-6.06,11.849-8.021,12.494
		C39.917,41.278,39.011,31.078,42.432,26.276z"/>
	<path fill="#232323" d="M71.537,110.609l-11.329-8.011c-0.379,0.171-0.77,0.308-1.173,0.435l-0.281,0.09
		c-0.239,0.077-0.47,0.163-0.707,0.243c0.021,0.018,0.032,0.041,0.054,0.057l12.326,8.718l0.34-0.38
		c0.349-0.389,0.945-0.421,1.335-0.072c0.237,0.213,0.325,0.517,0.291,0.812h4.151c-0.034-0.294,0.053-0.599,0.291-0.812
		c0.35-0.317,0.869-0.305,1.226-0.009l12.741-8.234c0.033-0.021,0.052-0.055,0.082-0.08c-0.232-0.078-0.459-0.162-0.693-0.238
		l-0.284-0.091c-0.425-0.135-0.835-0.281-1.233-0.466l-12.44,8.039H71.537z"/>
	<path fill="#232323" d="M78.215,121.938c0.358,0,0.659,0.207,0.819,0.5c1.249-1.029,2.146-2.472,2.479-4.116l-1.647-1.837
		c-0.06,0.123-0.099,0.258-0.099,0.404c0,2.922-2.378,5.299-5.301,5.299c-2.921,0-5.297-2.377-5.297-5.299
		c0-0.146-0.04-0.281-0.099-0.405l-1.647,1.837c0.333,1.646,1.23,3.088,2.479,4.118c0.161-0.294,0.461-0.501,0.82-0.501
		c0.522,0,0.945,0.423,0.945,0.945v0.628c0.861,0.365,1.807,0.567,2.799,0.567c0.994,0,1.941-0.203,2.803-0.569v-0.626
		C77.27,122.361,77.692,121.938,78.215,121.938z"/>
	<path fill="#232323" d="M70.722,121.938c-0.358,0-0.659,0.207-0.82,0.501c-0.073,0.134-0.125,0.28-0.125,0.444v20.18l1.885,3.33
		c0-0.011,0.006-0.02,0.006-0.03v-22.852v-0.628C71.667,122.361,71.244,121.938,70.722,121.938z"/>
	<path fill="#232323" d="M79.034,122.438c-0.16-0.293-0.461-0.5-0.819-0.5c-0.522,0-0.945,0.423-0.945,0.945v0.626v20.745
		c0,0.082,0.027,0.154,0.047,0.23l1.844-3.109v-18.492C79.16,122.72,79.107,122.573,79.034,122.438z"/>
	<path fill="#232323" d="M99.512,107.071L79.16,141.376l-1.844,3.109L74.044,150h2.198l24.924-42.009
		C100.622,107.677,100.072,107.369,99.512,107.071z"/>
	<path fill="#232323" d="M69.776,143.063l-20.366-35.987c-0.559,0.299-1.109,0.605-1.652,0.92L71.529,150h2.173l-2.041-3.606
		L69.776,143.063z"/>
	<path fill="#232323" d="M65.102,120.907l2.321-2.586l1.647-1.837l3.104-3.46c0.136-0.151,0.197-0.337,0.218-0.524
		c0.034-0.295-0.053-0.599-0.291-0.812c-0.39-0.349-0.986-0.316-1.335,0.072l-0.34,0.38l-5.14,5.728l-9.54-13.671
		c-0.606,0.232-1.205,0.473-1.796,0.723c0.004,0.007,0.004,0.015,0.009,0.021L65.102,120.907z"/>
	<path fill="#232323" d="M78.17,111.762c-0.031-0.035-0.074-0.053-0.109-0.082c-0.356-0.296-0.876-0.309-1.226,0.009
		c-0.238,0.213-0.325,0.518-0.291,0.812c0.021,0.188,0.082,0.372,0.218,0.523l3.104,3.462l1.647,1.837l2.319,2.585l11.143-15.967
		c0.004-0.006,0.005-0.014,0.009-0.02c-0.592-0.249-1.19-0.49-1.797-0.724l-9.54,13.671L78.17,111.762z"/>
	<path fill="#232323" d="M90.775,101.329l-0.298-0.096c-1.425-0.451-2.771-0.877-4.27-5.141c-0.002-0.007-0.008-0.011-0.011-0.018
		c-0.18-0.479-0.705-0.735-1.194-0.561c-0.492,0.173-0.752,0.713-0.578,1.205c0.07,0.199,0.141,0.383,0.211,0.568
		c1.268,3.359,2.569,4.602,4.037,5.282c0.398,0.185,0.809,0.331,1.233,0.466l0.284,0.091c0.234,0.076,0.461,0.16,0.693,0.238
		c0.779,0.264,1.548,0.542,2.304,0.832c0.606,0.233,1.205,0.475,1.797,0.724c1.562,0.66,3.073,1.375,4.527,2.15
		c0.561,0.298,1.11,0.605,1.654,0.92c15.068,8.725,23.855,23.743,24.124,42.009h1.891
		C126.853,126.806,113.303,108.646,90.775,101.329z"/>
	<path fill="#232323" d="M47.759,107.996c0.543-0.314,1.093-0.621,1.652-0.92c1.458-0.777,2.974-1.494,4.541-2.156
		c0.591-0.25,1.19-0.49,1.796-0.723c0.755-0.291,1.521-0.567,2.3-0.831c0.237-0.08,0.468-0.166,0.707-0.243l0.281-0.09
		c0.404-0.127,0.794-0.264,1.173-0.435c1.492-0.673,2.812-1.902,4.097-5.307c0.071-0.188,0.142-0.371,0.212-0.572
		c0.173-0.493-0.086-1.032-0.579-1.206c-0.486-0.171-1.017,0.083-1.196,0.564c-0.002,0.006-0.007,0.009-0.009,0.015
		c-1.498,4.266-2.842,4.688-4.266,5.137l-0.297,0.095C35.638,108.639,22.084,126.801,21.756,150h1.891
		C23.915,131.738,32.697,116.722,47.759,107.996z"/>
</g>
</svg>
