<?xml version="1.0" encoding="utf-8"?>
<!-- Generator: Adobe Illustrator 16.0.0, SVG Export Plug-In . SVG Version: 6.00 Build 0)  -->
<!DOCTYPE svg PUBLIC "-//W3C//DTD SVG 1.1//EN" "http://www.w3.org/Graphics/SVG/1.1/DTD/svg11.dtd">
<svg version="1.1" id="Layer_1" xmlns="http://www.w3.org/2000/svg" xmlns:xlink="http://www.w3.org/1999/xlink" x="0px" y="0px"
	 width="400px" height="400px" viewBox="0 0 400 400" enable-background="new 0 0 400 400" xml:space="preserve">
<path fill="#FFFFFF" d="M163.379,289.769c6.534,6.539,17.131,6.539,23.658,0c-6.527,6.539-6.527,17.126,0,23.663
	c6.54,6.529,17.132,6.529,23.664,0l63.589-63.588c26.03-26.03,26.03-68.616,0-94.644c-26.028-26.031-68.619-26.031-94.644,0
	l-63.59,63.588c-6.532,6.526-6.532,17.125,0,23.664c6.533,6.527,17.126,6.527,23.658,0c-6.532,6.527-6.532,17.124,0,23.653
	c6.533,6.537,17.132,6.537,23.665,0C156.847,272.643,156.847,283.241,163.379,289.769"/>
<path fill="#22546C" d="M198.87,324.15c-6.021,0-11.684-2.342-15.944-6.596c-4.685-4.691-6.867-10.939-6.56-17.093
	c-6.483,0.326-12.572-2.046-17.104-6.577c-4.258-4.252-6.606-9.914-6.606-15.942c0-0.381,0.012-0.763,0.03-1.137
	c-6.306,0.222-12.56-2.053-17.087-6.584c-4.258-4.254-6.606-9.917-6.606-15.944c0-0.381,0.011-0.76,0.027-1.136
	c-6.294,0.284-12.554-2.042-17.08-6.573c-4.258-4.265-6.606-9.928-6.606-15.954c0-6.027,2.348-11.689,6.606-15.942l63.59-63.588
	c13.686-13.692,31.954-21.225,51.439-21.225c19.479,0,37.752,7.533,51.438,21.225c28.366,28.36,28.366,74.516,0,102.876
	l-63.589,63.589C210.56,321.809,204.897,324.15,198.87,324.15 M192.86,289.762c0,1.491-0.569,2.981-1.7,4.118
	c-4.253,4.258-4.253,11.184,0,15.441c4.104,4.112,11.309,4.105,15.426-0.006l63.589-63.588c23.823-23.823,23.823-62.588,0-86.412
	c-11.491-11.491-26.837-17.813-43.206-17.813c-16.376,0-31.721,6.323-43.207,17.813l-63.588,63.588
	c-2.06,2.06-3.194,4.798-3.194,7.71c0,2.917,1.135,5.657,3.194,7.722c4.123,4.121,11.315,4.109,15.425,0
	c2.274-2.275,5.96-2.275,8.234,0c1.136,1.137,1.705,2.627,1.705,4.116s-0.569,2.985-1.705,4.116
	c-2.058,2.059-3.196,4.799-3.196,7.709c0,2.911,1.138,5.653,3.196,7.712c4.126,4.126,11.303,4.126,15.43,0
	c2.274-2.276,5.958-2.276,8.232,0c1.138,1.131,1.707,2.619,1.707,4.116c0,1.489-0.569,2.978-1.707,4.116
	c-2.057,2.062-3.194,4.804-3.194,7.721c0,2.911,1.137,5.651,3.194,7.71c4.128,4.123,11.311,4.128,15.421,0.007
	c2.273-2.287,5.97-2.275,8.232-0.013C192.291,286.783,192.86,288.273,192.86,289.762"/>
<path fill="#FFFFFF" d="M280.091,290.962c6.532-6.526,6.532-17.124,0-23.651c6.532,6.527,17.125,6.527,23.663,0
	c6.527-6.538,6.527-17.138,0-23.664l-78.155-78.157c-26.029-26.029-68.616-26.029-94.644,0c-26.03,26.03-26.03,68.626,0,94.645
	l78.149,78.155c6.533,6.539,17.131,6.539,23.664,0c6.533-6.537,6.533-17.126,0-23.663c6.533,6.537,17.126,6.537,23.658,0
	c6.533-6.527,6.533-17.125,0-23.665C262.959,297.502,273.557,297.502,280.091,290.962"/>
<path fill="#22546C" d="M220.936,349.02c-6.027,0-11.689-2.348-15.948-6.613l-78.15-78.155
	c-13.691-13.68-21.226-31.948-21.226-51.433s7.535-37.76,21.226-51.445c13.685-13.692,31.954-21.224,51.438-21.224
	c19.485,0,37.753,7.532,51.439,21.224l78.155,78.156c8.785,8.784,8.79,23.095,0.007,31.892c-4.544,4.537-10.752,6.863-17.092,6.579
	c0.017,0.374,0.028,0.756,0.028,1.137c0,6.027-2.348,11.689-6.606,15.941c-4.527,4.533-10.82,6.812-17.086,6.585
	c0.018,0.377,0.027,0.757,0.027,1.137c0,6.027-2.347,11.689-6.605,15.943c-4.531,4.532-10.684,6.964-17.098,6.578
	c0.308,6.152-1.876,12.401-6.561,17.085C232.626,346.672,226.963,349.02,220.936,349.02 M178.276,151.793
	c-16.374,0-31.714,6.322-43.206,17.814c-11.49,11.49-17.812,26.836-17.812,43.211s6.322,31.714,17.812,43.2l78.15,78.155
	c4.128,4.129,11.304,4.129,15.432,0c4.247-4.252,4.247-11.179,0-15.431c-1.137-1.137-1.705-2.627-1.705-4.116
	c0-1.496,0.568-2.986,1.705-4.118c2.274-2.273,5.959-2.273,8.233,0c4.133,4.128,11.304,4.128,15.425,0
	c2.059-2.057,3.195-4.798,3.195-7.709c0-2.917-1.137-5.656-3.195-7.722c-1.137-1.137-1.707-2.626-1.707-4.116
	c0-1.495,0.57-2.984,1.707-4.115c2.274-2.274,5.959-2.274,8.233,0c4.128,4.127,11.304,4.127,15.432,0
	c2.057-2.059,3.195-4.8,3.195-7.71c0-2.911-1.139-5.651-3.195-7.709c-1.139-1.133-1.706-2.629-1.706-4.117
	c0-1.489,0.567-2.979,1.706-4.115c2.274-2.275,5.958-2.275,8.232,0c4.116,4.115,11.31,4.121,15.438-0.008
	c4.24-4.253,4.24-11.172-0.007-15.425l-78.155-78.155C209.991,158.115,194.651,151.793,178.276,151.793"/>
<path fill="#FFFFFF" d="M197.813,319.812l-0.365,0.363c-6.481,6.482-17.041,6.55-23.59,0c-6.556-6.55-6.556-17.182-0.074-23.652
	c-6.482,6.471-17.034,6.551-23.59,0c-6.55-6.562-6.55-17.183-0.074-23.665c-6.476,6.482-17.033,6.551-23.583,0
	c-6.556-6.561-6.556-17.181-0.075-23.663c-6.481,6.482-17.035,6.549-23.59,0c-6.55-6.551-6.55-17.183-0.074-23.663l0.364-0.365
	c6.556-6.55,17.183-6.55,23.737,0c6.551,6.55,6.477,17.115-0.073,23.664c6.55-6.549,17.182-6.549,23.731,0
	c6.557,6.551,6.483,17.104-0.067,23.664c6.55-6.561,17.181-6.561,23.732,0c6.55,6.55,6.481,17.103-0.075,23.653
	c6.556-6.551,17.183-6.551,23.739,0C204.436,302.709,204.362,313.263,197.813,319.812"/>
<path fill="#22546C" d="M185.645,330.887c-6.005,0-11.651-2.341-15.903-6.595c-4.277-4.276-6.635-9.961-6.629-16.017
	c0-0.357,0.006-0.716,0.022-1.073c-6.339,0.289-12.525-2.034-17.056-6.562c-4.69-4.694-6.893-10.956-6.603-17.103
	c-6.338,0.308-12.531-2.035-17.058-6.561c-4.695-4.697-6.894-10.958-6.605-17.104c-6.426,0.355-12.531-2.034-17.057-6.561
	c-8.813-8.812-8.848-23.118-0.074-31.896c9.262-9.263,23.788-8.912,32.333-0.365c4.674,4.674,6.851,10.922,6.529,17.074
	c6.294-0.283,12.586,2.041,17.13,6.59c4.673,4.668,6.851,10.918,6.527,17.068c6.482-0.353,12.599,2.058,17.143,6.602
	c4.263,4.265,6.601,9.933,6.578,15.96c0,0.369-0.012,0.734-0.034,1.097c6.442-0.272,12.582,2.055,17.113,6.589
	c8.768,8.786,8.733,23.09-0.072,31.898C197.312,328.546,191.66,330.887,185.645,330.887 M178.146,300.384
	c-0.079,0.09-0.166,0.177-0.25,0.263c-2.024,2.018-3.14,4.729-3.14,7.634c-0.005,2.941,1.143,5.703,3.218,7.779
	c4.118,4.122,11.27,4.104,15.358,0c4.632-4.634,4.668-11.56,0.432-15.801c-4.128-4.128-11.36-4.145-15.5,0.006
	C178.225,300.305,178.185,300.344,178.146,300.384 M154.384,276.822c-0.044,0.051-0.096,0.103-0.147,0.154
	c-4.224,4.229-4.191,11.155,0.079,15.436c4.105,4.094,11.252,4.077,15.359-0.011c0.033-0.04,0.072-0.075,0.112-0.113
	c0.08-0.085,0.159-0.177,0.245-0.258c2.081-2.08,3.235-4.826,3.246-7.73c0.012-2.901-1.113-5.63-3.171-7.688
	c-4.139-4.149-11.366-4.144-15.494-0.005C154.537,276.681,154.463,276.754,154.384,276.822 M130.755,253.124
	c-0.057,0.062-0.113,0.126-0.176,0.188c-4.231,4.232-4.195,11.155,0.073,15.431c4.111,4.111,11.252,4.1,15.352,0
	c0.068-0.073,0.147-0.143,0.222-0.209c0.046-0.052,0.098-0.104,0.142-0.148c4.276-4.282,4.31-11.206,0.074-15.438
	c-4.139-4.139-11.36-4.139-15.499,0C130.88,253.011,130.816,253.067,130.755,253.124 M115.034,226.077
	c-2.935,0-5.686,1.137-7.754,3.208c-4.595,4.599-4.56,11.52-0.29,15.794c4.116,4.123,11.261,4.1,15.356,0
	c0.063-0.062,0.124-0.121,0.187-0.176c0.057-0.063,0.115-0.126,0.177-0.188c4.276-4.275,4.311-11.194,0.074-15.43
	C120.714,227.214,117.961,226.077,115.034,226.077"/>
<path fill="#FFFFFF" d="M270.163,172.346l7.471-7.425c-7.369-12.167-17.87-22.947-37.537-27.45
	c-26.955-6.164-55.145,3.184-74.699,22.743l-27.479,27.474c-5.708,5.708-6.021,14.852-0.716,20.934
	c6.192,7.108,17.108,7.461,23.75,0.787l21.439-21.643c7.648-7.686,19.208-10.506,29.243-6.401
	C226.69,187.528,250.462,192.054,270.163,172.346"/>
<path fill="#22546C" d="M149.443,220.017c-6.378,0-12.439-2.764-16.629-7.567c-7.285-8.352-6.853-21.038,0.989-28.878l27.479-27.474
	c21.198-21.202,52.223-30.698,80.113-24.301c23.919,5.475,34.978,19.804,41.221,30.111c1.393,2.298,1.029,5.249-0.875,7.142
	l-7.471,7.426c-10.593,10.598-23.346,15.976-37.884,15.976c-8.648,0-17.718-1.916-26.957-5.697
	c-7.516-3.065-16.875-0.938-22.909,5.117l-21.434,21.634C160.906,217.703,155.358,220.017,149.443,220.017 M223.375,141.411
	c-19.667,0-39.3,8.353-53.86,22.919l-27.48,27.474c-3.525,3.524-3.724,9.233-0.443,12.991c3.811,4.379,11.14,4.611,15.232,0.508
	l21.436-21.635c9.285-9.331,23.783-12.508,35.581-7.693c20.305,8.314,38.617,5.851,52.207-7.744l4.145-4.116
	c-5.713-8.279-14.63-17.131-31.396-20.968C233.768,141.998,228.576,141.411,223.375,141.411"/>
<polygon fill="#FFFFFF" points="352.157,168.981 264.796,81.615 221.111,125.292 308.479,212.658 "/>
<path fill="#22546C" d="M308.479,220.894l-95.601-95.602l51.917-51.911l95.596,95.6L308.479,220.894z M229.346,125.292
	l79.134,79.134l35.443-35.445l-79.127-79.134L229.346,125.292z"/>
<rect x="246.701" y="94.407" transform="matrix(0.7071 0.7071 -0.7071 0.7071 178.9488 -181.4315)" fill="#67DDE0" width="123.556" height="61.769"/>
<path fill="#22546C" d="M330.323,199.048l-95.599-95.602l51.91-51.91l95.599,95.6L330.323,199.048z M251.189,103.447l79.134,79.134
	l35.445-35.444l-79.134-79.134L251.189,103.447z"/>
<polygon fill="#FFFFFF" points="133.881,81.058 46.514,168.424 90.199,212.104 177.559,124.734 "/>
<path fill="#22546C" d="M90.199,220.334l-51.916-51.91l95.6-95.6l51.91,51.91L90.199,220.334z M54.748,168.424l35.451,35.444
	l79.128-79.134L133.882,89.29L54.748,168.424z"/>
<polygon fill="#67DDE0" points="112.037,59.212 24.67,146.579 68.354,190.258 155.721,102.89 "/>
<path fill="#22546C" d="M68.354,198.489l-51.917-51.91l95.6-95.599l51.915,51.91L68.354,198.489z M32.903,146.579l35.452,35.445
	l79.133-79.134l-35.45-35.445L32.903,146.579z"/>
<path fill="#22546C" d="M232.768,320.449c-1.489,0-2.979-0.569-4.116-1.706l-13.134-13.123c-2.274-2.269-2.274-5.959,0-8.232
	c2.273-2.274,5.959-2.274,8.232,0l13.135,13.121c2.273,2.271,2.273,5.962,0,8.234C235.748,319.88,234.258,320.449,232.768,320.449"
	/>
<path fill="#22546C" d="M256.426,296.784c-1.489,0-2.979-0.568-4.116-1.706l-13.128-13.121c-2.273-2.275-2.273-5.959,0-8.232
	c2.274-2.275,5.959-2.275,8.232,0l13.129,13.121c2.273,2.274,2.273,5.959,0,8.232C259.405,296.216,257.916,296.784,256.426,296.784"
	/>
<path fill="#22546C" d="M280.227,272.984c-1.489,0-2.979-0.568-4.116-1.706l-13.129-13.123c-2.273-2.274-2.273-5.959,0-8.232
	c2.274-2.274,5.96-2.274,8.233,0l13.128,13.123c2.274,2.274,2.274,5.959,0,8.232C283.206,272.416,281.716,272.984,280.227,272.984"
	/>
</svg>
