<?xml version="1.0" encoding="utf-8"?>
<!-- Generator: Adobe Illustrator 16.0.0, SVG Export Plug-In . SVG Version: 6.00 Build 0)  -->
<!DOCTYPE svg PUBLIC "-//W3C//DTD SVG 1.1 Tiny//EN" "http://www.w3.org/Graphics/SVG/1.1/DTD/svg11-tiny.dtd">
<svg version="1.1" baseProfile="tiny" id="Layer_1" xmlns="http://www.w3.org/2000/svg" xmlns:xlink="http://www.w3.org/1999/xlink"
	 x="0px" y="0px" width="50.172px" height="342.688px" viewBox="0 0 50.172 342.688" xml:space="preserve">
<polygon fill="#B94131" points="15.147,324.012 26.035,313.124 36.922,324.012 33.76,327.176 26.035,319.45 18.309,327.176 "/>
<polygon fill="#B94131" points="15.147,286.741 26.035,275.854 36.922,286.741 33.76,289.904 26.035,282.18 18.309,289.904 "/>
<polygon fill="#B94131" points="15.147,249.471 26.035,238.581 36.922,249.471 33.76,252.633 26.035,244.907 18.309,252.633 "/>
<polygon fill="#B94131" points="15.147,212.198 26.035,201.311 36.922,212.198 33.76,215.361 26.035,207.637 18.309,215.361 "/>
<polygon fill="#B94131" points="15.147,174.927 26.035,164.039 36.922,174.927 33.76,178.091 26.035,170.365 18.309,178.091 "/>
<polygon fill="#B94131" points="15.147,137.656 26.035,126.769 36.922,137.656 33.76,140.819 26.035,133.095 18.309,140.819 "/>
<polygon fill="#B94131" points="15.147,100.385 26.035,89.498 36.922,100.385 33.76,103.549 26.035,95.823 18.309,103.549 "/>
<polygon fill="#B94131" points="15.147,63.113 26.035,52.226 36.922,63.113 33.76,66.276 26.035,58.552 18.309,66.276 "/>
<polygon fill="#B94131" points="15.147,25.842 26.035,14.955 36.922,25.842 33.76,29.006 26.035,21.28 18.309,29.006 "/>
</svg>
