<?xml version="1.0" encoding="utf-8"?>
<!-- Generator: Adobe Illustrator 16.0.0, SVG Export Plug-In . SVG Version: 6.00 Build 0)  -->
<!DOCTYPE svg PUBLIC "-//W3C//DTD SVG 1.1 Tiny//EN" "http://www.w3.org/Graphics/SVG/1.1/DTD/svg11-tiny.dtd">
<svg version="1.1" baseProfile="tiny" id="Layer_1" xmlns="http://www.w3.org/2000/svg" xmlns:xlink="http://www.w3.org/1999/xlink"
	 x="0px" y="0px" width="50.172px" height="342.688px" viewBox="0 0 50.172 342.688" xml:space="preserve">
<polygon fill="#B94131" points="36.922,18.119 26.035,29.007 15.147,18.119 18.309,14.955 26.035,22.681 33.76,14.955 "/>
<polygon fill="#B94131" points="36.922,55.39 26.035,66.277 15.147,55.39 18.309,52.227 26.035,59.951 33.76,52.227 "/>
<polygon fill="#B94131" points="36.922,92.66 26.035,103.55 15.147,92.66 18.309,89.498 26.035,97.224 33.76,89.498 "/>
<polygon fill="#B94131" points="36.922,129.933 26.035,140.82 15.147,129.933 18.309,126.77 26.035,134.494 33.76,126.77 "/>
<polygon fill="#B94131" points="36.922,167.204 26.035,178.092 15.147,167.204 18.309,164.04 26.035,171.766 33.76,164.04 "/>
<polygon fill="#B94131" points="36.922,204.475 26.035,215.362 15.147,204.475 18.309,201.312 26.035,209.036 33.76,201.312 "/>
<polygon fill="#B94131" points="36.922,241.746 26.035,252.633 15.147,241.746 18.309,238.582 26.035,246.308 33.76,238.582 "/>
<polygon fill="#B94131" points="36.922,279.018 26.035,289.905 15.147,279.018 18.309,275.854 26.035,283.579 33.76,275.854 "/>
<polygon fill="#B94131" points="36.922,316.289 26.035,327.176 15.147,316.289 18.309,313.125 26.035,320.851 33.76,313.125 "/>
</svg>
