<?xml version="1.0" encoding="utf-8"?>
<!-- Generator: Adobe Illustrator 16.0.0, SVG Export Plug-In . SVG Version: 6.00 Build 0)  -->
<!DOCTYPE svg PUBLIC "-//W3C//DTD SVG 1.1 Tiny//EN" "http://www.w3.org/Graphics/SVG/1.1/DTD/svg11-tiny.dtd">
<svg version="1.1" baseProfile="tiny" id="Layer_1" xmlns="http://www.w3.org/2000/svg" xmlns:xlink="http://www.w3.org/1999/xlink"
	 x="0px" y="0px" width="440.5px" height="41px" viewBox="0 0 440.5 41" xml:space="preserve">
<polygon fill="#54BCBC" points="11.46,12.801 26.857,12.801 26.858,28.198 22.385,28.199 22.385,17.273 11.459,17.273 "/>
<polygon fill="#54BCBC" points="61.46,12.801 76.857,12.801 76.858,28.198 72.385,28.199 72.385,17.273 61.459,17.273 "/>
<polygon fill="#54BCBC" points="111.46,12.801 126.857,12.801 126.858,28.198 122.385,28.199 122.385,17.273 111.459,17.273 "/>
<polygon fill="#54BCBC" points="161.46,12.801 176.857,12.801 176.858,28.198 172.385,28.199 172.385,17.273 161.459,17.273 "/>
<polygon fill="#54BCBC" points="211.46,12.801 226.857,12.801 226.857,28.198 222.385,28.199 222.385,17.273 211.459,17.273 "/>
<polygon fill="#54BCBC" points="261.46,12.801 276.857,12.801 276.857,28.198 272.385,28.199 272.385,17.273 261.459,17.273 "/>
<polygon fill="#54BCBC" points="311.46,12.801 326.857,12.801 326.857,28.198 322.385,28.199 322.385,17.273 311.459,17.273 "/>
<polygon fill="#54BCBC" points="361.46,12.801 376.857,12.801 376.857,28.198 372.385,28.199 372.385,17.273 361.459,17.273 "/>
<polygon fill="#54BCBC" points="411.46,12.801 426.857,12.801 426.857,28.198 422.385,28.199 422.385,17.273 411.459,17.273 "/>
</svg>
