<?xml version="1.0" encoding="utf-8"?>
<!-- Generator: Adobe Illustrator 16.0.0, SVG Export Plug-In . SVG Version: 6.00 Build 0)  -->
<!DOCTYPE svg PUBLIC "-//W3C//DTD SVG 1.1 Tiny//EN" "http://www.w3.org/Graphics/SVG/1.1/DTD/svg11-tiny.dtd">
<svg version="1.1" baseProfile="tiny" id="Layer_1" xmlns="http://www.w3.org/2000/svg" xmlns:xlink="http://www.w3.org/1999/xlink"
	 x="0px" y="0px" width="445.5px" height="40px" viewBox="0 0 445.5 40" xml:space="preserve">
<polygon fill="#61E0DC" points="432.793,31.247 421.906,20.359 432.793,9.471 435.957,12.634 428.23,20.359 435.957,28.085 "/>
<polygon fill="#61E0DC" points="395.521,31.247 384.635,20.359 395.521,9.471 398.686,12.634 390.96,20.359 398.686,28.085 "/>
<polygon fill="#61E0DC" points="358.251,31.247 347.363,20.359 358.251,9.471 361.415,12.634 353.689,20.359 361.415,28.085 "/>
<polygon fill="#61E0DC" points="320.98,31.247 310.093,20.359 320.98,9.471 324.145,12.634 316.418,20.359 324.145,28.085 "/>
<polygon fill="#61E0DC" points="283.708,31.247 272.821,20.359 283.708,9.471 286.872,12.634 279.146,20.359 286.872,28.085 "/>
<polygon fill="#61E0DC" points="246.438,31.247 235.55,20.359 246.438,9.471 249.602,12.634 241.875,20.359 249.602,28.085 "/>
<polygon fill="#61E0DC" points="205.793,31.247 194.905,20.359 205.793,9.471 208.957,12.634 201.231,20.359 208.957,28.085 "/>
<polygon fill="#61E0DC" points="168.522,31.247 157.635,20.359 168.522,9.471 171.686,12.634 163.96,20.359 171.686,28.085 "/>
<polygon fill="#61E0DC" points="131.251,31.247 120.363,20.359 131.251,9.471 134.415,12.634 126.688,20.359 134.415,28.085 "/>
<polygon fill="#61E0DC" points="93.98,31.247 83.093,20.359 93.98,9.471 97.144,12.634 89.419,20.359 97.144,28.085 "/>
<polygon fill="#61E0DC" points="56.708,31.247 45.82,20.359 56.708,9.471 59.872,12.634 52.146,20.359 59.872,28.085 "/>
<polygon fill="#61E0DC" points="19.438,31.247 8.55,20.359 19.438,9.471 22.601,12.634 14.876,20.359 22.601,28.085 "/>
</svg>
