<?xml version="1.0" encoding="utf-8"?>
<!-- Generator: Adobe Illustrator 16.0.0, SVG Export Plug-In . SVG Version: 6.00 Build 0)  -->
<!DOCTYPE svg PUBLIC "-//W3C//DTD SVG 1.1 Tiny//EN" "http://www.w3.org/Graphics/SVG/1.1/DTD/svg11-tiny.dtd">
<svg version="1.1" baseProfile="tiny" id="Layer_1" xmlns="http://www.w3.org/2000/svg" xmlns:xlink="http://www.w3.org/1999/xlink"
	 x="0px" y="0px" width="445.5px" height="40px" viewBox="0 0 445.5 40" xml:space="preserve">
<polygon fill="#61E0DC" points="11.714,9.471 22.601,20.359 11.714,31.247 8.55,28.084 16.276,20.359 8.55,12.633 "/>
<polygon fill="#61E0DC" points="48.985,9.471 59.872,20.359 48.985,31.247 45.821,28.084 53.547,20.359 45.821,12.633 "/>
<polygon fill="#61E0DC" points="86.256,9.471 97.143,20.359 86.256,31.247 83.092,28.084 90.818,20.359 83.092,12.633 "/>
<polygon fill="#61E0DC" points="123.527,9.471 134.414,20.359 123.527,31.247 120.363,28.084 128.089,20.359 120.363,12.633 "/>
<polygon fill="#61E0DC" points="160.799,9.471 171.686,20.359 160.799,31.247 157.635,28.084 165.361,20.359 157.635,12.633 "/>
<polygon fill="#61E0DC" points="198.07,9.471 208.957,20.359 198.07,31.247 194.906,28.084 202.632,20.359 194.906,12.633 "/>
<polygon fill="#61E0DC" points="238.714,9.471 249.602,20.359 238.714,31.247 235.55,28.084 243.275,20.359 235.55,12.633 "/>
<polygon fill="#61E0DC" points="275.984,9.471 286.872,20.359 275.984,31.247 272.821,28.084 280.547,20.359 272.821,12.633 "/>
<polygon fill="#61E0DC" points="313.256,9.471 324.144,20.359 313.256,31.247 310.092,28.084 317.818,20.359 310.092,12.633 "/>
<polygon fill="#61E0DC" points="350.526,9.471 361.414,20.359 350.526,31.247 347.363,28.084 355.088,20.359 347.363,12.633 "/>
<polygon fill="#61E0DC" points="387.799,9.471 398.687,20.359 387.799,31.247 384.635,28.084 392.36,20.359 384.635,12.633 "/>
<polygon fill="#61E0DC" points="425.069,9.471 435.957,20.359 425.069,31.247 421.906,28.084 429.631,20.359 421.906,12.633 "/>
</svg>
