<?xml version="1.0" encoding="utf-8"?>
<!-- Generator: Adobe Illustrator 16.0.0, SVG Export Plug-In . SVG Version: 6.00 Build 0)  -->
<!DOCTYPE svg PUBLIC "-//W3C//DTD SVG 1.1 Tiny//EN" "http://www.w3.org/Graphics/SVG/1.1/DTD/svg11-tiny.dtd">
<svg version="1.1" baseProfile="tiny" id="Layer_1" xmlns="http://www.w3.org/2000/svg" xmlns:xlink="http://www.w3.org/1999/xlink"
	 x="0px" y="0px" width="1248.882px" height="403.903px" viewBox="0 0 1248.882 403.903" xml:space="preserve">
<rect fill="#F5AD2F" width="1248.882" height="403.903"/>
<path fill="none" stroke="#F47231" stroke-width="2.779" stroke-linecap="round" stroke-linejoin="round" stroke-miterlimit="10" d="
	M646.657,245.587c-0.137-4.541-3.882-8.16-8.446-8.117c-0.107,0.001-0.213,0.007-0.318,0.012c-2.021-3.292-5.654-5.489-9.8-5.489
	c-5.099,0-9.419,3.319-10.925,7.914c-3.06,0.093-5.513,2.6-5.513,5.681H646.657z"/>
<path fill="none" stroke="#F47231" stroke-width="2.779" stroke-linecap="round" stroke-linejoin="round" stroke-miterlimit="10" d="
	M81.022,233.433c-1.511-2.138-4.011-3.524-6.828-3.497c-0.104,0.002-0.208,0.008-0.313,0.012c-1.995-3.251-5.581-5.417-9.674-5.417
	c-5.031,0-9.299,3.276-10.783,7.812c-3.021,0.089-5.441,2.564-5.441,5.605h29.483"/>
<path fill="none" stroke="#F47231" stroke-width="2.779" stroke-linecap="round" stroke-linejoin="round" stroke-miterlimit="10" d="
	M100.375,243.636c-0.109-3.588-3.065-6.447-6.67-6.412c-0.084,0.002-0.167,0.005-0.251,0.009c-1.595-2.599-4.466-4.334-7.741-4.334
	c-4.027,0-7.439,2.621-8.628,6.25c-2.416,0.073-4.354,2.053-4.354,4.487H100.375z"/>
<path fill="none" stroke="#F47231" stroke-width="2.779" stroke-linecap="round" stroke-linejoin="round" stroke-miterlimit="10" d="
	M1171.062,200.052c-1.512-2.138-4.012-3.523-6.829-3.496c-0.104,0.001-0.208,0.007-0.312,0.012
	c-1.996-3.251-5.582-5.418-9.675-5.418c-5.032,0-9.299,3.277-10.783,7.812c-3.02,0.089-5.441,2.565-5.441,5.606h29.483"/>
<path fill="none" stroke="#F47231" stroke-width="2.779" stroke-linecap="round" stroke-linejoin="round" stroke-miterlimit="10" d="
	M1190.413,210.255c-0.107-3.587-3.064-6.447-6.672-6.411c-0.083,0.002-0.166,0.004-0.248,0.009
	c-1.597-2.599-4.468-4.333-7.743-4.333c-4.024,0-7.438,2.621-8.626,6.25c-2.417,0.073-4.355,2.052-4.355,4.486H1190.413z"/>
<path fill="none" stroke="#F47231" stroke-width="2.779" stroke-linecap="round" stroke-linejoin="round" stroke-miterlimit="10" d="
	M1007.483,50.532c13.729,0,26.121,5.723,34.92,14.913"/>
<path fill="none" stroke="#F47231" stroke-width="2.779" stroke-linecap="round" stroke-linejoin="round" stroke-miterlimit="10" d="
	M965.616,74.704c6.723-11.646,17.56-19.436,29.614-22.594"/>
<path fill="none" stroke="#F47231" stroke-width="2.779" stroke-linecap="round" stroke-linejoin="round" stroke-miterlimit="10" d="
	M965.616,123.047c-6.554-11.349-7.981-24.252-5.002-36.027"/>
<path fill="none" stroke="#F47231" stroke-width="2.779" stroke-linecap="round" stroke-linejoin="round" stroke-miterlimit="10" d="
	M1007.483,147.219c-12.898,0-24.616-5.05-33.284-13.282"/>
<path fill="none" stroke="#F47231" stroke-width="2.779" stroke-linecap="round" stroke-linejoin="round" stroke-miterlimit="10" d="
	M1049.35,123.047c-6.27,10.86-16.117,18.366-27.192,21.892"/>
<path fill="none" stroke="#F47231" stroke-width="2.779" stroke-linecap="round" stroke-linejoin="round" stroke-miterlimit="10" d="
	M1049.35,74.704c6.537,11.32,7.973,24.187,5.024,35.937"/>
<path fill="none" stroke="#F47231" stroke-width="2.779" stroke-linecap="round" stroke-linejoin="round" stroke-miterlimit="10" d="
	M1031.87,74.488c6.926,6.927,10.29,16.065,10.094,25.14"/>
<path fill="none" stroke="#F47231" stroke-width="2.779" stroke-linecap="round" stroke-linejoin="round" stroke-miterlimit="10" d="
	M998.557,65.562c9.267-2.482,18.663-0.945,26.339,3.543"/>
<path fill="none" stroke="#F47231" stroke-width="2.779" stroke-linecap="round" stroke-linejoin="round" stroke-miterlimit="10" d="
	M974.17,89.949c2.421-9.03,8.21-16.26,15.651-20.696"/>
<path fill="none" stroke="#F47231" stroke-width="2.779" stroke-linecap="round" stroke-linejoin="round" stroke-miterlimit="10" d="
	M983.097,123.263c-6.506-6.505-9.87-14.964-10.09-23.489"/>
<path fill="none" stroke="#F47231" stroke-width="2.779" stroke-linecap="round" stroke-linejoin="round" stroke-miterlimit="10" d="
	M1016.409,132.189c-8.641,2.315-17.394,1.134-24.76-2.674"/>
<path fill="none" stroke="#F47231" stroke-width="2.779" stroke-linecap="round" stroke-linejoin="round" stroke-miterlimit="10" d="
	M1040.796,107.802c-2.413,9.008-8.179,16.223-15.594,20.662"/>
<path fill="none" stroke="#F47231" stroke-width="2.779" stroke-linecap="round" stroke-linejoin="round" stroke-miterlimit="10" d="
	M1027.381,90.688c1.829,4.445,2.062,9.15,0.96,13.476"/>
<path fill="none" stroke="#F47231" stroke-width="2.779" stroke-linecap="round" stroke-linejoin="round" stroke-miterlimit="10" d="
	M1010.345,77.551c4.97,0.667,9.315,2.98,12.56,6.317"/>
<path fill="none" stroke="#F47231" stroke-width="2.779" stroke-linecap="round" stroke-linejoin="round" stroke-miterlimit="10" d="
	M990.447,85.738c2.844-3.687,6.644-6.196,10.785-7.45"/>
<path fill="none" stroke="#F47231" stroke-width="2.779" stroke-linecap="round" stroke-linejoin="round" stroke-miterlimit="10" d="
	M987.591,107.061c-1.727-4.194-2.029-8.619-1.134-12.74"/>
<path fill="none" stroke="#F47231" stroke-width="2.779" stroke-linecap="round" stroke-linejoin="round" stroke-miterlimit="10" d="
	M1004.628,120.197c-3.963-0.53-7.526-2.108-10.453-4.416"/>
<path fill="none" stroke="#F47231" stroke-width="2.779" stroke-linecap="round" stroke-linejoin="round" stroke-miterlimit="10" d="
	M1024.523,112.011c-2.579,3.345-5.949,5.722-9.644,7.07"/>
<rect x="378.454" y="248.801" fill="none" stroke="#F47231" stroke-width="2.779" stroke-linecap="round" stroke-linejoin="round" stroke-miterlimit="10" width="64.669" height="85.267"/>
<rect x="378.454" y="263.566" fill="none" stroke="#F47231" stroke-width="2.779" stroke-linecap="round" stroke-linejoin="round" stroke-miterlimit="10" width="64.669" height="5.864"/>
<rect x="378.454" y="288.502" fill="none" stroke="#F47231" stroke-width="2.779" stroke-linecap="round" stroke-linejoin="round" stroke-miterlimit="10" width="64.669" height="5.865"/>
<rect x="378.454" y="313.438" fill="none" stroke="#F47231" stroke-width="2.779" stroke-linecap="round" stroke-linejoin="round" stroke-miterlimit="10" width="64.669" height="5.865"/>
<rect x="390.148" y="237.558" fill="none" stroke="#F47231" stroke-width="2.779" stroke-linecap="round" stroke-linejoin="round" stroke-miterlimit="10" width="41.281" height="11.243"/>
<rect x="396.522" y="226.824" fill="none" stroke="#F47231" stroke-width="2.779" stroke-linecap="round" stroke-linejoin="round" stroke-miterlimit="10" width="28.533" height="10.733"/>
<rect x="370.825" y="334.067" fill="none" stroke="#F47231" stroke-width="2.779" stroke-linecap="round" stroke-linejoin="round" stroke-miterlimit="10" width="79.928" height="30.134"/>
<rect x="378.454" y="341.366" fill="none" stroke="#F47231" stroke-width="2.779" stroke-linecap="round" stroke-linejoin="round" stroke-miterlimit="10" width="12.318" height="22.835"/>
<rect x="430.806" y="341.366" fill="none" stroke="#F47231" stroke-width="2.779" stroke-linecap="round" stroke-linejoin="round" stroke-miterlimit="10" width="12.318" height="22.835"/>
<rect x="404.63" y="341.366" fill="none" stroke="#F47231" stroke-width="2.779" stroke-linecap="round" stroke-linejoin="round" stroke-miterlimit="10" width="12.317" height="22.835"/>
<line fill="none" stroke="#F47231" stroke-width="2.779" stroke-linecap="round" stroke-linejoin="round" stroke-miterlimit="10" x1="410.789" y1="226.611" x2="410.789" y2="213.198"/>
<line fill="none" stroke="#F47231" stroke-width="2.779" stroke-linecap="round" stroke-linejoin="round" stroke-miterlimit="10" x1="390.314" y1="248.803" x2="390.314" y2="333.39"/>
<line fill="none" stroke="#F47231" stroke-width="2.779" stroke-linecap="round" stroke-linejoin="round" stroke-miterlimit="10" x1="431.262" y1="248.803" x2="431.262" y2="333.39"/>
<line fill="none" stroke="#F47231" stroke-width="2.779" stroke-linecap="round" stroke-linejoin="round" stroke-miterlimit="10" x1="403.964" y1="248.803" x2="403.964" y2="333.39"/>
<line fill="none" stroke="#F47231" stroke-width="2.779" stroke-linecap="round" stroke-linejoin="round" stroke-miterlimit="10" x1="417.613" y1="248.803" x2="417.613" y2="333.39"/>
<rect x="288.955" y="247" fill="none" stroke="#F47231" stroke-width="2.779" stroke-linecap="round" stroke-linejoin="round" stroke-miterlimit="10" width="42.587" height="14.545"/>
<rect x="274.996" y="261.545" fill="none" stroke="#F47231" stroke-width="2.779" stroke-linecap="round" stroke-linejoin="round" stroke-miterlimit="10" width="70.505" height="102.658"/>
<polygon fill="none" stroke="#F47231" stroke-width="2.779" stroke-linecap="round" stroke-linejoin="round" stroke-miterlimit="10" points="
	319.05,240.063 301.089,240.063 297.516,246.999 322.982,246.999 "/>
<polygon fill="none" stroke="#F47231" stroke-width="2.779" stroke-linecap="round" stroke-linejoin="round" stroke-miterlimit="10" points="
	319.05,240.063 301.448,240.063 301.448,228.44 310.249,218.82 319.05,228.44 "/>
<line fill="none" stroke="#F47231" stroke-width="2.779" stroke-linecap="round" stroke-linejoin="round" stroke-miterlimit="10" x1="310.249" y1="246.75" x2="310.249" y2="211.958"/>
<rect x="283.19" y="269.394" fill="none" stroke="#F47231" stroke-width="2.779" stroke-linecap="round" stroke-linejoin="round" stroke-miterlimit="10" width="6.075" height="8.88"/>
<rect x="295.201" y="269.394" fill="none" stroke="#F47231" stroke-width="2.779" stroke-linecap="round" stroke-linejoin="round" stroke-miterlimit="10" width="6.075" height="8.88"/>
<rect x="307.211" y="269.394" fill="none" stroke="#F47231" stroke-width="2.779" stroke-linecap="round" stroke-linejoin="round" stroke-miterlimit="10" width="6.074" height="8.88"/>
<rect x="319.221" y="269.394" fill="none" stroke="#F47231" stroke-width="2.779" stroke-linecap="round" stroke-linejoin="round" stroke-miterlimit="10" width="6.074" height="8.88"/>
<rect x="331.233" y="269.394" fill="none" stroke="#F47231" stroke-width="2.779" stroke-linecap="round" stroke-linejoin="round" stroke-miterlimit="10" width="6.074" height="8.88"/>
<rect x="283.19" y="284.46" fill="none" stroke="#F47231" stroke-width="2.779" stroke-linecap="round" stroke-linejoin="round" stroke-miterlimit="10" width="6.075" height="8.881"/>
<rect x="295.201" y="284.46" fill="none" stroke="#F47231" stroke-width="2.779" stroke-linecap="round" stroke-linejoin="round" stroke-miterlimit="10" width="6.075" height="8.881"/>
<rect x="307.211" y="284.46" fill="none" stroke="#F47231" stroke-width="2.779" stroke-linecap="round" stroke-linejoin="round" stroke-miterlimit="10" width="6.074" height="8.881"/>
<rect x="319.221" y="284.46" fill="none" stroke="#F47231" stroke-width="2.779" stroke-linecap="round" stroke-linejoin="round" stroke-miterlimit="10" width="6.074" height="8.881"/>
<rect x="331.233" y="284.46" fill="none" stroke="#F47231" stroke-width="2.779" stroke-linecap="round" stroke-linejoin="round" stroke-miterlimit="10" width="6.074" height="8.881"/>
<rect x="283.19" y="314.594" fill="none" stroke="#F47231" stroke-width="2.779" stroke-linecap="round" stroke-linejoin="round" stroke-miterlimit="10" width="6.075" height="8.881"/>
<rect x="295.201" y="314.594" fill="none" stroke="#F47231" stroke-width="2.779" stroke-linecap="round" stroke-linejoin="round" stroke-miterlimit="10" width="6.075" height="8.881"/>
<rect x="307.211" y="314.594" fill="none" stroke="#F47231" stroke-width="2.779" stroke-linecap="round" stroke-linejoin="round" stroke-miterlimit="10" width="6.074" height="8.881"/>
<rect x="319.221" y="314.594" fill="none" stroke="#F47231" stroke-width="2.779" stroke-linecap="round" stroke-linejoin="round" stroke-miterlimit="10" width="6.074" height="8.881"/>
<rect x="331.233" y="314.594" fill="none" stroke="#F47231" stroke-width="2.779" stroke-linecap="round" stroke-linejoin="round" stroke-miterlimit="10" width="6.074" height="8.881"/>
<rect x="283.19" y="344.726" fill="none" stroke="#F47231" stroke-width="2.779" stroke-linecap="round" stroke-linejoin="round" stroke-miterlimit="10" width="6.075" height="8.88"/>
<rect x="295.201" y="344.726" fill="none" stroke="#F47231" stroke-width="2.779" stroke-linecap="round" stroke-linejoin="round" stroke-miterlimit="10" width="6.075" height="8.88"/>
<rect x="307.211" y="344.726" fill="none" stroke="#F47231" stroke-width="2.779" stroke-linecap="round" stroke-linejoin="round" stroke-miterlimit="10" width="6.074" height="8.88"/>
<rect x="319.221" y="344.726" fill="none" stroke="#F47231" stroke-width="2.779" stroke-linecap="round" stroke-linejoin="round" stroke-miterlimit="10" width="6.074" height="8.88"/>
<rect x="331.233" y="344.726" fill="none" stroke="#F47231" stroke-width="2.779" stroke-linecap="round" stroke-linejoin="round" stroke-miterlimit="10" width="6.074" height="8.88"/>
<line fill="none" stroke="#F47231" stroke-width="2.779" stroke-linecap="round" stroke-linejoin="round" stroke-miterlimit="10" x1="283.19" y1="299.525" x2="337.307" y2="299.525"/>
<line fill="none" stroke="#F47231" stroke-width="2.779" stroke-linecap="round" stroke-linejoin="round" stroke-miterlimit="10" x1="283.19" y1="308.406" x2="337.307" y2="308.406"/>
<line fill="none" stroke="#F47231" stroke-width="2.779" stroke-linecap="round" stroke-linejoin="round" stroke-miterlimit="10" x1="283.19" y1="303.967" x2="337.307" y2="303.967"/>
<line fill="none" stroke="#F47231" stroke-width="2.779" stroke-linecap="round" stroke-linejoin="round" stroke-miterlimit="10" x1="295.706" y1="252.052" x2="324.791" y2="252.052"/>
<line fill="none" stroke="#F47231" stroke-width="2.779" stroke-linecap="round" stroke-linejoin="round" stroke-miterlimit="10" x1="295.706" y1="256.492" x2="324.791" y2="256.492"/>
<line fill="none" stroke="#F47231" stroke-width="2.779" stroke-linecap="round" stroke-linejoin="round" stroke-miterlimit="10" x1="283.19" y1="329.658" x2="337.307" y2="329.658"/>
<line fill="none" stroke="#F47231" stroke-width="2.779" stroke-linecap="round" stroke-linejoin="round" stroke-miterlimit="10" x1="283.19" y1="338.539" x2="337.307" y2="338.539"/>
<line fill="none" stroke="#F47231" stroke-width="2.779" stroke-linecap="round" stroke-linejoin="round" stroke-miterlimit="10" x1="283.19" y1="334.099" x2="337.307" y2="334.099"/>
<path fill="none" stroke="#F47231" stroke-width="2.779" stroke-linecap="round" stroke-linejoin="round" stroke-miterlimit="10" d="
	M518.287,208.143c-7.418,0-13.692,2.701-15.751,6.413"/>
<path fill="none" stroke="#F47231" stroke-width="2.779" stroke-linecap="round" stroke-linejoin="round" stroke-miterlimit="10" d="
	M518.287,208.143c7.419,0,13.693,2.701,15.75,6.413"/>
<path fill="none" stroke="#F47231" stroke-width="2.779" stroke-linecap="round" stroke-linejoin="round" stroke-miterlimit="10" d="
	M532.357,212.497c-2.891-2.61-8.11-4.355-14.07-4.355s-11.18,1.745-14.071,4.355v4.708v146.996h7.803h12.539h7.8V217.205V212.497z"
	/>
<path fill="none" stroke="#F47231" stroke-width="2.779" stroke-linecap="round" stroke-linejoin="round" stroke-miterlimit="10" d="
	M560.498,242.648V235.1c-19.167-2.518-28.141,9.312-28.141,9.312v119.791h7.802h12.539h7.8V242.648z"/>
<line fill="none" stroke="#F47231" stroke-width="2.779" stroke-linecap="round" stroke-linejoin="round" stroke-miterlimit="10" x1="560.498" y1="235.1" x2="562.328" y2="235.329"/>
<path fill="none" stroke="#F47231" stroke-width="2.779" stroke-linecap="round" stroke-linejoin="round" stroke-miterlimit="10" d="
	M476.076,242.648V235.1c19.168-2.518,28.14,9.312,28.14,9.312v119.791h-7.801h-12.539h-7.801V242.648z"/>
<line fill="none" stroke="#F47231" stroke-width="2.779" stroke-linecap="round" stroke-linejoin="round" stroke-miterlimit="10" x1="476.076" y1="235.1" x2="474.246" y2="235.329"/>
<rect x="508.735" y="228.258" fill="none" stroke="#F47231" stroke-width="2.779" stroke-linecap="round" stroke-linejoin="round" stroke-miterlimit="10" width="3.815" height="11.885"/>
<rect x="516.379" y="228.258" fill="none" stroke="#F47231" stroke-width="2.779" stroke-linecap="round" stroke-linejoin="round" stroke-miterlimit="10" width="3.815" height="11.886"/>
<rect x="524.023" y="228.258" fill="none" stroke="#F47231" stroke-width="2.779" stroke-linecap="round" stroke-linejoin="round" stroke-miterlimit="10" width="3.816" height="11.886"/>
<rect x="508.735" y="248.463" fill="none" stroke="#F47231" stroke-width="2.779" stroke-linecap="round" stroke-linejoin="round" stroke-miterlimit="10" width="3.815" height="11.886"/>
<rect x="516.379" y="248.463" fill="none" stroke="#F47231" stroke-width="2.779" stroke-linecap="round" stroke-linejoin="round" stroke-miterlimit="10" width="3.815" height="11.886"/>
<rect x="524.023" y="248.463" fill="none" stroke="#F47231" stroke-width="2.779" stroke-linecap="round" stroke-linejoin="round" stroke-miterlimit="10" width="3.816" height="11.886"/>
<line fill="none" stroke="#F47231" stroke-width="2.779" stroke-linecap="round" stroke-linejoin="round" stroke-miterlimit="10" x1="489.986" y1="245.074" x2="489.986" y2="359.132"/>
<line fill="none" stroke="#F47231" stroke-width="2.779" stroke-linecap="round" stroke-linejoin="round" stroke-miterlimit="10" x1="513.515" y1="267.729" x2="513.515" y2="359.133"/>
<line fill="none" stroke="#F47231" stroke-width="2.779" stroke-linecap="round" stroke-linejoin="round" stroke-miterlimit="10" x1="523.059" y1="267.729" x2="523.059" y2="359.133"/>
<line fill="none" stroke="#F47231" stroke-width="2.779" stroke-linecap="round" stroke-linejoin="round" stroke-miterlimit="10" x1="547.444" y1="245.074" x2="547.444" y2="359.132"/>
<line fill="none" stroke="#F47231" stroke-width="2.779" stroke-linecap="round" stroke-linejoin="round" stroke-miterlimit="10" x1="507.363" y1="273.59" x2="509.97" y2="273.59"/>
<line fill="none" stroke="#F47231" stroke-width="2.779" stroke-linecap="round" stroke-linejoin="round" stroke-miterlimit="10" x1="516.855" y1="273.59" x2="519.462" y2="273.59"/>
<line fill="none" stroke="#F47231" stroke-width="2.779" stroke-linecap="round" stroke-linejoin="round" stroke-miterlimit="10" x1="526.346" y1="273.59" x2="528.953" y2="273.59"/>
<line fill="none" stroke="#F47231" stroke-width="2.779" stroke-linecap="round" stroke-linejoin="round" stroke-miterlimit="10" x1="507.363" y1="284.995" x2="509.97" y2="284.995"/>
<line fill="none" stroke="#F47231" stroke-width="2.779" stroke-linecap="round" stroke-linejoin="round" stroke-miterlimit="10" x1="516.855" y1="284.995" x2="519.462" y2="284.995"/>
<line fill="none" stroke="#F47231" stroke-width="2.779" stroke-linecap="round" stroke-linejoin="round" stroke-miterlimit="10" x1="526.346" y1="284.995" x2="528.953" y2="284.995"/>
<line fill="none" stroke="#F47231" stroke-width="2.779" stroke-linecap="round" stroke-linejoin="round" stroke-miterlimit="10" x1="507.363" y1="296.4" x2="509.97" y2="296.4"/>
<line fill="none" stroke="#F47231" stroke-width="2.779" stroke-linecap="round" stroke-linejoin="round" stroke-miterlimit="10" x1="516.855" y1="296.4" x2="519.462" y2="296.4"/>
<line fill="none" stroke="#F47231" stroke-width="2.779" stroke-linecap="round" stroke-linejoin="round" stroke-miterlimit="10" x1="526.346" y1="296.4" x2="528.953" y2="296.4"/>
<line fill="none" stroke="#F47231" stroke-width="2.779" stroke-linecap="round" stroke-linejoin="round" stroke-miterlimit="10" x1="507.363" y1="307.807" x2="509.97" y2="307.807"/>
<line fill="none" stroke="#F47231" stroke-width="2.779" stroke-linecap="round" stroke-linejoin="round" stroke-miterlimit="10" x1="516.855" y1="307.807" x2="519.462" y2="307.807"/>
<line fill="none" stroke="#F47231" stroke-width="2.779" stroke-linecap="round" stroke-linejoin="round" stroke-miterlimit="10" x1="526.346" y1="307.807" x2="528.953" y2="307.807"/>
<line fill="none" stroke="#F47231" stroke-width="2.779" stroke-linecap="round" stroke-linejoin="round" stroke-miterlimit="10" x1="507.363" y1="319.212" x2="509.97" y2="319.212"/>
<line fill="none" stroke="#F47231" stroke-width="2.779" stroke-linecap="round" stroke-linejoin="round" stroke-miterlimit="10" x1="516.855" y1="319.212" x2="519.462" y2="319.212"/>
<line fill="none" stroke="#F47231" stroke-width="2.779" stroke-linecap="round" stroke-linejoin="round" stroke-miterlimit="10" x1="526.346" y1="319.212" x2="528.953" y2="319.212"/>
<line fill="none" stroke="#F47231" stroke-width="2.779" stroke-linecap="round" stroke-linejoin="round" stroke-miterlimit="10" x1="507.363" y1="330.618" x2="509.97" y2="330.618"/>
<line fill="none" stroke="#F47231" stroke-width="2.779" stroke-linecap="round" stroke-linejoin="round" stroke-miterlimit="10" x1="516.855" y1="330.618" x2="519.462" y2="330.618"/>
<line fill="none" stroke="#F47231" stroke-width="2.779" stroke-linecap="round" stroke-linejoin="round" stroke-miterlimit="10" x1="526.346" y1="330.618" x2="528.953" y2="330.618"/>
<line fill="none" stroke="#F47231" stroke-width="2.779" stroke-linecap="round" stroke-linejoin="round" stroke-miterlimit="10" x1="507.363" y1="342.022" x2="509.97" y2="342.022"/>
<line fill="none" stroke="#F47231" stroke-width="2.779" stroke-linecap="round" stroke-linejoin="round" stroke-miterlimit="10" x1="516.855" y1="342.022" x2="519.462" y2="342.022"/>
<line fill="none" stroke="#F47231" stroke-width="2.779" stroke-linecap="round" stroke-linejoin="round" stroke-miterlimit="10" x1="526.346" y1="342.022" x2="528.953" y2="342.022"/>
<line fill="none" stroke="#F47231" stroke-width="2.779" stroke-linecap="round" stroke-linejoin="round" stroke-miterlimit="10" x1="507.363" y1="353.431" x2="509.97" y2="353.431"/>
<line fill="none" stroke="#F47231" stroke-width="2.779" stroke-linecap="round" stroke-linejoin="round" stroke-miterlimit="10" x1="516.855" y1="353.431" x2="519.462" y2="353.431"/>
<line fill="none" stroke="#F47231" stroke-width="2.779" stroke-linecap="round" stroke-linejoin="round" stroke-miterlimit="10" x1="526.346" y1="353.431" x2="528.953" y2="353.431"/>
<line fill="none" stroke="#F47231" stroke-width="2.779" stroke-linecap="round" stroke-linejoin="round" stroke-miterlimit="10" x1="483.834" y1="250.777" x2="486.442" y2="250.777"/>
<line fill="none" stroke="#F47231" stroke-width="2.779" stroke-linecap="round" stroke-linejoin="round" stroke-miterlimit="10" x1="493.326" y1="250.777" x2="495.933" y2="250.777"/>
<line fill="none" stroke="#F47231" stroke-width="2.779" stroke-linecap="round" stroke-linejoin="round" stroke-miterlimit="10" x1="483.834" y1="262.183" x2="486.442" y2="262.183"/>
<line fill="none" stroke="#F47231" stroke-width="2.779" stroke-linecap="round" stroke-linejoin="round" stroke-miterlimit="10" x1="493.326" y1="262.183" x2="495.933" y2="262.183"/>
<line fill="none" stroke="#F47231" stroke-width="2.779" stroke-linecap="round" stroke-linejoin="round" stroke-miterlimit="10" x1="483.834" y1="273.59" x2="486.442" y2="273.59"/>
<line fill="none" stroke="#F47231" stroke-width="2.779" stroke-linecap="round" stroke-linejoin="round" stroke-miterlimit="10" x1="493.326" y1="273.59" x2="495.933" y2="273.59"/>
<line fill="none" stroke="#F47231" stroke-width="2.779" stroke-linecap="round" stroke-linejoin="round" stroke-miterlimit="10" x1="483.834" y1="284.995" x2="486.442" y2="284.995"/>
<line fill="none" stroke="#F47231" stroke-width="2.779" stroke-linecap="round" stroke-linejoin="round" stroke-miterlimit="10" x1="493.326" y1="284.995" x2="495.933" y2="284.995"/>
<line fill="none" stroke="#F47231" stroke-width="2.779" stroke-linecap="round" stroke-linejoin="round" stroke-miterlimit="10" x1="483.834" y1="296.4" x2="486.442" y2="296.4"/>
<line fill="none" stroke="#F47231" stroke-width="2.779" stroke-linecap="round" stroke-linejoin="round" stroke-miterlimit="10" x1="493.326" y1="296.4" x2="495.933" y2="296.4"/>
<line fill="none" stroke="#F47231" stroke-width="2.779" stroke-linecap="round" stroke-linejoin="round" stroke-miterlimit="10" x1="483.834" y1="307.807" x2="486.442" y2="307.807"/>
<line fill="none" stroke="#F47231" stroke-width="2.779" stroke-linecap="round" stroke-linejoin="round" stroke-miterlimit="10" x1="493.326" y1="307.807" x2="495.933" y2="307.807"/>
<line fill="none" stroke="#F47231" stroke-width="2.779" stroke-linecap="round" stroke-linejoin="round" stroke-miterlimit="10" x1="483.834" y1="319.212" x2="486.442" y2="319.212"/>
<line fill="none" stroke="#F47231" stroke-width="2.779" stroke-linecap="round" stroke-linejoin="round" stroke-miterlimit="10" x1="493.326" y1="319.212" x2="495.933" y2="319.212"/>
<line fill="none" stroke="#F47231" stroke-width="2.779" stroke-linecap="round" stroke-linejoin="round" stroke-miterlimit="10" x1="483.834" y1="330.618" x2="486.442" y2="330.618"/>
<line fill="none" stroke="#F47231" stroke-width="2.779" stroke-linecap="round" stroke-linejoin="round" stroke-miterlimit="10" x1="493.326" y1="330.618" x2="495.933" y2="330.618"/>
<line fill="none" stroke="#F47231" stroke-width="2.779" stroke-linecap="round" stroke-linejoin="round" stroke-miterlimit="10" x1="483.834" y1="342.022" x2="486.442" y2="342.022"/>
<line fill="none" stroke="#F47231" stroke-width="2.779" stroke-linecap="round" stroke-linejoin="round" stroke-miterlimit="10" x1="493.326" y1="342.022" x2="495.933" y2="342.022"/>
<line fill="none" stroke="#F47231" stroke-width="2.779" stroke-linecap="round" stroke-linejoin="round" stroke-miterlimit="10" x1="483.834" y1="353.431" x2="486.442" y2="353.431"/>
<line fill="none" stroke="#F47231" stroke-width="2.779" stroke-linecap="round" stroke-linejoin="round" stroke-miterlimit="10" x1="493.326" y1="353.431" x2="495.933" y2="353.431"/>
<line fill="none" stroke="#F47231" stroke-width="2.779" stroke-linecap="round" stroke-linejoin="round" stroke-miterlimit="10" x1="541.293" y1="250.777" x2="543.901" y2="250.777"/>
<line fill="none" stroke="#F47231" stroke-width="2.779" stroke-linecap="round" stroke-linejoin="round" stroke-miterlimit="10" x1="550.785" y1="250.777" x2="553.392" y2="250.777"/>
<line fill="none" stroke="#F47231" stroke-width="2.779" stroke-linecap="round" stroke-linejoin="round" stroke-miterlimit="10" x1="541.293" y1="262.183" x2="543.901" y2="262.183"/>
<line fill="none" stroke="#F47231" stroke-width="2.779" stroke-linecap="round" stroke-linejoin="round" stroke-miterlimit="10" x1="550.785" y1="262.183" x2="553.392" y2="262.183"/>
<line fill="none" stroke="#F47231" stroke-width="2.779" stroke-linecap="round" stroke-linejoin="round" stroke-miterlimit="10" x1="541.293" y1="273.59" x2="543.901" y2="273.59"/>
<line fill="none" stroke="#F47231" stroke-width="2.779" stroke-linecap="round" stroke-linejoin="round" stroke-miterlimit="10" x1="550.785" y1="273.59" x2="553.392" y2="273.59"/>
<line fill="none" stroke="#F47231" stroke-width="2.779" stroke-linecap="round" stroke-linejoin="round" stroke-miterlimit="10" x1="541.293" y1="284.995" x2="543.901" y2="284.995"/>
<line fill="none" stroke="#F47231" stroke-width="2.779" stroke-linecap="round" stroke-linejoin="round" stroke-miterlimit="10" x1="550.785" y1="284.995" x2="553.392" y2="284.995"/>
<line fill="none" stroke="#F47231" stroke-width="2.779" stroke-linecap="round" stroke-linejoin="round" stroke-miterlimit="10" x1="541.293" y1="296.4" x2="543.901" y2="296.4"/>
<line fill="none" stroke="#F47231" stroke-width="2.779" stroke-linecap="round" stroke-linejoin="round" stroke-miterlimit="10" x1="550.785" y1="296.4" x2="553.392" y2="296.4"/>
<line fill="none" stroke="#F47231" stroke-width="2.779" stroke-linecap="round" stroke-linejoin="round" stroke-miterlimit="10" x1="541.293" y1="307.807" x2="543.901" y2="307.807"/>
<line fill="none" stroke="#F47231" stroke-width="2.779" stroke-linecap="round" stroke-linejoin="round" stroke-miterlimit="10" x1="550.785" y1="307.807" x2="553.392" y2="307.807"/>
<line fill="none" stroke="#F47231" stroke-width="2.779" stroke-linecap="round" stroke-linejoin="round" stroke-miterlimit="10" x1="541.293" y1="319.212" x2="543.901" y2="319.212"/>
<line fill="none" stroke="#F47231" stroke-width="2.779" stroke-linecap="round" stroke-linejoin="round" stroke-miterlimit="10" x1="550.785" y1="319.212" x2="553.392" y2="319.212"/>
<line fill="none" stroke="#F47231" stroke-width="2.779" stroke-linecap="round" stroke-linejoin="round" stroke-miterlimit="10" x1="541.293" y1="330.618" x2="543.901" y2="330.618"/>
<line fill="none" stroke="#F47231" stroke-width="2.779" stroke-linecap="round" stroke-linejoin="round" stroke-miterlimit="10" x1="550.785" y1="330.618" x2="553.392" y2="330.618"/>
<line fill="none" stroke="#F47231" stroke-width="2.779" stroke-linecap="round" stroke-linejoin="round" stroke-miterlimit="10" x1="541.293" y1="342.022" x2="543.901" y2="342.022"/>
<line fill="none" stroke="#F47231" stroke-width="2.779" stroke-linecap="round" stroke-linejoin="round" stroke-miterlimit="10" x1="550.785" y1="342.022" x2="553.392" y2="342.022"/>
<line fill="none" stroke="#F47231" stroke-width="2.779" stroke-linecap="round" stroke-linejoin="round" stroke-miterlimit="10" x1="541.293" y1="353.431" x2="543.901" y2="353.431"/>
<line fill="none" stroke="#F47231" stroke-width="2.779" stroke-linecap="round" stroke-linejoin="round" stroke-miterlimit="10" x1="550.785" y1="353.431" x2="553.392" y2="353.431"/>
<line fill="none" stroke="#F47231" stroke-width="2.779" stroke-linecap="round" stroke-linejoin="round" stroke-miterlimit="10" x1="504.275" y1="220.452" x2="532.099" y2="220.452"/>
<path fill="none" stroke="#F47231" stroke-width="2.779" stroke-linecap="round" stroke-linejoin="round" stroke-miterlimit="10" d="
	M190.851,322.327c-3.173,8.769-11.575,15.033-21.438,15.033c-12.588,0-22.793-10.204-22.793-22.792
	c0-12.589,10.205-22.791,22.793-22.791c6.511,0,12.384,2.729,16.538,7.105"/>
<line fill="none" stroke="#F47231" stroke-width="2.779" stroke-linecap="round" stroke-linejoin="round" stroke-miterlimit="10" x1="169.414" y1="301.561" x2="169.414" y2="364.202"/>
<polyline fill="none" stroke="#F47231" stroke-width="2.779" stroke-linecap="round" stroke-linejoin="round" stroke-miterlimit="10" points="
	182.608,314.212 169.479,327.341 156.35,314.212 "/>
<polyline fill="none" stroke="#F47231" stroke-width="2.779" stroke-linecap="round" stroke-linejoin="round" stroke-miterlimit="10" points="
	175.293,305.784 169.479,311.6 163.665,305.784 "/>
<circle fill="none" stroke="#F47231" stroke-width="2.779" stroke-linecap="round" stroke-linejoin="round" stroke-miterlimit="10" cx="217.602" cy="304.388" r="31.927"/>
<line fill="none" stroke="#F47231" stroke-width="2.779" stroke-linecap="round" stroke-linejoin="round" stroke-miterlimit="10" x1="217.602" y1="282.246" x2="217.602" y2="364.203"/>
<polyline fill="none" stroke="#F47231" stroke-width="2.779" stroke-linecap="round" stroke-linejoin="round" stroke-miterlimit="10" points="
	193.726,301.641 217.536,325.449 241.345,301.641 "/>
<polyline fill="none" stroke="#F47231" stroke-width="2.779" stroke-linecap="round" stroke-linejoin="round" stroke-miterlimit="10" points="
	204.407,294.896 217.536,308.024 230.665,294.896 "/>
<polyline fill="none" stroke="#F47231" stroke-width="2.779" stroke-linecap="round" stroke-linejoin="round" stroke-miterlimit="10" points="
	211.722,286.469 217.536,292.283 223.35,286.469 "/>
<line fill="none" stroke="#F47231" stroke-width="2.779" stroke-linecap="round" stroke-linejoin="round" stroke-miterlimit="10" x1="0" y1="364.202" x2="1248.882" y2="364.202"/>
<path fill="#F47231" d="M998.372,364.945h-35.565c-0.636,0-1.15-0.518-1.15-1.151v-88.616c0-0.638,0.515-1.151,1.15-1.151
	c0.635,0,1.151,0.514,1.151,1.151v87.466h33.263v-87.466c0-0.638,0.514-1.151,1.151-1.151c0.635,0,1.15,0.514,1.15,1.151v88.616
	C999.522,364.428,999.007,364.945,998.372,364.945"/>
<path fill="#F47231" d="M1020.936,364.945h-22.563c-0.638,0-1.151-0.518-1.151-1.151v-88.636c0-0.347,0.157-0.676,0.428-0.896
	l11.415-9.208c0.426-0.345,1.034-0.342,1.455,0.007l11.149,9.21c0.265,0.219,0.418,0.545,0.418,0.888v88.636
	C1022.086,364.428,1021.571,364.945,1020.936,364.945 M999.522,362.644h20.262v-86.942l-10.006-8.267l-10.256,8.274V362.644z"/>
<path fill="#F47231" d="M962.807,276.314c-0.489,0-0.925-0.309-1.087-0.771c-0.162-0.461-0.014-0.975,0.368-1.279l11.551-9.216
	c0.205-0.162,0.456-0.251,0.718-0.251h35.431c0.485,0,0.922,0.308,1.083,0.769c0.164,0.459,0.019,0.972-0.361,1.279l-11.415,9.208
	c-0.205,0.166-0.459,0.256-0.722,0.256L962.807,276.314L962.807,276.314z M974.759,267.1l-8.658,6.908h31.863l8.562-6.908H974.759z"
	/>
<path fill="#F47231" d="M1014.685,291.208h-9.033c-0.637,0-1.152-0.516-1.152-1.15v-9.796c0-0.633,0.516-1.15,1.152-1.15h9.033
	c0.636,0,1.151,0.518,1.151,1.15v9.796C1015.836,290.692,1015.32,291.208,1014.685,291.208 M1006.802,288.906h6.733v-7.491h-6.733
	V288.906z"/>
<path fill="#F47231" d="M1014.685,307.503h-9.033c-0.637,0-1.152-0.516-1.152-1.151v-9.79c0-0.637,0.516-1.151,1.152-1.151h9.033
	c0.636,0,1.151,0.515,1.151,1.151v9.79C1015.836,306.987,1015.32,307.503,1014.685,307.503 M1006.802,305.2h6.733v-7.488h-6.733
	V305.2z"/>
<path fill="#F47231" d="M1014.685,323.802h-9.033c-0.637,0-1.152-0.517-1.152-1.15v-9.795c0-0.635,0.516-1.151,1.152-1.151h9.033
	c0.636,0,1.151,0.517,1.151,1.151v9.795C1015.836,323.285,1015.32,323.802,1014.685,323.802 M1006.802,321.5h6.733v-7.49h-6.733
	V321.5z"/>
<path fill="#F47231" d="M1014.685,340.096h-9.033c-0.637,0-1.152-0.515-1.152-1.15v-9.79c0-0.637,0.516-1.151,1.152-1.151h9.033
	c0.636,0,1.151,0.515,1.151,1.151v9.79C1015.836,339.581,1015.32,340.096,1014.685,340.096 M1006.802,337.794h6.733v-7.489h-6.733
	V337.794z"/>
<path fill="#F47231" d="M1014.685,356.395h-9.033c-0.637,0-1.152-0.516-1.152-1.151v-9.794c0-0.634,0.516-1.151,1.152-1.151h9.033
	c0.636,0,1.151,0.518,1.151,1.151v9.794C1015.836,355.879,1015.32,356.395,1014.685,356.395 M1006.802,354.093h6.733v-7.49h-6.733
	V354.093z"/>
<path fill="#F47231" d="M992.845,291.208h-9.035c-0.635,0-1.15-0.516-1.15-1.15v-9.796c0-0.633,0.516-1.15,1.15-1.15h9.035
	c0.634,0,1.15,0.518,1.15,1.15v9.796C993.995,290.692,993.479,291.208,992.845,291.208 M984.961,288.906h6.731v-7.491h-6.731
	V288.906z"/>
<path fill="#F47231" d="M992.845,307.503h-9.035c-0.635,0-1.15-0.516-1.15-1.151v-9.79c0-0.637,0.516-1.151,1.15-1.151h9.035
	c0.634,0,1.15,0.515,1.15,1.151v9.79C993.995,306.987,993.479,307.503,992.845,307.503 M984.961,305.2h6.731v-7.488h-6.731V305.2z"
	/>
<path fill="#F47231" d="M992.845,323.802h-9.035c-0.635,0-1.15-0.517-1.15-1.15v-9.795c0-0.635,0.516-1.151,1.15-1.151h9.035
	c0.634,0,1.15,0.517,1.15,1.151v9.795C993.995,323.285,993.479,323.802,992.845,323.802 M984.961,321.5h6.731v-7.49h-6.731V321.5z"
	/>
<path fill="#F47231" d="M992.845,340.096h-9.035c-0.635,0-1.15-0.515-1.15-1.15v-9.79c0-0.637,0.516-1.151,1.15-1.151h9.035
	c0.634,0,1.15,0.515,1.15,1.151v9.79C993.995,339.581,993.479,340.096,992.845,340.096 M984.961,337.794h6.731v-7.489h-6.731
	V337.794z"/>
<path fill="#F47231" d="M992.845,356.395h-9.035c-0.635,0-1.15-0.516-1.15-1.151v-9.794c0-0.634,0.516-1.151,1.15-1.151h9.035
	c0.634,0,1.15,0.518,1.15,1.151v9.794C993.995,355.879,993.479,356.395,992.845,356.395 M984.961,354.093h6.731v-7.49h-6.731
	V354.093z"/>
<path fill="#F47231" d="M977.109,291.208h-9.034c-0.635,0-1.151-0.516-1.151-1.15v-9.796c0-0.633,0.517-1.15,1.151-1.15h9.034
	c0.635,0,1.151,0.518,1.151,1.15v9.796C978.261,290.692,977.744,291.208,977.109,291.208 M969.226,288.906h6.732v-7.491h-6.732
	V288.906z"/>
<path fill="#F47231" d="M977.109,307.503h-9.034c-0.635,0-1.151-0.516-1.151-1.151v-9.79c0-0.637,0.517-1.151,1.151-1.151h9.034
	c0.635,0,1.151,0.515,1.151,1.151v9.79C978.261,306.987,977.744,307.503,977.109,307.503 M969.226,305.2h6.732v-7.488h-6.732V305.2z
	"/>
<path fill="#F47231" d="M977.109,323.802h-9.034c-0.635,0-1.151-0.517-1.151-1.15v-9.795c0-0.635,0.517-1.151,1.151-1.151h9.034
	c0.635,0,1.151,0.517,1.151,1.151v9.795C978.261,323.285,977.744,323.802,977.109,323.802 M969.226,321.5h6.732v-7.49h-6.732V321.5z
	"/>
<path fill="#F47231" d="M977.109,340.096h-9.034c-0.635,0-1.151-0.515-1.151-1.15v-9.79c0-0.637,0.517-1.151,1.151-1.151h9.034
	c0.635,0,1.151,0.515,1.151,1.151v9.79C978.261,339.581,977.744,340.096,977.109,340.096 M969.226,337.794h6.732v-7.489h-6.732
	V337.794z"/>
<path fill="#F47231" d="M977.109,356.395h-9.034c-0.635,0-1.151-0.516-1.151-1.151v-9.794c0-0.634,0.517-1.151,1.151-1.151h9.034
	c0.635,0,1.151,0.518,1.151,1.151v9.794C978.261,355.879,977.744,356.395,977.109,356.395 M969.226,354.093h6.732v-7.49h-6.732
	V354.093z"/>
<path fill="#F47231" d="M1095.82,296.261c-0.79,0-1.431-0.639-1.431-1.431v-53.251h-15.049v52.804c0,0.789-0.638,1.43-1.429,1.43
	c-0.79,0-1.43-0.641-1.43-1.43v-54.233c0-0.791,0.64-1.43,1.43-1.43h17.908c0.789,0,1.43,0.639,1.43,1.43v54.681
	C1097.25,295.622,1096.609,296.261,1095.82,296.261"/>
<path fill="#F47231" d="M1077.912,296.261c-0.791,0-1.43-0.639-1.43-1.431v-53.251h-25.366v53.251c0,0.792-0.641,1.431-1.43,1.431
	s-1.431-0.639-1.431-1.431v-54.681c0-0.791,0.642-1.43,1.431-1.43h28.226c0.791,0,1.429,0.639,1.429,1.43v54.681
	C1079.341,295.622,1078.703,296.261,1077.912,296.261"/>
<path fill="#F47231" d="M1077.912,249.228h-28.226c-0.789,0-1.431-0.642-1.431-1.431v-4.036c0-0.791,0.642-1.432,1.431-1.432
	s1.43,0.641,1.43,1.432v2.606h25.366v-2.606c0-0.791,0.639-1.432,1.43-1.432s1.429,0.641,1.429,1.432v4.036
	C1079.341,248.586,1078.703,249.228,1077.912,249.228"/>
<path fill="#F47231" d="M1077.912,256.062h-28.226c-0.789,0-1.431-0.641-1.431-1.431v-4.037c0-0.792,0.642-1.43,1.431-1.43
	s1.43,0.638,1.43,1.43v2.607h25.366v-2.607c0-0.792,0.639-1.43,1.43-1.43s1.429,0.638,1.429,1.43v4.037
	C1079.341,255.421,1078.703,256.062,1077.912,256.062"/>
<path fill="#F47231" d="M1077.912,262.896h-28.226c-0.789,0-1.431-0.641-1.431-1.431v-4.036c0-0.792,0.642-1.433,1.431-1.433
	s1.43,0.641,1.43,1.433v2.607h25.366v-2.607c0-0.792,0.639-1.433,1.43-1.433s1.429,0.641,1.429,1.433v4.036
	C1079.341,262.255,1078.703,262.896,1077.912,262.896"/>
<path fill="#F47231" d="M1077.912,269.729h-28.226c-0.789,0-1.431-0.64-1.431-1.43v-4.04c0-0.789,0.642-1.429,1.431-1.429
	s1.43,0.64,1.43,1.429v2.609h25.366v-2.609c0-0.789,0.639-1.429,1.43-1.429s1.429,0.64,1.429,1.429v4.04
	C1079.341,269.09,1078.703,269.729,1077.912,269.729"/>
<path fill="#F47231" d="M1077.912,276.562h-28.226c-0.789,0-1.431-0.642-1.431-1.429v-4.038c0-0.791,0.642-1.43,1.431-1.43
	s1.43,0.639,1.43,1.43v2.607h25.366v-2.607c0-0.791,0.639-1.43,1.43-1.43s1.429,0.639,1.429,1.43v4.038
	C1079.341,275.92,1078.703,276.562,1077.912,276.562"/>
<path fill="#F47231" d="M1077.912,283.396h-28.226c-0.789,0-1.431-0.642-1.431-1.43v-4.038c0-0.791,0.642-1.43,1.431-1.43
	s1.43,0.639,1.43,1.43v2.608h25.366v-2.608c0-0.791,0.639-1.43,1.43-1.43s1.429,0.639,1.429,1.43v4.038
	C1079.341,282.755,1078.703,283.396,1077.912,283.396"/>
<path fill="#F47231" d="M1077.912,290.23h-28.226c-0.789,0-1.431-0.642-1.431-1.43v-4.039c0-0.79,0.642-1.432,1.431-1.432
	s1.43,0.642,1.43,1.432v2.609h25.366v-2.609c0-0.79,0.639-1.432,1.43-1.432s1.429,0.642,1.429,1.432v4.039
	C1079.341,289.589,1078.703,290.23,1077.912,290.23"/>
<path fill="#F47231" d="M1049.687,292.756c-0.789,0-1.431-0.642-1.431-1.432v-4.038c0-0.789,0.642-1.431,1.431-1.431
	s1.43,0.642,1.43,1.431v4.038C1051.116,292.114,1050.476,292.756,1049.687,292.756"/>
<path fill="#F47231" d="M1077.912,292.756c-0.791,0-1.43-0.642-1.43-1.432v-4.038c0-0.789,0.639-1.431,1.43-1.431
	s1.429,0.642,1.429,1.431v4.038C1079.341,292.114,1078.703,292.756,1077.912,292.756"/>
<path fill="#F47231" d="M1095.82,249.228h-17.908c-0.79,0-1.43-0.642-1.43-1.431v-4.036c0-0.791,0.64-1.432,1.43-1.432
	c0.791,0,1.429,0.641,1.429,1.432v2.606h15.049v-2.606c0-0.791,0.641-1.432,1.431-1.432c0.789,0,1.43,0.641,1.43,1.432v4.036
	C1097.25,248.586,1096.609,249.228,1095.82,249.228"/>
<path fill="#F47231" d="M1095.82,256.062h-17.908c-0.79,0-1.43-0.641-1.43-1.431v-4.037c0-0.792,0.64-1.43,1.43-1.43
	c0.791,0,1.429,0.638,1.429,1.43v2.607h15.049v-2.607c0-0.792,0.641-1.43,1.431-1.43c0.789,0,1.43,0.638,1.43,1.43v4.037
	C1097.25,255.421,1096.609,256.062,1095.82,256.062"/>
<path fill="#F47231" d="M1095.82,262.896h-17.908c-0.79,0-1.43-0.641-1.43-1.431v-4.036c0-0.792,0.64-1.433,1.43-1.433
	c0.791,0,1.429,0.641,1.429,1.433v2.607h15.049v-2.607c0-0.792,0.641-1.433,1.431-1.433c0.789,0,1.43,0.641,1.43,1.433v4.036
	C1097.25,262.255,1096.609,262.896,1095.82,262.896"/>
<path fill="#F47231" d="M1095.82,269.729h-17.908c-0.79,0-1.43-0.64-1.43-1.43v-4.04c0-0.789,0.64-1.429,1.43-1.429
	c0.791,0,1.429,0.64,1.429,1.429v2.609h15.049v-2.609c0-0.789,0.641-1.429,1.431-1.429c0.789,0,1.43,0.64,1.43,1.429v4.04
	C1097.25,269.09,1096.609,269.729,1095.82,269.729"/>
<path fill="#F47231" d="M1095.82,276.562h-17.908c-0.79,0-1.43-0.642-1.43-1.429v-4.038c0-0.791,0.64-1.43,1.43-1.43
	c0.791,0,1.429,0.639,1.429,1.43v2.607h15.049v-2.607c0-0.791,0.641-1.43,1.431-1.43c0.789,0,1.43,0.639,1.43,1.43v4.038
	C1097.25,275.92,1096.609,276.562,1095.82,276.562"/>
<path fill="#F47231" d="M1095.82,283.396h-17.908c-0.79,0-1.43-0.642-1.43-1.43v-4.038c0-0.791,0.64-1.43,1.43-1.43
	c0.791,0,1.429,0.639,1.429,1.43v2.608h15.049v-2.608c0-0.791,0.641-1.43,1.431-1.43c0.789,0,1.43,0.639,1.43,1.43v4.038
	C1097.25,282.755,1096.609,283.396,1095.82,283.396"/>
<path fill="#F47231" d="M1095.82,290.23h-17.908c-0.79,0-1.43-0.642-1.43-1.43v-4.039c0-0.79,0.64-1.432,1.43-1.432
	c0.791,0,1.429,0.642,1.429,1.432v2.609h15.049v-2.609c0-0.79,0.641-1.432,1.431-1.432c0.789,0,1.43,0.642,1.43,1.432v4.039
	C1097.25,289.589,1096.609,290.23,1095.82,290.23"/>
<path fill="#F47231" d="M1077.912,292.756c-0.791,0-1.43-0.642-1.43-1.432v-4.038c0-0.789,0.639-1.431,1.43-1.431
	s1.429,0.642,1.429,1.431v4.038C1079.341,292.114,1078.703,292.756,1077.912,292.756"/>
<path fill="#F47231" d="M1095.82,292.756c-0.79,0-1.431-0.642-1.431-1.432v-4.038c0-0.789,0.641-1.431,1.431-1.431
	c0.789,0,1.43,0.642,1.43,1.431v4.038C1097.25,292.114,1096.609,292.756,1095.82,292.756"/>
<path fill="#F47231" d="M1100.938,363.794h-21.882c-0.789,0-1.431-0.641-1.431-1.43v-67.581c0-0.791,0.642-1.432,1.431-1.432h21.882
	c0.79,0,1.432,0.641,1.432,1.432v67.581C1102.37,363.153,1101.729,363.794,1100.938,363.794 M1080.486,360.933h19.022v-64.721
	h-19.022V360.933z"/>
<path fill="#F47231" d="M1079.057,363.794h-34.489c-0.791,0-1.432-0.641-1.432-1.43v-67.581c0-0.791,0.641-1.432,1.432-1.432h34.489
	c0.792,0,1.43,0.641,1.43,1.432v67.581C1080.486,363.153,1079.849,363.794,1079.057,363.794 M1045.996,360.933h31.629v-64.721
	h-31.629V360.933z"/>
<path fill="#F47231" d="M1079.057,303.554h-34.489c-0.791,0-1.432-0.641-1.432-1.431v-3.876c0-0.788,0.641-1.43,1.432-1.43
	c0.79,0,1.429,0.642,1.429,1.43v2.446h31.63v-2.446c0-0.788,0.642-1.43,1.431-1.43c0.79,0,1.43,0.642,1.43,1.43v3.876
	C1080.486,302.913,1079.847,303.554,1079.057,303.554"/>
<path fill="#F47231" d="M1079.057,310.113h-34.489c-0.791,0-1.432-0.639-1.432-1.431v-3.875c0-0.79,0.641-1.43,1.432-1.43
	c0.79,0,1.429,0.64,1.429,1.43v2.445h31.63v-2.445c0-0.79,0.642-1.43,1.431-1.43c0.79,0,1.43,0.64,1.43,1.43v3.875
	C1080.486,309.475,1079.847,310.113,1079.057,310.113"/>
<path fill="#F47231" d="M1079.057,316.673h-34.489c-0.791,0-1.432-0.638-1.432-1.43v-3.876c0-0.791,0.641-1.431,1.432-1.431
	c0.79,0,1.429,0.64,1.429,1.431v2.445h31.63v-2.445c0-0.791,0.642-1.431,1.431-1.431c0.79,0,1.43,0.64,1.43,1.431v3.876
	C1080.486,316.035,1079.847,316.673,1079.057,316.673"/>
<path fill="#F47231" d="M1079.057,323.232h-34.489c-0.791,0-1.432-0.64-1.432-1.43v-3.876c0-0.791,0.641-1.432,1.432-1.432
	c0.79,0,1.429,0.641,1.429,1.432v2.447h31.63v-2.447c0-0.791,0.642-1.432,1.431-1.432c0.79,0,1.43,0.641,1.43,1.432v3.876
	C1080.486,322.593,1079.847,323.232,1079.057,323.232"/>
<path fill="#F47231" d="M1079.057,329.793h-34.489c-0.791,0-1.432-0.641-1.432-1.433v-3.873c0-0.79,0.641-1.43,1.432-1.43
	c0.79,0,1.429,0.64,1.429,1.43v2.445h31.63v-2.445c0-0.79,0.642-1.43,1.431-1.43c0.79,0,1.43,0.64,1.43,1.43v3.873
	C1080.486,329.152,1079.847,329.793,1079.057,329.793"/>
<path fill="#F47231" d="M1079.057,336.353h-34.489c-0.791,0-1.432-0.64-1.432-1.431v-3.876c0-0.79,0.641-1.43,1.432-1.43
	c0.79,0,1.429,0.64,1.429,1.43v2.446h31.63v-2.446c0-0.79,0.642-1.43,1.431-1.43c0.79,0,1.43,0.64,1.43,1.43v3.876
	C1080.486,335.713,1079.847,336.353,1079.057,336.353"/>
<path fill="#F47231" d="M1079.057,342.913h-34.489c-0.791,0-1.432-0.64-1.432-1.43v-3.879c0-0.788,0.641-1.429,1.432-1.429
	c0.79,0,1.429,0.641,1.429,1.429v2.448h31.63v-2.448c0-0.788,0.642-1.429,1.431-1.429c0.79,0,1.43,0.641,1.43,1.429v3.879
	C1080.486,342.273,1079.847,342.913,1079.057,342.913"/>
<path fill="#F47231" d="M1079.057,349.474h-34.489c-0.791,0-1.432-0.641-1.432-1.431v-3.877c0-0.79,0.641-1.431,1.432-1.431
	c0.79,0,1.429,0.641,1.429,1.431v2.448h31.63v-2.448c0-0.79,0.642-1.431,1.431-1.431c0.79,0,1.43,0.641,1.43,1.431v3.877
	C1080.486,348.833,1079.847,349.474,1079.057,349.474"/>
<path fill="#F47231" d="M1079.057,356.032h-34.489c-0.791,0-1.432-0.64-1.432-1.432v-3.875c0-0.791,0.641-1.43,1.432-1.43
	c0.79,0,1.429,0.639,1.429,1.43v2.446h31.63v-2.446c0-0.791,0.642-1.43,1.431-1.43c0.79,0,1.43,0.639,1.43,1.43v3.875
	C1080.486,355.393,1079.847,356.032,1079.057,356.032"/>
<path fill="#F47231" d="M1100.938,303.554h-21.882c-0.789,0-1.431-0.641-1.431-1.431v-3.876c0-0.788,0.642-1.43,1.431-1.43
	c0.79,0,1.43,0.642,1.43,1.43v2.446h19.022v-2.446c0-0.788,0.639-1.43,1.43-1.43c0.79,0,1.432,0.642,1.432,1.43v3.876
	C1102.37,302.913,1101.729,303.554,1100.938,303.554"/>
<path fill="#F47231" d="M1100.938,310.113h-21.882c-0.789,0-1.431-0.639-1.431-1.431v-3.875c0-0.79,0.642-1.43,1.431-1.43
	c0.79,0,1.43,0.64,1.43,1.43v2.445h19.022v-2.445c0-0.79,0.639-1.43,1.43-1.43c0.79,0,1.432,0.64,1.432,1.43v3.875
	C1102.37,309.475,1101.729,310.113,1100.938,310.113"/>
<path fill="#F47231" d="M1100.938,316.673h-21.882c-0.789,0-1.431-0.638-1.431-1.43v-3.876c0-0.791,0.642-1.431,1.431-1.431
	c0.79,0,1.43,0.64,1.43,1.431v2.445h19.022v-2.445c0-0.791,0.639-1.431,1.43-1.431c0.79,0,1.432,0.64,1.432,1.431v3.876
	C1102.37,316.035,1101.729,316.673,1100.938,316.673"/>
<path fill="#F47231" d="M1100.938,323.232h-21.882c-0.789,0-1.431-0.64-1.431-1.43v-3.876c0-0.791,0.642-1.432,1.431-1.432
	c0.79,0,1.43,0.641,1.43,1.432v2.447h19.022v-2.447c0-0.791,0.639-1.432,1.43-1.432c0.79,0,1.432,0.641,1.432,1.432v3.876
	C1102.37,322.593,1101.729,323.232,1100.938,323.232"/>
<path fill="#F47231" d="M1100.938,329.793h-21.882c-0.789,0-1.431-0.641-1.431-1.433v-3.873c0-0.79,0.642-1.43,1.431-1.43
	c0.79,0,1.43,0.64,1.43,1.43v2.445h19.022v-2.445c0-0.79,0.639-1.43,1.43-1.43c0.79,0,1.432,0.64,1.432,1.43v3.873
	C1102.37,329.152,1101.729,329.793,1100.938,329.793"/>
<path fill="#F47231" d="M1100.938,336.353h-21.882c-0.789,0-1.431-0.64-1.431-1.431v-3.876c0-0.79,0.642-1.43,1.431-1.43
	c0.79,0,1.43,0.64,1.43,1.43v2.446h19.022v-2.446c0-0.79,0.639-1.43,1.43-1.43c0.79,0,1.432,0.64,1.432,1.43v3.876
	C1102.37,335.713,1101.729,336.353,1100.938,336.353"/>
<path fill="#F47231" d="M1100.938,342.913h-21.882c-0.789,0-1.431-0.64-1.431-1.43v-3.879c0-0.788,0.642-1.429,1.431-1.429
	c0.79,0,1.43,0.641,1.43,1.429v2.448h19.022v-2.448c0-0.788,0.639-1.429,1.43-1.429c0.79,0,1.432,0.641,1.432,1.429v3.879
	C1102.37,342.273,1101.729,342.913,1100.938,342.913"/>
<path fill="#F47231" d="M1100.938,349.474h-21.882c-0.789,0-1.431-0.641-1.431-1.431v-3.877c0-0.79,0.642-1.431,1.431-1.431
	c0.79,0,1.43,0.641,1.43,1.431v2.448h19.022v-2.448c0-0.79,0.639-1.431,1.43-1.431c0.79,0,1.432,0.641,1.432,1.431v3.877
	C1102.37,348.833,1101.729,349.474,1100.938,349.474"/>
<path fill="#F47231" d="M1100.938,356.032h-21.882c-0.789,0-1.431-0.64-1.431-1.432v-3.875c0-0.791,0.642-1.43,1.431-1.43
	c0.79,0,1.43,0.639,1.43,1.43v2.446h19.022v-2.446c0-0.791,0.639-1.43,1.43-1.43c0.79,0,1.432,0.639,1.432,1.43v3.875
	C1102.37,355.393,1101.729,356.032,1100.938,356.032"/>
<path fill="#F47231" d="M1095.82,241.606h-0.002l-17.909-0.027c-0.358,0-0.706-0.136-0.968-0.38l-13.055-12.078
	c-0.433-0.399-0.575-1.022-0.362-1.572c0.216-0.546,0.744-0.907,1.333-0.907h17.249c0.348,0,0.685,0.128,0.945,0.357l13.555,11.963
	c0.403,0.251,0.672,0.701,0.672,1.212c0,0.79-0.64,1.433-1.43,1.433C1095.837,241.606,1095.828,241.604,1095.82,241.606
	 M1078.473,238.72l13.56,0.02l-10.467-9.237h-13.057L1078.473,238.72z"/>
<path fill="#F47231" d="M1049.687,241.604c-0.418,0-0.837-0.186-1.117-0.539c-0.493-0.616-0.393-1.519,0.225-2.01l15.172-12.102
	c0.616-0.492,1.518-0.394,2.011,0.226c0.491,0.617,0.39,1.518-0.228,2.01l-15.17,12.104
	C1050.315,241.502,1050.001,241.604,1049.687,241.604"/>
<path fill="#F47231" d="M656.111,357.759h-26.804c-0.636,0-1.151-0.514-1.151-1.15c0-0.636,0.516-1.151,1.151-1.151h26.804
	c0.637,0,1.151,0.516,1.151,1.151C657.263,357.245,656.748,357.759,656.111,357.759"/>
<path fill="#F47231" d="M675.517,349.914h-2.504c-0.484,0-0.915-0.302-1.082-0.756l-1.155-3.159
	c-0.129-0.354-0.079-0.747,0.138-1.057c0.215-0.307,0.567-0.492,0.944-0.492h3.659c0.637,0,1.151,0.516,1.151,1.151v3.161
	C676.668,349.399,676.153,349.914,675.517,349.914 M673.816,347.612h0.55v-0.859h-0.863L673.816,347.612z"/>
<path fill="#F47231" d="M662.43,363.867c-4.118,0-7.469-3.349-7.469-7.47c0-4.118,3.351-7.471,7.469-7.471
	c4.12,0,7.471,3.353,7.471,7.471C669.9,360.519,666.55,363.867,662.43,363.867 M662.43,351.229c-2.849,0-5.167,2.321-5.167,5.169
	c0,2.852,2.318,5.168,5.167,5.168c2.851,0,5.169-2.316,5.169-5.168C667.599,353.55,665.28,351.229,662.43,351.229"/>
<path fill="#F47231" d="M662.43,359.656c-1.796,0-3.257-1.462-3.257-3.259c0-1.796,1.461-3.257,3.257-3.257
	c1.797,0,3.26,1.461,3.26,3.257C665.689,358.194,664.227,359.656,662.43,359.656 M662.43,355.442c-0.524,0-0.954,0.429-0.954,0.955
	c0,0.527,0.43,0.955,0.954,0.955c0.527,0,0.957-0.428,0.957-0.955C663.387,355.871,662.957,355.442,662.43,355.442"/>
<path fill="#F47231" d="M622.331,363.867c-4.122,0-7.471-3.349-7.471-7.47c0-4.118,3.349-7.471,7.471-7.471
	c4.119,0,7.47,3.353,7.47,7.471C629.801,360.519,626.449,363.867,622.331,363.867 M622.331,351.229
	c-2.851,0-5.168,2.321-5.168,5.169c0,2.852,2.317,5.168,5.168,5.168c2.849,0,5.168-2.316,5.168-5.168
	C627.499,353.55,625.18,351.229,622.331,351.229"/>
<path fill="#F47231" d="M622.331,359.656c-1.797,0-3.258-1.462-3.258-3.259c0-1.796,1.461-3.257,3.258-3.257
	c1.796,0,3.256,1.461,3.256,3.257C625.587,358.194,624.126,359.656,622.331,359.656 M622.331,355.442
	c-0.528,0-0.956,0.429-0.956,0.955c0,0.527,0.427,0.955,0.956,0.955c0.526,0,0.956-0.428,0.956-0.955
	C623.286,355.871,622.857,355.442,622.331,355.442"/>
<path fill="#F47231" d="M672.548,338.595h-0.023h-62.116c-0.635,0-1.15-0.514-1.15-1.151v-14.335c0-1.907,1.553-3.461,3.462-3.461
	h52.34c1.468,0,4.048,0.602,4.85,4.645l3.658,12.621c0.084,0.159,0.13,0.34,0.13,0.53
	C673.698,338.081,673.184,338.595,672.548,338.595 M611.56,336.293h59.432l-3.317-11.457c-0.513-2.57-1.663-2.887-2.614-2.887
	h-52.34c-0.64,0-1.161,0.521-1.161,1.159V336.293z"/>
<path fill="#F47231" d="M676.442,357.759h-7.296c-0.638,0-1.152-0.514-1.152-1.15c0-0.636,0.515-1.151,1.152-1.151h7.296
	c0.448,0,0.826-0.379,0.826-0.827v-14.783l-5.483-18.932c-0.621-3.11-2.111-3.459-3.183-3.459h-58.749
	c-1.731,0-3.138,1.406-3.138,3.138v33.631c0,0.681,0.553,1.232,1.232,1.232h7.669c0.635,0,1.151,0.516,1.151,1.151
	c0,0.637-0.516,1.15-1.151,1.15h-7.669c-1.948,0-3.534-1.586-3.534-3.534v-33.631c0-3,2.44-5.439,5.44-5.439h58.749
	c1.638,0,4.518,0.678,5.418,5.218l5.506,18.992c0.029,0.104,0.045,0.213,0.045,0.321v14.944
	C679.571,356.354,678.169,357.759,676.442,357.759"/>
<path fill="#F47231" d="M656.464,338.439c-0.635,0-1.15-0.515-1.15-1.15v-16.472c0-0.635,0.516-1.15,1.15-1.15
	c0.637,0,1.151,0.516,1.151,1.15v16.472C657.615,337.925,657.101,338.439,656.464,338.439"/>
<path fill="#F47231" d="M640.381,338.439c-0.637,0-1.151-0.515-1.151-1.15v-16.472c0-0.635,0.515-1.15,1.151-1.15
	c0.635,0,1.151,0.516,1.151,1.15v16.472C641.532,337.925,641.016,338.439,640.381,338.439"/>
<path fill="#F47231" d="M624.295,338.439c-0.634,0-1.15-0.515-1.15-1.15v-16.472c0-0.635,0.516-1.15,1.15-1.15
	c0.636,0,1.151,0.516,1.151,1.15v16.472C625.446,337.925,624.931,338.439,624.295,338.439"/>
<path fill="none" stroke="#F47231" stroke-width="2.779" stroke-linecap="round" stroke-linejoin="round" stroke-miterlimit="10" d="
	M799.149,318.755c0.934,4.076,4.485,6.879,8.848,6.879c4.657,0,8.503-3.469,9.098-7.961c6.508-0.771,11.556-6.305,11.556-13.02
	c0-4.969-2.767-9.292-6.842-11.517c1.219-1.991,1.923-4.333,1.923-6.841c0-7.242-5.87-13.11-13.111-13.11
	c-1.996,0-3.888,0.447-5.581,1.244c-2.464-7.024-9.151-12.063-17.018-12.063c-7.867,0-14.554,5.039-17.018,12.063
	c-1.692-0.797-3.584-1.244-5.582-1.244c-7.241,0-13.11,5.868-13.11,13.11c0,2.508,0.702,4.85,1.923,6.841
	c-4.078,2.225-6.841,6.548-6.841,11.517c0,6.715,5.046,12.249,11.554,13.02c0.596,4.492,4.44,7.961,9.099,7.961
	c4.344,0,7.984-2.737,8.935-6.792"/>
<polyline fill="none" stroke="#F47231" stroke-width="2.779" stroke-linecap="round" stroke-linejoin="round" stroke-miterlimit="10" points="
	766.072,307.712 782.974,324.613 781.268,364.202 786.805,364.202 "/>
<polyline fill="none" stroke="#F47231" stroke-width="2.779" stroke-linecap="round" stroke-linejoin="round" stroke-miterlimit="10" points="
	772.434,301.539 774.386,310.156 769.225,305.58 "/>
<polyline fill="none" stroke="#F47231" stroke-width="2.779" stroke-linecap="round" stroke-linejoin="round" stroke-miterlimit="10" points="
	784.896,296.748 783.418,318.164 778.392,313.708 774.925,300.849 "/>
<path fill="none" stroke="#F47231" stroke-width="2.779" stroke-linecap="round" stroke-linejoin="round" stroke-miterlimit="10" d="
	M781.518,297.324c2.541,0,4.842-1.032,6.504-2.703c1.662,1.671,3.962,2.703,6.504,2.703"/>
<path fill="none" stroke="#F47231" stroke-width="2.779" stroke-linecap="round" stroke-linejoin="round" stroke-miterlimit="10" d="
	M781.518,297.324c-1.619,3.143-5.478,4.378-8.62,2.758"/>
<path fill="none" stroke="#F47231" stroke-width="2.779" stroke-linecap="round" stroke-linejoin="round" stroke-miterlimit="10" d="
	M772.897,300.083c-2.311,6.633-9.561,10.139-16.194,7.829"/>
<polyline fill="none" stroke="#F47231" stroke-width="2.779" stroke-linecap="round" stroke-linejoin="round" stroke-miterlimit="10" points="
	810.102,307.712 793.2,324.613 794.905,364.202 786.805,364.202 "/>
<polyline fill="none" stroke="#F47231" stroke-width="2.779" stroke-linecap="round" stroke-linejoin="round" stroke-miterlimit="10" points="
	803.741,301.539 801.788,310.156 806.949,305.58 "/>
<polyline fill="none" stroke="#F47231" stroke-width="2.779" stroke-linecap="round" stroke-linejoin="round" stroke-miterlimit="10" points="
	791.279,296.748 792.756,318.164 797.782,313.708 801.279,300.739 "/>
<path fill="none" stroke="#F47231" stroke-width="2.779" stroke-linecap="round" stroke-linejoin="round" stroke-miterlimit="10" d="
	M794.656,297.324c-2.541,0-4.841-1.032-6.503-2.703c-1.663,1.671-3.963,2.703-6.505,2.703"/>
<path fill="none" stroke="#F47231" stroke-width="2.779" stroke-linecap="round" stroke-linejoin="round" stroke-miterlimit="10" d="
	M794.656,297.324c1.619,3.143,5.479,4.378,8.621,2.758"/>
<path fill="none" stroke="#F47231" stroke-width="2.779" stroke-linecap="round" stroke-linejoin="round" stroke-miterlimit="10" d="
	M803.277,300.083c2.31,6.633,9.56,10.139,16.194,7.829"/>
<line fill="none" stroke="#F47231" stroke-width="2.779" stroke-linecap="round" stroke-linejoin="round" stroke-miterlimit="10" x1="742.159" y1="310.243" x2="742.159" y2="364.201"/>
<polyline fill="none" stroke="#F47231" stroke-width="2.779" stroke-linecap="round" stroke-linejoin="round" stroke-miterlimit="10" points="
	753.509,324.433 742.197,335.74 728.146,321.688 "/>
<polyline fill="none" stroke="#F47231" stroke-width="2.779" stroke-linecap="round" stroke-linejoin="round" stroke-miterlimit="10" points="
	748.651,319.134 742.198,325.458 734.45,317.709 "/>
<polyline fill="none" stroke="#F47231" stroke-width="2.779" stroke-linecap="round" stroke-linejoin="round" stroke-miterlimit="10" points="
	745.63,312.737 742.198,316.168 738.768,312.737 "/>
<path fill="none" stroke="#F47231" stroke-width="2.779" stroke-linecap="round" stroke-linejoin="round" stroke-miterlimit="10" d="
	M748.038,300.272c-1.782-1.092-3.882-1.724-6.126-1.724c-5.123,0-9.479,3.279-11.082,7.855c-1.103-0.52-2.336-0.811-3.636-0.811
	c-4.716,0-8.537,3.821-8.537,8.538c0,1.632,0.457,3.157,1.251,4.455c-2.653,1.447-4.455,4.261-4.455,7.499
	c0,4.372,3.287,7.976,7.525,8.479"/>
<path fill="none" stroke="#F47231" stroke-width="2.779" stroke-linecap="round" stroke-linejoin="round" stroke-miterlimit="10" d="
	M760.844,334.564c4.239-0.503,7.525-4.106,7.525-8.479"/>
<path fill="none" stroke="#F47231" stroke-width="2.779" stroke-linecap="round" stroke-linejoin="round" stroke-miterlimit="10" d="
	M722.979,334.564c0.977,4.748,4.855,8.582,9.932,9.27c3.467,0.466,6.782-0.632,9.24-2.75"/>
<path fill="none" stroke="#F47231" stroke-width="2.779" stroke-linecap="round" stroke-linejoin="round" stroke-miterlimit="10" d="
	M760.844,334.564c-0.976,4.748-4.854,8.582-9.93,9.27c-3.469,0.466-6.308-0.632-8.764-2.75"/>
<line fill="none" stroke="#F47231" stroke-width="2.779" stroke-linecap="round" stroke-linejoin="round" stroke-miterlimit="10" x1="833.885" y1="310.243" x2="833.885" y2="364.201"/>
<polyline fill="none" stroke="#F47231" stroke-width="2.779" stroke-linecap="round" stroke-linejoin="round" stroke-miterlimit="10" points="
	822.534,324.433 833.845,335.74 847.896,321.688 "/>
<polyline fill="none" stroke="#F47231" stroke-width="2.779" stroke-linecap="round" stroke-linejoin="round" stroke-miterlimit="10" points="
	827.392,319.134 833.845,325.458 841.593,317.709 "/>
<polyline fill="none" stroke="#F47231" stroke-width="2.779" stroke-linecap="round" stroke-linejoin="round" stroke-miterlimit="10" points="
	830.413,312.737 833.844,316.168 837.275,312.737 "/>
<path fill="none" stroke="#F47231" stroke-width="2.779" stroke-linecap="round" stroke-linejoin="round" stroke-miterlimit="10" d="
	M828.004,300.272c1.784-1.092,3.881-1.724,6.128-1.724c5.121,0,9.479,3.279,11.081,7.855c1.104-0.52,2.334-0.811,3.635-0.811
	c4.717,0,8.54,3.821,8.54,8.538c0,1.632-0.459,3.157-1.253,4.455c2.653,1.447,4.454,4.261,4.454,7.499
	c0,4.372-3.286,7.976-7.523,8.479"/>
<path fill="none" stroke="#F47231" stroke-width="2.779" stroke-linecap="round" stroke-linejoin="round" stroke-miterlimit="10" d="
	M815.197,334.564c-4.237-0.503-7.522-4.106-7.522-8.479"/>
<path fill="none" stroke="#F47231" stroke-width="2.779" stroke-linecap="round" stroke-linejoin="round" stroke-miterlimit="10" d="
	M853.065,334.564c-0.979,4.748-4.855,8.582-9.934,9.27c-3.468,0.466-6.783-0.632-9.239-2.75"/>
<path fill="none" stroke="#F47231" stroke-width="2.779" stroke-linecap="round" stroke-linejoin="round" stroke-miterlimit="10" d="
	M815.197,334.564c0.979,4.748,4.854,8.582,9.931,9.27c3.469,0.466,6.308-0.632,8.765-2.75"/>
<path fill="#F47231" d="M252.937,61.126c-1.435,0-23.9-2.309-26.457-2.572c-0.587-0.062-1.034-0.555-1.034-1.146
	c0-0.59,0.447-1.084,1.034-1.146c2.557-0.264,25.021-2.572,26.457-2.572c2.051,0,3.719,1.668,3.719,3.718
	C256.655,59.459,254.988,61.126,252.937,61.126 M237.966,57.409c7.458,0.75,14.313,1.416,14.971,1.416
	c0.782,0,1.417-0.634,1.417-1.416c0-0.781-0.635-1.416-1.417-1.416C252.279,55.993,245.423,56.66,237.966,57.409"/>
<path fill="#F47231" d="M200.257,61.127c-2.05,0-3.718-1.667-3.718-3.719c0-2.05,1.668-3.718,3.718-3.718
	c1.436,0,23.902,2.31,26.458,2.574c0.587,0.06,1.033,0.555,1.033,1.144c0,0.591-0.445,1.085-1.033,1.145
	C224.159,58.817,201.693,61.127,200.257,61.127 M200.257,55.993c-0.782,0-1.416,0.635-1.416,1.416c0,0.782,0.634,1.417,1.416,1.417
	c0.657,0,7.513-0.667,14.97-1.417C207.771,56.66,200.914,55.993,200.257,55.993"/>
<path fill="#F47231" d="M248.069,96.247l-33.994-0.001c-2.984-0.064-5.868-1.402-7.915-3.67l-10.064-11.169h-16.148
	c-3.164,0-4.791-3.181-4.858-3.315l-4.479-9.531c-0.073-0.153-0.111-0.321-0.111-0.49c0-1.333,1.084-2.417,2.417-2.417h2.393
	c0.668,0,1.075,0,7.49,7.899h27.099v-1.907c0-4.944,4.023-8.967,8.967-8.967h13.568c13.567,0,24.603,11.037,24.603,24.601
	C257.036,92.226,253.013,96.247,248.069,96.247 M177.16,77.086c0.001,0,1.059,2.019,2.788,2.019h16.661
	c0.326,0,0.637,0.14,0.855,0.381l10.408,11.549c1.621,1.798,3.9,2.857,6.254,2.908l0.204,0.001h33.74
	c3.675,0,6.665-2.99,6.665-6.664c0-12.297-10.003-22.3-22.301-22.3h-13.568c-3.674,0-6.665,2.99-6.665,6.665v3.058
	c0,0.635-0.515,1.151-1.151,1.151h-28.8c-0.383,0-0.72-0.186-0.93-0.472c-4.473-5.519-5.915-7.022-6.355-7.428h-2.047
	c-0.015,0-0.03,0.004-0.044,0.01L177.16,77.086z"/>
<path fill="#F47231" d="M248.545,76.932c-0.402,0-0.794-0.211-1.005-0.588c-2.329-4.153-6.73-6.732-11.486-6.732
	c-0.635,0-1.151-0.516-1.151-1.151c0-0.636,0.516-1.151,1.151-1.151c5.586,0,10.758,3.03,13.493,7.909
	c0.312,0.554,0.115,1.255-0.441,1.566C248.929,76.884,248.736,76.932,248.545,76.932"/>
<path fill="#F47231" d="M248.659,106.273h-44.984c-0.635,0-1.152-0.516-1.152-1.151c0-0.614,0.544-1.115,1.152-1.149v-0.002h0.067
	c0.905,0,10.712,0,10.937-0.002v0.002h33.98c3.675,0,6.665-2.988,6.665-6.665c0-0.634,0.516-1.151,1.151-1.151
	c0.635,0,1.151,0.517,1.151,1.151C257.626,102.25,253.603,106.273,248.659,106.273"/>
<path fill="#F47231" d="M254.695,82.233h-28.098c-0.635,0-1.151-0.515-1.151-1.151V49.443c0-0.636,0.516-1.151,1.151-1.151
	s1.151,0.515,1.151,1.151v30.488h26.947c0.635,0,1.151,0.516,1.151,1.151C255.847,81.718,255.331,82.233,254.695,82.233"/>
<path fill="#F47231" d="M244.724,105.753c-0.466,0-0.906-0.287-1.079-0.75l-3.513-9.41c-0.222-0.596,0.081-1.258,0.676-1.48
	c0.595-0.221,1.258,0.08,1.481,0.676l3.513,9.411c0.223,0.595-0.08,1.258-0.675,1.481
	C244.993,105.729,244.857,105.753,244.724,105.753"/>
<path fill="#F47231" d="M213.751,105.753c-0.134,0-0.269-0.024-0.402-0.073c-0.595-0.223-0.898-0.887-0.676-1.481l3.513-9.411
	c0.224-0.596,0.887-0.897,1.481-0.676c0.596,0.222,0.898,0.885,0.676,1.48l-3.514,9.41
	C214.658,105.467,214.217,105.753,213.751,105.753"/>
<path fill="#F47231" d="M1200.082,342.476c-4.851,0-8.817-3.095-9.873-7.696c-0.142-0.62,0.245-1.235,0.865-1.38
	c0.618-0.143,1.235,0.245,1.378,0.865c0.811,3.534,3.878,5.907,7.63,5.907c3.958,0,7.335-2.954,7.854-6.871
	c0.067-0.521,0.482-0.93,1.006-0.992c5.935-0.701,10.41-5.746,10.41-11.729c0-4.329-2.364-8.306-6.165-10.382
	c-0.276-0.15-0.479-0.408-0.56-0.713c-0.083-0.306-0.035-0.631,0.13-0.897c1.134-1.85,1.731-3.981,1.731-6.164
	c0-6.514-5.299-11.815-11.814-11.815c-1.759,0-3.451,0.379-5.029,1.121c-0.296,0.14-0.638,0.146-0.935,0.021
	c-0.302-0.126-0.534-0.373-0.643-0.681c-2.341-6.676-8.668-11.161-15.743-11.161c-7.076,0-13.402,4.485-15.741,11.161
	c-0.108,0.308-0.341,0.555-0.643,0.681c-0.3,0.126-0.642,0.119-0.935-0.021c-1.578-0.742-3.271-1.121-5.029-1.121
	c-6.516,0-11.814,5.302-11.814,11.815c0,2.183,0.598,4.314,1.73,6.164c0.166,0.268,0.214,0.592,0.131,0.897
	c-0.081,0.305-0.283,0.562-0.561,0.713c-3.802,2.073-6.164,6.053-6.164,10.382c0,5.983,4.475,11.028,10.409,11.729
	c0.521,0.062,0.935,0.471,1.006,0.992c0.52,3.917,3.898,6.871,7.855,6.871c3.798,0,6.898-2.341,7.718-5.828
	c0.145-0.618,0.765-1.003,1.383-0.856c0.618,0.144,1.003,0.764,0.857,1.383c-1.068,4.55-5.069,7.605-9.958,7.605
	c-4.813,0-8.96-3.387-9.984-8.009c-6.665-1.201-11.588-7.027-11.588-13.888c0-4.785,2.413-9.207,6.368-11.807
	c-0.988-1.96-1.506-4.134-1.506-6.35c0-7.783,6.332-14.117,14.117-14.117c1.686,0,3.319,0.29,4.873,0.863
	c2.957-6.962,9.832-11.562,17.475-11.562c7.644,0,14.519,4.601,17.477,11.562c1.554-0.573,3.188-0.863,4.873-0.863
	c7.785,0,14.117,6.334,14.117,14.117c0,2.216-0.52,4.39-1.507,6.35c3.956,2.6,6.369,7.023,6.369,11.807
	c0,6.86-4.924,12.687-11.589,13.888C1209.042,339.089,1204.896,342.476,1200.082,342.476"/>
<path fill="#F47231" d="M1179.124,365.918h-5.477c-0.32,0-0.625-0.132-0.842-0.366c-0.218-0.233-0.33-0.546-0.308-0.864l1.651-23.93
	l-16.345-16.342c-0.448-0.45-0.448-1.179,0-1.629c0.452-0.449,1.18-0.449,1.63,0l16.713,16.714c0.236,0.236,0.358,0.562,0.335,0.893
	l-1.604,23.223h4.245c0.635,0,1.15,0.515,1.15,1.151C1180.274,365.401,1179.759,365.918,1179.124,365.918"/>
<path fill="#F47231" d="M1166.843,327.17c-0.275,0-0.548-0.097-0.764-0.288l-5.104-4.526c-0.476-0.422-0.521-1.147-0.099-1.624
	s1.147-0.52,1.624-0.1l2.428,2.152l-1.142-5.031c-0.141-0.619,0.248-1.237,0.868-1.377c0.62-0.144,1.237,0.248,1.378,0.868
	l1.934,8.521c0.108,0.487-0.108,0.991-0.539,1.245C1167.247,327.117,1167.042,327.17,1166.843,327.17"/>
<path fill="#F47231" d="M1175.772,335.088c-0.276,0-0.549-0.098-0.763-0.29l-4.97-4.407c-0.169-0.148-0.291-0.343-0.349-0.56
	l-3.429-12.718c-0.165-0.613,0.198-1.244,0.811-1.41c0.617-0.165,1.248,0.197,1.412,0.812l3.339,12.383l2.963,2.625l1.3-18.846
	c0.042-0.634,0.603-1.113,1.225-1.066c0.637,0.044,1.113,0.593,1.07,1.226l-1.46,21.181c-0.03,0.438-0.308,0.819-0.713,0.986
	C1176.067,335.061,1175.92,335.088,1175.772,335.088"/>
<path fill="#F47231" d="M1186.757,314.479c-2.37,0-4.616-0.801-6.432-2.275c-1.813,1.475-4.06,2.275-6.432,2.275
	c-0.636,0-1.15-0.516-1.15-1.151s0.515-1.15,1.15-1.15c2.123,0,4.119-0.83,5.617-2.335c0.431-0.434,1.199-0.434,1.631,0
	c1.498,1.505,3.492,2.335,5.615,2.335c0.638,0,1.151,0.515,1.151,1.15S1187.395,314.479,1186.757,314.479"/>
<path fill="#F47231" d="M1168.259,317.914c-1.176,0-2.343-0.278-3.416-0.834c-0.565-0.29-0.788-0.984-0.497-1.55
	c0.291-0.566,0.986-0.787,1.55-0.495c1.23,0.633,2.636,0.748,3.949,0.327c1.318-0.422,2.393-1.331,3.026-2.561
	c0.29-0.566,0.985-0.787,1.549-0.498c0.567,0.292,0.787,0.986,0.496,1.552c-0.914,1.776-2.466,3.089-4.368,3.698
	C1169.796,317.795,1169.026,317.914,1168.259,317.914"/>
<path fill="#F47231" d="M1153.479,325.649c-1.494,0-3.013-0.246-4.503-0.766c-0.6-0.208-0.917-0.863-0.708-1.464
	c0.209-0.602,0.863-0.917,1.466-0.708c5.946,2.07,12.477-1.082,14.549-7.034c0.208-0.601,0.863-0.917,1.465-0.706
	c0.601,0.207,0.918,0.865,0.708,1.465C1164.484,322.096,1159.158,325.649,1153.479,325.649"/>
<path fill="#F47231" d="M1187.135,365.918h-8.011c-0.637,0-1.151-0.517-1.151-1.15c0-0.637,0.515-1.151,1.151-1.151h6.776
	l-1.602-23.223c-0.022-0.331,0.101-0.656,0.335-0.893l16.714-16.714c0.449-0.449,1.178-0.449,1.627,0
	c0.449,0.45,0.449,1.179,0,1.629l-16.343,16.342l1.651,23.93c0.021,0.318-0.09,0.632-0.307,0.864
	C1187.759,365.786,1187.453,365.918,1187.135,365.918"/>
<path fill="#F47231" d="M1193.94,327.17c-0.202,0-0.406-0.053-0.586-0.16c-0.432-0.254-0.648-0.758-0.537-1.245l1.931-8.521
	c0.142-0.62,0.76-1.012,1.378-0.868c0.62,0.14,1.009,0.758,0.868,1.377l-1.14,5.031l2.425-2.152c0.475-0.42,1.204-0.377,1.626,0.1
	c0.421,0.477,0.378,1.202-0.098,1.624l-5.104,4.526C1194.487,327.073,1194.214,327.17,1193.94,327.17"/>
<path fill="#F47231" d="M1185.009,335.088c-0.147,0-0.295-0.027-0.437-0.084c-0.405-0.167-0.683-0.549-0.713-0.986l-1.46-21.181
	c-0.043-0.633,0.435-1.182,1.069-1.226c0.603-0.047,1.183,0.433,1.228,1.066l1.299,18.846l2.963-2.625l3.366-12.491
	c0.167-0.616,0.796-0.982,1.413-0.811c0.614,0.165,0.977,0.798,0.811,1.41l-3.457,12.824c-0.06,0.217-0.181,0.411-0.35,0.56
	l-4.97,4.407C1185.559,334.99,1185.286,335.088,1185.009,335.088"/>
<path fill="#F47231" d="M1186.887,314.479c-2.37,0-4.616-0.801-6.432-2.275c-1.814,1.475-4.062,2.275-6.432,2.275
	c-0.638,0-1.151-0.516-1.151-1.151s0.514-1.15,1.151-1.15c2.123,0,4.118-0.83,5.615-2.335c0.433-0.434,1.2-0.434,1.631,0
	c1.5,1.505,3.496,2.335,5.617,2.335c0.637,0,1.151,0.515,1.151,1.15S1187.523,314.479,1186.887,314.479"/>
<path fill="#F47231" d="M1192.528,317.909c-2.715,0-5.339-1.479-6.664-4.054c-0.292-0.565-0.07-1.26,0.496-1.552
	c0.564-0.29,1.26-0.068,1.55,0.498c1.308,2.538,4.438,3.539,6.976,2.232c0.566-0.289,1.26-0.07,1.55,0.496
	c0.29,0.565,0.07,1.26-0.495,1.55C1194.847,317.645,1193.679,317.909,1192.528,317.909"/>
<path fill="#F47231" d="M1207.279,325.657c-2.042,0-4.071-0.462-5.964-1.376c-3.301-1.597-5.782-4.382-6.989-7.846
	c-0.21-0.602,0.108-1.256,0.709-1.468c0.603-0.208,1.256,0.11,1.466,0.711c1.004,2.882,3.068,5.201,5.816,6.529
	c2.747,1.328,5.848,1.507,8.729,0.503c0.604-0.211,1.257,0.107,1.467,0.709c0.208,0.601-0.108,1.255-0.708,1.465
	C1210.325,325.4,1208.8,325.657,1207.279,325.657"/>
<path fill="#F47231" d="M48.339,357.763c-0.635,0-1.151-0.514-1.151-1.152v-37.468c0-0.637,0.516-1.152,1.151-1.152
	c0.636,0,1.151,0.516,1.151,1.152v37.468C49.49,357.249,48.975,357.763,48.339,357.763"/>
<path fill="#F47231" d="M112.655,357.93c-0.635,0-1.151-0.513-1.151-1.15v-37.536c0-0.636,0.516-1.15,1.151-1.15
	c0.636,0,1.151,0.515,1.151,1.15v37.536C113.806,357.417,113.291,357.93,112.655,357.93"/>
<path fill="#F47231" d="M107.701,357.425c-0.635,0-1.151-0.514-1.151-1.15v-30.99H90.645v30.99c0,0.637-0.516,1.15-1.151,1.15
	c-0.636,0-1.151-0.514-1.151-1.15v-32.142c0-0.639,0.515-1.152,1.151-1.152h18.207c0.636,0,1.151,0.514,1.151,1.152v32.142
	C108.852,356.911,108.336,357.425,107.701,357.425"/>
<path fill="#F47231" d="M83.365,347.578H54.244c-0.635,0-1.151-0.515-1.151-1.151v-22.294c0-0.637,0.516-1.152,1.151-1.152h29.121
	c0.637,0,1.151,0.516,1.151,1.152v22.294C84.516,347.063,84.002,347.578,83.365,347.578 M55.395,345.276h26.819v-19.992H55.395
	V345.276z"/>
<path fill="#F47231" d="M80.349,344.824H57.262c-0.636,0-1.151-0.514-1.151-1.15v-16.582c0-0.637,0.515-1.151,1.151-1.151h23.087
	c0.635,0,1.151,0.515,1.151,1.151v16.582C81.5,344.311,80.984,344.824,80.349,344.824 M58.413,342.521h20.785v-14.279H58.413
	V342.521z"/>
<path fill="#F47231" d="M117.362,363.317H43.632c-0.636,0-1.151-0.514-1.151-1.151v-2.521c0-2.373,1.93-4.302,4.302-4.302h67.426
	c2.372,0,4.303,1.929,4.303,4.302v2.521C118.513,362.804,117.997,363.317,117.362,363.317 M44.783,361.016h71.428v-1.37
	c0-1.102-0.898-2-2.001-2H46.784c-1.103,0-2,0.898-2,2V361.016z"/>
<path fill="#F47231" d="M85.812,315.771H75.181c-0.635,0-1.151-0.517-1.151-1.15v-18.787c0-0.635,0.516-1.151,1.151-1.151h10.631
	c0.636,0,1.151,0.517,1.151,1.151v18.787C86.963,315.254,86.448,315.771,85.812,315.771 M76.332,313.469h8.328v-16.482h-8.328
	V313.469z"/>
<path fill="#F47231" d="M64.552,315.77H53.921c-0.371,0-0.719-0.177-0.936-0.479c-0.215-0.303-0.272-0.688-0.153-1.041l6.341-18.786
	c0.158-0.467,0.597-0.781,1.09-0.781h7.46c0.338,0,0.659,0.149,0.877,0.408c0.219,0.26,0.313,0.6,0.256,0.935l-3.17,18.784
	C65.594,315.363,65.114,315.77,64.552,315.77 M55.524,313.468h8.055l2.782-16.483H61.09L55.524,313.468z"/>
<path fill="#F47231" d="M75.182,315.77h-10.63c-0.339,0-0.661-0.148-0.879-0.407c-0.219-0.259-0.312-0.601-0.256-0.936l3.171-18.783
	c0.093-0.555,0.572-0.961,1.135-0.961h7.458c0.635,0,1.151,0.514,1.151,1.151v18.785C76.333,315.255,75.817,315.77,75.182,315.77
	 M65.913,313.468h8.118v-16.483h-5.335L65.913,313.468z"/>
<path fill="#F47231" d="M53.921,315.77h-10.63c-0.4,0-0.771-0.207-0.98-0.549c-0.21-0.34-0.229-0.765-0.047-1.122l9.515-18.786
	c0.197-0.386,0.593-0.63,1.027-0.63h7.458c0.37,0,0.72,0.179,0.936,0.479c0.215,0.302,0.272,0.688,0.154,1.04l-6.342,18.784
	C54.854,315.456,54.415,315.77,53.921,315.77 M45.164,313.468h7.932l5.565-16.483h-5.149L45.164,313.468z"/>
<path fill="#F47231" d="M107.073,315.77H96.442c-0.561,0-1.041-0.406-1.134-0.96l-3.171-18.784
	c-0.057-0.335,0.037-0.675,0.256-0.935c0.219-0.259,0.54-0.408,0.879-0.408h7.459c0.493,0,0.932,0.314,1.09,0.781l6.342,18.786
	c0.118,0.353,0.062,0.738-0.154,1.041C107.792,315.593,107.444,315.77,107.073,315.77 M97.416,313.468h8.054l-5.565-16.483h-5.271
	L97.416,313.468z"/>
<path fill="#F47231" d="M96.442,315.77H85.812c-0.635,0-1.151-0.515-1.151-1.15v-18.785c0-0.638,0.516-1.151,1.151-1.151h7.458
	c0.563,0,1.042,0.406,1.135,0.961l3.171,18.783c0.058,0.335-0.037,0.677-0.255,0.936S96.782,315.77,96.442,315.77 M86.963,313.468
	h8.117l-2.782-16.483h-5.335V313.468z"/>
<path fill="#F47231" d="M117.704,315.77h-10.632c-0.493,0-0.932-0.313-1.089-0.783l-6.342-18.784
	c-0.118-0.352-0.062-0.738,0.154-1.04c0.216-0.301,0.565-0.479,0.937-0.479h7.458c0.434,0,0.832,0.244,1.028,0.63l9.514,18.786
	c0.18,0.357,0.163,0.782-0.046,1.122C118.475,315.562,118.104,315.77,117.704,315.77 M107.899,313.468h7.932l-8.349-16.483h-5.148
	L107.899,313.468z"/>
<path fill="#F47231" d="M80.498,320.294c-3.566,0-6.467-2.546-6.467-5.675c0-0.638,0.515-1.151,1.151-1.151h10.631
	c0.635,0,1.151,0.514,1.151,1.151C86.964,317.748,84.063,320.294,80.498,320.294 M76.583,315.77
	c0.583,1.294,2.117,2.222,3.915,2.222c1.796,0,3.332-0.928,3.915-2.222H76.583z"/>
<path fill="#F47231" d="M91.127,320.294c-3.565,0-6.466-2.546-6.466-5.675c0-0.638,0.516-1.151,1.151-1.151h10.63
	c0.636,0,1.151,0.514,1.151,1.151C97.594,317.748,94.694,320.294,91.127,320.294 M87.213,315.77
	c0.582,1.294,2.116,2.222,3.914,2.222c1.797,0,3.333-0.928,3.915-2.222H87.213z"/>
<path fill="#F47231" d="M101.758,320.294c-3.565,0-6.466-2.546-6.466-5.675c0-0.638,0.516-1.151,1.151-1.151h10.631
	c0.635,0,1.152,0.514,1.152,1.151C108.225,317.748,105.324,320.294,101.758,320.294 M97.843,315.77
	c0.583,1.294,2.117,2.222,3.915,2.222c1.797,0,3.333-0.928,3.915-2.222H97.843z"/>
<path fill="#F47231" d="M112.388,320.294c-3.565,0-6.466-2.546-6.466-5.675c0-0.638,0.515-1.151,1.151-1.151h10.631
	c0.635,0,1.151,0.514,1.151,1.151C118.855,317.748,115.954,320.294,112.388,320.294 M108.474,315.77
	c0.581,1.294,2.117,2.222,3.914,2.222c1.798,0,3.333-0.928,3.915-2.222H108.474z"/>
<path fill="#F47231" d="M69.867,320.294c-3.565,0-6.466-2.546-6.466-5.675c0-0.638,0.515-1.151,1.151-1.151h10.63
	c0.636,0,1.151,0.514,1.151,1.151C76.333,317.748,73.433,320.294,69.867,320.294 M65.953,315.77
	c0.582,1.294,2.116,2.222,3.915,2.222c1.797,0,3.332-0.928,3.916-2.222H65.953z"/>
<path fill="#F47231" d="M59.237,320.294c-3.565,0-6.466-2.546-6.466-5.675c0-0.638,0.514-1.151,1.151-1.151h10.63
	c0.635,0,1.151,0.514,1.151,1.151C65.703,317.748,62.803,320.294,59.237,320.294 M55.322,315.77
	c0.583,1.294,2.117,2.222,3.915,2.222c1.797,0,3.332-0.928,3.914-2.222H55.322z"/>
<path fill="#F47231" d="M48.606,320.294c-3.565,0-6.466-2.546-6.466-5.675c0-0.638,0.515-1.151,1.151-1.151h10.631
	c0.635,0,1.151,0.514,1.151,1.151C55.073,317.748,52.172,320.294,48.606,320.294 M44.691,315.77
	c0.582,1.294,2.116,2.222,3.915,2.222c1.797,0,3.332-0.928,3.916-2.222H44.691z"/>
<path fill="#F47231" d="M103.782,339.192H93.413c-0.635,0-1.151-0.514-1.151-1.151v-9.678c0-0.637,0.516-1.151,1.151-1.151h10.369
	c0.635,0,1.151,0.515,1.151,1.151v9.678C104.933,338.679,104.417,339.192,103.782,339.192 M94.564,336.891h8.066v-7.377h-8.066
	V336.891z"/>
<path fill="#F47231" d="M103.782,353.565H93.413c-0.635,0-1.151-0.516-1.151-1.15v-9.68c0-0.635,0.516-1.151,1.151-1.151h10.369
	c0.635,0,1.151,0.517,1.151,1.151v9.68C104.933,353.05,104.417,353.565,103.782,353.565 M94.564,351.264h8.066v-7.375h-8.066
	V351.264z"/>
<path fill="#F47231" d="M70.065,337.153c-0.295,0-0.59-0.112-0.815-0.337c-0.45-0.45-0.45-1.177,0-1.627l5.799-5.799
	c0.451-0.449,1.178-0.449,1.628,0c0.45,0.45,0.45,1.179,0,1.628l-5.799,5.798C70.655,337.041,70.36,337.153,70.065,337.153"/>
<path fill="#F47231" d="M70.66,341.319c-0.294,0-0.589-0.113-0.814-0.337c-0.45-0.451-0.45-1.179,0-1.628l5.921-5.922
	c0.449-0.449,1.177-0.449,1.627,0s0.45,1.179,0,1.628l-5.921,5.922C71.25,341.206,70.955,341.319,70.66,341.319"/>
<path fill="none" stroke="#F47231" stroke-width="2.779" stroke-linecap="round" stroke-linejoin="round" stroke-miterlimit="10" d="
	M923.028,237.668h-27.174c-3.573,0-6.471-2.896-6.471-6.47v-2.45c0-3.573,2.897-6.471,6.471-6.471h27.174
	c3.573,0,6.471,2.897,6.471,6.471v2.45C929.499,234.771,926.602,237.668,923.028,237.668z"/>
<line fill="none" stroke="#F47231" stroke-width="2.779" stroke-linecap="round" stroke-linejoin="round" stroke-miterlimit="10" x1="884.729" y1="229.972" x2="933.497" y2="229.972"/>
<path fill="none" stroke="#F47231" stroke-width="2.779" stroke-linecap="round" stroke-linejoin="round" stroke-miterlimit="10" d="
	M903.379,237.668c0,0,5.741,109.613-18.417,126.522"/>
<path fill="none" stroke="#F47231" stroke-width="2.779" stroke-linecap="round" stroke-linejoin="round" stroke-miterlimit="10" d="
	M914.849,237.668c0,0-5.741,109.613,18.416,126.522"/>
<rect x="901.604" y="212.254" fill="none" stroke="#F47231" stroke-width="2.779" stroke-linecap="round" stroke-linejoin="round" stroke-miterlimit="10" width="14.494" height="8.862"/>
<line fill="none" stroke="#F47231" stroke-width="2.779" stroke-linecap="round" stroke-linejoin="round" stroke-miterlimit="10" x1="908.852" y1="192.11" x2="908.852" y2="210.529"/>
<line fill="none" stroke="#F47231" stroke-width="2.779" stroke-linecap="round" stroke-linejoin="round" stroke-miterlimit="10" x1="896.088" y1="230.671" x2="896.088" y2="237.577"/>
<line fill="none" stroke="#F47231" stroke-width="2.779" stroke-linecap="round" stroke-linejoin="round" stroke-miterlimit="10" x1="904.146" y1="230.671" x2="904.146" y2="237.577"/>
<line fill="none" stroke="#F47231" stroke-width="2.779" stroke-linecap="round" stroke-linejoin="round" stroke-miterlimit="10" x1="913.354" y1="230.671" x2="913.354" y2="237.577"/>
<line fill="none" stroke="#F47231" stroke-width="2.779" stroke-linecap="round" stroke-linejoin="round" stroke-miterlimit="10" x1="922.562" y1="230.671" x2="922.562" y2="237.577"/>
<line fill="none" stroke="#F47231" stroke-width="2.779" stroke-linecap="round" stroke-linejoin="round" stroke-miterlimit="10" x1="904.146" y1="250.238" x2="913.354" y2="250.238"/>
<line fill="none" stroke="#F47231" stroke-width="2.779" stroke-linecap="round" stroke-linejoin="round" stroke-miterlimit="10" x1="904.146" y1="269.807" x2="912.203" y2="269.807"/>
<line fill="none" stroke="#F47231" stroke-width="2.779" stroke-linecap="round" stroke-linejoin="round" stroke-miterlimit="10" x1="904.146" y1="291.676" x2="914.505" y2="291.676"/>
<line fill="none" stroke="#F47231" stroke-width="2.779" stroke-linecap="round" stroke-linejoin="round" stroke-miterlimit="10" x1="904.146" y1="308.941" x2="915.656" y2="308.941"/>
<line fill="none" stroke="#F47231" stroke-width="2.779" stroke-linecap="round" stroke-linejoin="round" stroke-miterlimit="10" x1="898.965" y1="337.143" x2="919.684" y2="337.143"/>
</svg>
