<svg xmlns="http://www.w3.org/2000/svg" width="400" height="400" viewBox="0 0 400 400"><path fill="#FFF" d="M372.935 185.503s-52.784 86.8-173.599 86.8c-105.813 0-173.596-86.8-173.596-86.8s56.201-86.798 173.596-86.798c117.927 0 173.599 86.798 173.599 86.798"/><path fill="#22546C" d="M199.337 279.246c-107.958 0-176.201-85.822-179.063-89.471a6.933 6.933 0 0 1-.367-8.042c2.387-3.677 59.647-89.974 179.43-89.974 120.339 0 177.097 86.312 179.458 90a6.945 6.945 0 0 1 .08 7.352c-2.237 3.69-56.229 90.135-179.538 90.135M34.555 185.15c14.647 16.629 76.491 80.209 164.782 80.209 101.095 0 153.459-63.58 165.135-79.775-12.124-16.139-66.346-79.936-165.135-79.936-97.704 0-151.98 62.659-164.782 79.502"/><path fill="#67DDE0" d="M282.988 185.503c0 46.343-37.566 83.911-83.896 83.911-46.356 0-83.91-37.568-83.91-83.911 0-46.33 37.554-83.896 83.91-83.896 46.33-.001 83.896 37.566 83.896 83.896"/><path fill="#22546C" d="M199.093 276.357c-50.099 0-90.854-40.755-90.854-90.854 0-50.098 40.756-90.84 90.854-90.84 50.087 0 90.841 40.743 90.841 90.84 0 50.1-40.754 90.854-90.841 90.854m0-167.806c-42.45 0-76.967 34.528-76.967 76.952 0 42.437 34.517 76.968 76.967 76.968 42.423 0 76.952-34.531 76.952-76.968 0-42.423-34.529-76.952-76.952-76.952"/><path fill="#22546C" d="M226.868 185.503c-15.354 0-27.776-12.435-27.776-27.776 0-4.259 1.031-8.259 2.754-11.867-.937-.068-1.819-.284-2.754-.284-22.052 0-39.927 17.875-39.927 39.926 0 22.053 17.875 39.928 39.927 39.928s39.928-17.875 39.928-39.928c0-.935-.218-1.831-.284-2.751-3.621 1.722-7.609 2.752-11.868 2.752"/><path fill="#FFF" d="M253.87 157.727c0 15.339-12.437 27.776-27.775 27.776s-27.776-12.437-27.776-27.776c0-15.337 12.438-27.775 27.776-27.775 15.339 0 27.775 12.438 27.775 27.775"/></svg>