<svg xmlns="http://www.w3.org/2000/svg" width="1100" height="450" viewBox="0 0 1100 450"><path fill="#DC6652" d="M0 0h1100v450H0z"/><g fill="#A74538"><path d="M36.443 391.471l10.887 10.888-10.887 10.888-3.164-3.163 7.726-7.725-7.726-7.726zM73.714 391.471l10.887 10.888-10.887 10.888-3.164-3.163 7.726-7.725-7.726-7.726zM110.983 391.471l10.891 10.888-10.891 10.888-3.161-3.163 7.726-7.725-7.726-7.726zM148.257 391.471l10.887 10.888-10.887 10.888-3.164-3.163 7.726-7.725-7.726-7.726zM185.528 391.471l10.887 10.888-10.887 10.888-3.164-3.163 7.726-7.725-7.726-7.726zM222.799 391.471l10.887 10.888-10.887 10.888-3.164-3.163 7.726-7.725-7.726-7.726zM260.07 391.471l10.887 10.888-10.887 10.888-3.164-3.163 7.726-7.725-7.726-7.726zM297.342 391.471l10.887 10.888-10.887 10.888-3.164-3.163 7.726-7.725-7.726-7.726zM334.613 391.471l10.887 10.888-10.887 10.888-3.164-3.163 7.726-7.725-7.726-7.726zM1058.336 52.247l-10.887-10.888 10.887-10.888 3.164 3.162-7.727 7.726 7.727 7.725zM1021.065 52.247l-10.887-10.888 10.887-10.888 3.164 3.162-7.725 7.726 7.725 7.725zM983.796 52.247l-10.89-10.888 10.89-10.888 3.161 3.162-7.727 7.726 7.727 7.725zM946.522 52.247l-10.887-10.888 10.887-10.888 3.165 3.162-7.726 7.726 7.726 7.725zM909.252 52.247l-10.888-10.888 10.888-10.888 3.163 3.162-7.725 7.726 7.725 7.725zM871.98 52.247l-10.887-10.888 10.887-10.888 3.165 3.162-7.726 7.726 7.726 7.725zM834.71 52.247l-10.888-10.888 10.888-10.888 3.163 3.162-7.725 7.726 7.725 7.725zM797.438 52.247L786.55 41.359l10.888-10.888 3.164 3.162-7.727 7.726 7.727 7.725zM760.167 52.247l-10.888-10.888 10.888-10.888 3.163 3.162-7.725 7.726 7.725 7.725z"/></g></svg>