<svg xmlns="http://www.w3.org/2000/svg" width="400" height="400" viewBox="0 0 400 400"><path fill="#67DDE0" d="M154.777 87.594h224.644v147.778H154.777z"/><path fill="#22546C" d="M385.625 241.576H148.574V81.39h237.051v160.186zM160.98 229.168h212.236V93.796H160.98v135.372z"/><path fill="#FFF" d="M154.777 128.79h224.644v147.78H154.777z"/><path fill="#22546C" d="M385.625 282.773H148.574V122.587h237.051v160.186zM160.98 270.367h212.236V134.996H160.98v135.371z"/><path fill="#67DDE0" d="M179.738 202.682h24.961v49.254h-24.961z"/><path fill="#22546C" d="M210.903 258.139h-37.37v-61.662h37.37v61.662zm-24.961-12.408h12.553v-36.848h-12.553v36.848z"/><path fill="#ACF0F2" d="M229.659 186.263h24.956v65.672h-24.956z"/><path fill="#22546C" d="M260.821 258.139h-37.366v-78.08h37.366v78.08zm-24.958-12.408h12.548v-53.265h-12.548v53.265z"/><path fill="#67DDE0" d="M279.69 169.844h25.413v82.092H279.69z"/><path fill="#22546C" d="M311.42 258.139h-38.048V163.64h38.048v94.499zm-25.414-12.408h12.783v-69.686h-12.783v69.686z"/><path fill="#ACF0F2" d="M329.498 153.413h24.961v98.522h-24.961z"/><path fill="#22546C" d="M360.662 258.139h-37.368V147.208h37.368v110.931zm-24.96-12.408h12.555v-86.115h-12.555v86.115z"/><path fill="#FFF" d="M122.104 64.17c0 17.013-13.972 30.792-31.202 30.792-17.229 0-31.201-13.779-31.201-30.792 0-17 13.972-30.776 31.201-30.776 17.23 0 31.202 13.776 31.202 30.776"/><path fill="#22546C" d="M90.902 101.165c-20.623 0-37.404-16.6-37.404-36.995 0-20.393 16.781-36.979 37.404-36.979s37.406 16.586 37.406 36.979c0 20.395-16.783 36.995-37.406 36.995m0-61.567c-13.782 0-24.997 11.026-24.997 24.572 0 13.56 11.215 24.586 24.997 24.586 13.784 0 24.999-11.027 24.999-24.586-.001-13.545-11.215-24.572-24.999-24.572"/><path fill="#FFF" d="M213.01 108.592h-95.633l-26.475 26.125-26.477-26.125h-9.959c-19.259 0-34.872 15.365-34.872 34.375v70.242c0 10.155 8.429 18.468 18.721 18.468 10.299 0 18.72-8.312 18.72-18.468v124.31c0 10.166 8.427 18.479 18.719 18.479 10.295 0 18.722-8.312 18.722-18.479 0 10.166 8.421 18.479 18.721 18.479 10.292 0 18.72-8.312 18.72-18.479V145.536h81.092c10.3 0 18.722-8.312 18.722-18.477 0-10.154-8.421-18.467-18.721-18.467"/><path fill="#22546C" d="M213.01 102.388h-98.178l-23.93 23.616-23.93-23.616H54.466c-22.646 0-41.075 18.212-41.075 40.58v70.242c0 13.607 11.184 24.67 24.924 24.67 4.561 0 8.839-1.221 12.515-3.342v102.981c0 13.607 11.186 24.683 24.924 24.683a25.01 25.01 0 0 0 18.722-8.397 25.003 25.003 0 0 0 18.721 8.397c13.74 0 24.924-11.075 24.924-24.683V151.74h74.888c13.742 0 24.926-11.074 24.926-24.683.001-13.607-11.183-24.669-24.925-24.669m0 36.944h-87.295v198.187c0 6.761-5.617 12.274-12.517 12.274-6.39 0-11.671-4.731-12.418-10.8.252-.678.41-1.4.41-2.166v-75.184a6.199 6.199 0 0 0-6.203-6.204 6.2 6.2 0 0 0-6.205 6.204v75.184c0 .238.043.463.069.691h-.579c0 6.761-5.614 12.274-12.517 12.274-6.898 0-12.517-5.514-12.517-12.274v-124.31h-.271v-69.162a6.2 6.2 0 0 0-6.204-6.204 6.2 6.2 0 0 0-6.203 6.204v71.695c-1.195 5.552-6.23 9.73-12.245 9.73-6.9 0-12.517-5.501-12.517-12.264v-70.242c0-15.533 12.862-28.171 28.668-28.171h7.416l29.02 28.632 29.02-28.632h93.088c6.902 0 12.518 5.501 12.518 12.262-.001 6.777-5.616 12.276-12.518 12.276"/></svg>