<svg xmlns="http://www.w3.org/2000/svg" width="1093.333" height="265.186" viewBox="0 0 1093.333 265.186"><path fill="#A8CD41" d="M25.874 43.458l-2.735-2.734 6.681-6.682-6.681-6.684 2.735-2.734 9.417 9.418zM58.111 43.458l-2.735-2.734 6.682-6.682-6.682-6.684 2.735-2.734 9.417 9.418zM90.349 43.458l-2.735-2.734 6.681-6.682-6.681-6.684 2.735-2.734 9.417 9.418zM122.586 43.458l-2.735-2.734 6.682-6.682-6.682-6.684 2.735-2.734 9.417 9.418zM154.824 43.458l-2.735-2.734 6.682-6.682-6.682-6.684 2.735-2.734 9.417 9.418zM187.061 43.458l-2.735-2.734 6.682-6.682-6.682-6.684 2.735-2.734 9.417 9.418zM219.298 43.458l-2.735-2.734 6.682-6.682-6.682-6.684 2.735-2.734 9.418 9.418zM251.536 43.458l-2.735-2.734 6.682-6.682-6.682-6.684 2.735-2.734 9.417 9.418zM1072.563 248.458l-9.417-9.416 9.417-9.418 2.736 2.734-6.682 6.684 6.682 6.682zM1040.327 248.458l-9.419-9.416 9.419-9.418 2.734 2.734-6.683 6.684 6.683 6.682zM1008.087 248.458l-9.417-9.416 9.417-9.418 2.737 2.734-6.683 6.684 6.683 6.682zM975.85 248.458l-9.417-9.416 9.417-9.418 2.736 2.734-6.682 6.684 6.682 6.682zM943.613 248.458l-9.417-9.416 9.417-9.418 2.736 2.734-6.682 6.684 6.682 6.682zM911.375 248.458l-9.417-9.416 9.417-9.418 2.737 2.734-6.683 6.684 6.683 6.682zM879.137 248.458l-9.417-9.416 9.417-9.418 2.737 2.734-6.683 6.684 6.683 6.682zM846.9 248.458l-9.417-9.416 9.417-9.418 2.736 2.734-6.682 6.684 6.682 6.682z"/></svg>