<svg baseProfile="tiny" xmlns="http://www.w3.org/2000/svg" width="150" height="150" viewBox="0 0 150 150"><path fill="#909090" d="M69.902 122.439a7.19 7.19 0 0 1-2.479-4.118l-2.321 2.586L53.96 104.94c-.004-.006-.005-.014-.009-.021a56.262 56.262 0 0 0-4.541 2.156l20.366 35.987v-20.18c0-.162.053-.309.126-.443zM83.833 120.907l-2.319-2.585a7.186 7.186 0 0 1-2.479 4.116.927.927 0 0 1 .126.445v18.492l20.352-34.305a55.92 55.92 0 0 0-4.527-2.15c-.004.006-.005.014-.009.02l-11.144 15.967z"/><path fill="#909090" d="M70.427 112.141l-12.326-8.718c-.022-.016-.033-.039-.054-.057-.778.264-1.544.54-2.3.831l9.54 13.671 5.14-5.727zM78.061 111.68c.035.029.078.047.109.082l5.478 6.106 9.54-13.671a61.35 61.35 0 0 0-2.304-.832c-.03.025-.049.059-.082.08l-12.741 8.235zM69.07 116.484c.06.124.099.259.099.405a5.304 5.304 0 0 0 5.297 5.299 5.306 5.306 0 0 0 5.301-5.299c0-.146.039-.281.099-.404l-3.104-3.462a.92.92 0 0 1-.218-.523h-4.151a.921.921 0 0 1-.218.524l-3.105 3.46zM77.27 144.255V123.51a7.154 7.154 0 0 1-2.803.569 7.151 7.151 0 0 1-2.799-.567v22.852c0 .011-.006.02-.006.03l2.04 3.606h.342l3.272-5.515c-.019-.076-.046-.148-.046-.23zM100.309 61.981a.948.948 0 0 1-1.435-.583c-2.033-8.873-9.13-14.586-12.056-16.31.579 2.225 1.864 6.627 3.087 10.65a.946.946 0 0 1-.831 1.397h-.02a.944.944 0 0 1-.734-.35c-2.59-3.188-23.66-12.151-31.715-12.151-.803 0-1.317.095-1.639.198-1.416 11.693-9.092 13.598-10.186 13.81-1.358.492-2.016 5.201.039 11.566 2.083 6.462 5.264 9.634 6.654 9.384a.94.94 0 0 1 1.02.502c5.419 10.709 15.277 19.422 21.975 19.422s16.555-8.713 21.975-19.422a.94.94 0 0 1 1.021-.502c1.397.252 4.569-2.925 6.655-9.384 2.066-6.403 1.389-11.135.014-11.579-.062-.02-.11-.062-.165-.093-1.91 2.273-3.507 3.347-3.659 3.445z"/><path fill="#909090" d="M150 0H0v150h21.756c.328-23.199 13.881-41.361 36.414-48.676l.297-.095c1.423-.448 2.768-.871 4.266-5.137.002-.006.007-.009.009-.015-4.384-3.604-8.608-8.746-11.657-14.584-3.106-.228-6.341-5.354-8.065-10.703-1.741-5.393-2.086-11.557.354-13.484-5.516-16.199-6.334-26.721-2.481-32.129 2.614-3.669 6.75-4.14 10.061-4.14.441 0 .861.008 1.253.015.595.011 1.127.022 1.548-.002C64.556 13.607 74.438 9.833 83.132 9.833c7.622 0 14.325 2.971 19.385 8.59 6.549 7.273 8.847 17.088 8.211 23.13-.758 7.194-3.233 12.211-5.583 15.476 2.894 1.532 2.607 8.077.772 13.762-1.726 5.348-4.961 10.474-8.066 10.702-3.048 5.836-7.271 10.978-11.653 14.581.003.007.009.011.011.018 1.499 4.264 2.845 4.689 4.27 5.141l.298.096c22.527 7.317 36.077 25.477 36.405 48.671H150V0z"/><path fill="#909090" d="M23.647 150h47.882l-23.771-42.004C32.697 116.722 23.915 131.738 23.647 150zM53.145 44.106a.942.942 0 0 1 .436-.703c.7-.442 1.689-.658 3.024-.658 7.028 0 23.876 6.46 30.672 10.829-1.166-3.9-2.664-9.07-2.664-9.872 0-.596.471-1.046 1.095-1.046 2.07 0 11.565 6.496 14.635 16.891 2.252-1.992 7.392-7.615 8.505-18.19.612-5.817-1.849-15.128-7.735-21.667-4.69-5.21-10.908-7.964-17.979-7.964-8.357 0-17.949 3.709-28.508 11.025a.957.957 0 0 1-.434.163c-.517.056-1.206.048-2.019.032-.38-.007-.789-.015-1.217-.015-3.035 0-6.42.397-8.521 3.346-3.421 4.802-2.515 15.002 2.692 30.324 1.957-.646 7.069-3.204 8.018-12.495zM64.305 97.292c-1.285 3.404-2.604 4.634-4.097 5.307l11.329 8.011h4.695l12.44-8.039c-1.468-.681-2.77-1.923-4.037-5.282-3.537 2.587-7.101 4.121-10.168 4.121-3.066-.001-6.627-1.534-10.162-4.118zM101.166 107.991L76.242 150h49.048c-.269-18.266-9.056-33.284-24.124-42.009z"/><path fill="#232323" d="M63.938 95.514a.946.946 0 0 1 .579 1.206c-.07.201-.141.385-.212.572 3.535 2.584 7.096 4.117 10.163 4.117s6.631-1.534 10.168-4.121c-.07-.186-.141-.369-.211-.568a.945.945 0 0 1 .578-1.205.937.937 0 0 1 1.194.561c4.383-3.604 8.605-8.745 11.653-14.581 3.105-.229 6.341-5.354 8.066-10.702 1.835-5.685 2.121-12.23-.772-13.762-.4.557-.793 1.052-1.178 1.509.055.031.103.073.165.093 1.375.444 2.053 5.176-.014 11.579-2.086 6.459-5.258 9.636-6.655 9.384a.941.941 0 0 0-1.021.502C91.021 90.807 81.164 99.52 74.466 99.52s-16.555-8.713-21.975-19.422a.94.94 0 0 0-1.02-.502c-1.39.25-4.57-2.922-6.654-9.384-2.055-6.365-1.397-11.074-.039-11.566a5.878 5.878 0 0 1-.123.022.943.943 0 0 1-1.039-.625c-.086-.25-.162-.487-.246-.734-2.44 1.927-2.095 8.091-.354 13.484 1.725 5.348 4.959 10.475 8.065 10.703 3.049 5.838 7.273 10.98 11.657 14.584a.95.95 0 0 1 1.2-.566z"/><path fill="#232323" d="M44.658 58.667l.123-.022c1.094-.212 8.77-2.117 10.186-13.81.322-.104.835-.198 1.639-.198 8.055 0 29.125 8.963 31.715 12.151.186.228.457.35.734.35h.02a.946.946 0 0 0 .831-1.397c-1.223-4.023-2.508-8.426-3.087-10.65 2.926 1.724 10.022 7.437 12.056 16.31a.947.947 0 0 0 1.435.583c.152-.099 1.749-1.172 3.658-3.442.385-.457.777-.952 1.178-1.509 2.35-3.265 4.825-8.282 5.583-15.476.636-6.042-1.662-15.857-8.211-23.13-5.06-5.62-11.763-8.59-19.385-8.59-8.694 0-18.576 3.774-29.377 11.218-.421.025-.953.013-1.548.002-.392-.007-.812-.015-1.253-.015-3.311 0-7.447.471-10.061 4.14-3.853 5.408-3.035 15.93 2.481 32.129.084.247.159.483.246.734a.941.941 0 0 0 1.037.622zm-2.226-32.391c2.101-2.949 5.486-3.346 8.521-3.346.429 0 .837.008 1.217.015.813.016 1.502.024 2.019-.032a.946.946 0 0 0 .434-.163c10.56-7.315 20.151-11.025 28.508-11.025 7.071 0 13.289 2.754 17.979 7.964 5.887 6.539 8.348 15.85 7.735 21.667-1.113 10.575-6.253 16.198-8.505 18.19-3.069-10.395-12.564-16.891-14.635-16.891-.624 0-1.095.45-1.095 1.046 0 .802 1.498 5.972 2.664 9.872-6.796-4.368-23.644-10.829-30.672-10.829-1.335 0-2.324.215-3.024.658a.947.947 0 0 0-.436.703c-.948 9.292-6.06 11.849-8.021 12.494-5.204-15.321-6.11-25.521-2.689-30.323zM71.537 110.609l-11.329-8.011c-.379.171-.77.308-1.173.435l-.281.09c-.239.077-.47.163-.707.243.021.018.032.041.054.057l12.326 8.718.34-.38a.945.945 0 0 1 1.335-.072.93.93 0 0 1 .291.812h4.151a.928.928 0 0 1 .291-.812.932.932 0 0 1 1.226-.009l12.741-8.234c.033-.021.052-.055.082-.08-.232-.078-.459-.162-.693-.238l-.284-.091a10.294 10.294 0 0 1-1.233-.466l-12.44 8.039h-4.697zM78.215 121.938c.358 0 .659.207.819.5a7.19 7.19 0 0 0 2.479-4.116l-1.647-1.837a.916.916 0 0 0-.099.404 5.306 5.306 0 0 1-5.301 5.299 5.304 5.304 0 0 1-5.297-5.299.938.938 0 0 0-.099-.405l-1.647 1.837a7.192 7.192 0 0 0 2.479 4.118.936.936 0 0 1 .82-.501c.522 0 .945.423.945.945v.628a7.155 7.155 0 0 0 2.799.567c.994 0 1.941-.203 2.803-.569v-.626a.946.946 0 0 1 .946-.945z"/><path fill="#232323" d="M70.722 121.938a.937.937 0 0 0-.82.501.92.92 0 0 0-.125.444v20.18l1.885 3.33c0-.011.006-.02.006-.03v-23.48a.946.946 0 0 0-.946-.945zM79.034 122.438a.935.935 0 0 0-.819-.5.945.945 0 0 0-.945.945V144.254c0 .082.027.154.047.23l1.844-3.109v-18.492a.942.942 0 0 0-.127-.445z"/><path fill="#232323" d="M99.512 107.071L79.16 141.376l-1.844 3.109L74.044 150h2.198l24.924-42.009a54.877 54.877 0 0 0-1.654-.92zM69.776 143.063L49.41 107.076c-.559.299-1.109.605-1.652.92L71.529 150h2.173l-2.041-3.606-1.885-3.331zM65.102 120.907l2.321-2.586 1.647-1.837 3.104-3.46a.917.917 0 0 0 .218-.524.927.927 0 0 0-.291-.812.946.946 0 0 0-1.335.072l-.34.38-5.14 5.728-9.54-13.671c-.606.232-1.205.473-1.796.723.004.007.004.015.009.021l11.143 15.966zM78.17 111.762c-.031-.035-.074-.053-.109-.082a.931.931 0 0 0-1.226.009.928.928 0 0 0-.291.812.911.911 0 0 0 .218.523l3.104 3.462 1.647 1.837 2.319 2.585 11.143-15.967c.004-.006.005-.014.009-.02-.592-.249-1.19-.49-1.797-.724l-9.54 13.671-5.477-6.106z"/><path fill="#232323" d="M90.775 101.329l-.298-.096c-1.425-.451-2.771-.877-4.27-5.141-.002-.007-.008-.011-.011-.018a.938.938 0 0 0-1.194-.561.945.945 0 0 0-.578 1.205c.07.199.141.383.211.568 1.268 3.359 2.569 4.602 4.037 5.282.398.185.809.331 1.233.466l.284.091c.234.076.461.16.693.238a61.996 61.996 0 0 1 4.101 1.556 55.76 55.76 0 0 1 4.527 2.15c.561.298 1.11.605 1.654.92 15.068 8.725 23.855 23.743 24.124 42.009h1.891c-.326-23.192-13.876-41.352-36.404-48.669zM47.759 107.996a57.058 57.058 0 0 1 1.652-.92 55.942 55.942 0 0 1 4.541-2.156 59.427 59.427 0 0 1 4.096-1.554c.237-.08.468-.166.707-.243l.281-.09c.404-.127.794-.264 1.173-.435 1.492-.673 2.812-1.902 4.097-5.307.071-.188.142-.371.212-.572a.944.944 0 0 0-1.775-.642c-.002.006-.007.009-.009.015-1.498 4.266-2.842 4.688-4.266 5.137l-.297.095C35.638 108.639 22.084 126.801 21.756 150h1.891c.268-18.262 9.05-33.278 24.112-42.004z"/></svg>