<svg baseProfile="tiny" xmlns="http://www.w3.org/2000/svg" width="50.172" height="342.688" viewBox="0 0 50.172 342.688"><path fill="#B94131" d="M15.147 324.012l10.888-10.888 10.887 10.888-3.162 3.164-7.725-7.726-7.726 7.726zM15.147 286.741l10.888-10.887 10.887 10.887-3.162 3.163-7.725-7.724-7.726 7.724zM15.147 249.471l10.888-10.89 10.887 10.89-3.162 3.162-7.725-7.726-7.726 7.726zM15.147 212.198l10.888-10.887 10.887 10.887-3.162 3.163-7.725-7.724-7.726 7.724zM15.147 174.927l10.888-10.888 10.887 10.888-3.162 3.164-7.725-7.726-7.726 7.726zM15.147 137.656l10.888-10.887 10.887 10.887-3.162 3.163-7.725-7.724-7.726 7.724zM15.147 100.385l10.888-10.887 10.887 10.887-3.162 3.164-7.725-7.726-7.726 7.726zM15.147 63.113l10.888-10.887 10.887 10.887-3.162 3.163-7.725-7.724-7.726 7.724zM15.147 25.842l10.888-10.887 10.887 10.887-3.162 3.164-7.725-7.726-7.726 7.726z"/></svg>