<svg baseProfile="tiny" xmlns="http://www.w3.org/2000/svg" width="445.5" height="40" viewBox="0 0 445.5 40"><path fill="#61E0DC" d="M432.793 31.247l-10.887-10.888 10.887-10.888 3.164 3.163-7.727 7.725 7.727 7.726zM395.521 31.247l-10.886-10.888 10.886-10.888 3.165 3.163-7.726 7.725 7.726 7.726zM358.251 31.247l-10.888-10.888 10.888-10.888 3.164 3.163-7.726 7.725 7.726 7.726zM320.98 31.247l-10.887-10.888L320.98 9.471l3.165 3.163-7.727 7.725 7.727 7.726zM283.708 31.247l-10.887-10.888 10.887-10.888 3.164 3.163-7.726 7.725 7.726 7.726zM246.438 31.247L235.55 20.359l10.888-10.888 3.164 3.163-7.727 7.725 7.727 7.726zM205.793 31.247l-10.888-10.888 10.888-10.888 3.164 3.163-7.726 7.725 7.726 7.726zM168.522 31.247l-10.887-10.888 10.887-10.888 3.164 3.163-7.726 7.725 7.726 7.726zM131.251 31.247l-10.888-10.888 10.888-10.888 3.164 3.163-7.727 7.725 7.727 7.726zM93.98 31.247L83.093 20.359 93.98 9.471l3.164 3.163-7.725 7.725 7.725 7.726zM56.708 31.247L45.82 20.359 56.708 9.471l3.164 3.163-7.726 7.725 7.726 7.726zM19.438 31.247L8.55 20.359 19.438 9.471l3.163 3.163-7.725 7.725 7.725 7.726z"/></svg>