<svg baseProfile="tiny" xmlns="http://www.w3.org/2000/svg" width="445.5" height="40" viewBox="0 0 445.5 40"><path fill="#61E0DC" d="M11.714 9.471l10.887 10.888-10.887 10.888-3.164-3.163 7.726-7.725-7.726-7.726zM48.985 9.471l10.887 10.888-10.887 10.888-3.164-3.163 7.726-7.725-7.726-7.726zM86.256 9.471l10.887 10.888-10.887 10.888-3.164-3.163 7.726-7.725-7.726-7.726zM123.527 9.471l10.887 10.888-10.887 10.888-3.164-3.163 7.726-7.725-7.726-7.726zM160.799 9.471l10.887 10.888-10.887 10.888-3.164-3.163 7.726-7.725-7.726-7.726zM198.07 9.471l10.887 10.888-10.887 10.888-3.164-3.163 7.726-7.725-7.726-7.726zM238.714 9.471l10.888 10.888-10.888 10.888-3.164-3.163 7.725-7.725-7.725-7.726zM275.984 9.471l10.888 10.888-10.888 10.888-3.163-3.163 7.726-7.725-7.726-7.726zM313.256 9.471l10.888 10.888-10.888 10.888-3.164-3.163 7.726-7.725-7.726-7.726zM350.526 9.471l10.888 10.888-10.888 10.888-3.163-3.163 7.725-7.725-7.725-7.726zM387.799 9.471l10.888 10.888-10.888 10.888-3.164-3.163 7.725-7.725-7.725-7.726zM425.069 9.471l10.888 10.888-10.888 10.888-3.163-3.163 7.725-7.725-7.725-7.726z"/></svg>