<svg baseProfile="tiny" xmlns="http://www.w3.org/2000/svg" width="440.5" height="41" viewBox="0 0 440.5 41"><path fill="#54BCBC" d="M11.46 12.801h15.397l.001 15.397-4.473.001V17.273H11.459zM61.46 12.801h15.397l.001 15.397-4.473.001V17.273H61.459zM111.46 12.801h15.397l.001 15.397-4.473.001V17.273h-10.926zM161.46 12.801h15.397l.001 15.397-4.473.001V17.273h-10.926zM211.46 12.801h15.397v15.397l-4.472.001V17.273h-10.926zM261.46 12.801h15.397v15.397l-4.472.001V17.273h-10.926zM311.46 12.801h15.397v15.397l-4.472.001V17.273h-10.926zM361.46 12.801h15.397v15.397l-4.472.001V17.273h-10.926zM411.46 12.801h15.397v15.397l-4.472.001V17.273h-10.926z"/></svg>