<svg baseProfile="tiny" xmlns="http://www.w3.org/2000/svg" width="218.637" height="36.273" viewBox="0 0 218.637 36.273"><path fill="#54BCBC" d="M205.123 29.299l-10.888-10.887 10.888-10.889 3.164 3.163-7.726 7.726 7.726 7.724zM167.852 29.299l-10.888-10.887 10.888-10.889 3.163 3.163-7.724 7.726 7.724 7.724zM130.581 29.299l-10.888-10.887 10.888-10.889 3.164 3.163-7.726 7.726 7.726 7.724zM93.31 29.299L82.422 18.412 93.31 7.523l3.163 3.163-7.724 7.726 7.724 7.724zM56.038 29.299L45.15 18.412 56.038 7.523l3.164 3.163-7.727 7.726 7.727 7.724zM18.767 29.299L7.879 18.412 18.767 7.523l3.163 3.163-7.724 7.726 7.724 7.724z"/></svg>