<svg xmlns="http://www.w3.org/2000/svg" width="400" height="400" viewBox="0 0 400 400"><circle fill="none" stroke="#61E0DC" stroke-width="5" stroke-miterlimit="10" cx="200.981" cy="198.833" r="169.157"/><path fill="#61E0DC" d="M196.711 129.931h6.722v136.098h-6.722z"/><path fill="#61E0DC" d="M181.087 179.982a29.933 29.933 0 0 1-14.94-4.018c-9.23-5.33-14.979-15.341-15.005-26.126l-.015-1.949 1.699-.972c9.217-5.284 20.975-5.342 30.126-.052 9.228 5.323 14.979 15.333 15.018 26.119l.013 1.956-1.7.972a30.535 30.535 0 0 1-15.196 4.07m-23.145-28.154c.649 7.7 4.868 14.449 11.566 18.322 6.551 3.779 14.809 4.062 21.655.853-.65-7.707-4.876-14.455-11.574-18.321-6.537-3.763-14.781-4.057-21.647-.854M218.854 206.87c-5.3 0-10.557-1.405-15.198-4.071l-1.694-.971v-1.958c.041-10.783 5.797-20.793 15.021-26.118 9.163-5.285 20.913-5.232 30.129.052l1.693.971v1.95c-.032 10.785-5.789 20.795-15.02 26.125a29.864 29.864 0 0 1-14.931 4.02m-10.079-8.982c6.853 3.21 15.112 2.924 21.65-.852 6.695-3.873 10.923-10.621 11.566-18.322-6.854-3.196-15.099-2.907-21.647.854-6.698 3.867-10.918 10.615-11.569 18.32M286.482 294.598h-.018l-56.309-.248a3.366 3.366 0 0 1-3.342-3.361v-.329l-1.692-6.761h-42.71a3.444 3.444 0 0 1-1.535-.368l-53.938-27.595a3.379 3.379 0 0 1-1.518-1.577c-22.082-47.351-22.082-47.358-22.2-47.896-1.51-4.543-.29-9.788 3.263-13.333 5.061-5.067 13.923-5.074 19.009.007.427.425 1.438 1.431 19.359 36.287l28.541 5.08c-7.751-7.679-18.655-18.479-18.95-18.773-3.946-3.951-6.669-12.398-.506-18.918 4.483-4.732 12.379-5.225 17.769-1.333l35.416 25.431c7.673.242 20.783 1.365 29.709 5.921 19.522 9.952 51.163 60.48 52.502 62.619a3.345 3.345 0 0 1 .079 3.415 3.338 3.338 0 0 1-2.929 1.732m-53.499-6.958l47.33.21c-8.631-13.207-32.085-47.671-46.534-55.032-8.462-4.312-22.3-5.086-27.852-5.218a3.363 3.363 0 0 1-1.884-.632l-36.269-26.033c-1.292-.938-2.842-1.45-4.385-1.45-1.24 0-3.045.34-4.567 1.949-4.261 4.504.301 9.473.347 9.525.145.138 26.62 26.354 26.62 26.354a3.382 3.382 0 0 1 .617 3.943c-.683 1.3-2.128 1.994-3.573 1.76l-40.79-7.266a3.344 3.344 0 0 1-2.403-1.771c-6.722-13.077-17.867-34.522-19.168-36.399-2.015-1.936-6.702-2.229-9.236.308-1.751 1.747-2.343 4.366-1.529 6.834.407.893 15.085 32.382 21.322 45.75l52.193 26.702h44.523a3.37 3.37 0 0 1 3.271 2.548l1.967 7.918zM197.866 121.83c-3.815-.421-6.637-1.602-9.132-3.343-1.175-1.226-1.175-3.293-.334-4.424.71-.944 2.494-1.694 4.096-.518 1.228.846 3.257 1.648 5.371 2.067v-9.505c-5.371-1.181-10.78-2.874-9.933-10.312.466-5.318 4.989-7.909 9.933-8.665v-.749c0-4.195 5.315-4.195 5.315 0v1.13c2.076.374 4.149.893 5.844 2.114 3.342 2.403 0 7.017-2.967 4.896-.801-.329-1.602-.748-2.877-1.128v8.571c4.951 1.269 9.842 3.388 9.842 9.459 0 5.837-4.38 9.184-9.842 9.985v1.175c0 4.188-5.315 4.188-5.315 0v-.753zm0-28.858c-2.494.421-4.143 1.549-4.143 4.043 0 2.074 1.649 2.967 4.143 3.768v-7.811zm5.316 22.64c2.076-.846 3.769-2.067 3.769-4.561-.421-1.604-1.692-2.829-3.769-3.296v7.857z"/><path fill="#61E0DC" d="M200.071 134.727c-16.672 0-30.249-13.566-30.249-30.248 0-16.679 13.577-30.248 30.249-30.248 16.686 0 30.25 13.569 30.25 30.248-.001 16.681-13.564 30.248-30.25 30.248m0-53.774c-12.97 0-23.524 10.555-23.524 23.526s10.555 23.527 23.524 23.527c12.97 0 23.528-10.556 23.528-23.527s-10.558-23.526-23.528-23.526"/></svg>