<svg xmlns="http://www.w3.org/2000/svg" width="400" height="400" viewBox="0 0 400 400"><path fill="#FFF" d="M163.379 289.769c6.534 6.539 17.131 6.539 23.658 0-6.527 6.539-6.527 17.126 0 23.663 6.54 6.529 17.132 6.529 23.664 0l63.589-63.588c26.03-26.03 26.03-68.616 0-94.644-26.028-26.031-68.619-26.031-94.644 0l-63.59 63.588c-6.532 6.526-6.532 17.125 0 23.664 6.533 6.527 17.126 6.527 23.658 0-6.532 6.527-6.532 17.124 0 23.653 6.533 6.537 17.132 6.537 23.665 0-6.532 6.538-6.532 17.136 0 23.664"/><path fill="#22546C" d="M198.87 324.15a22.418 22.418 0 0 1-15.944-6.596c-4.685-4.691-6.867-10.939-6.56-17.093-6.483.326-12.572-2.046-17.104-6.577-4.258-4.252-6.606-9.914-6.606-15.942 0-.381.012-.763.03-1.137-6.306.222-12.56-2.053-17.087-6.584a22.39 22.39 0 0 1-6.606-15.944c0-.381.011-.76.027-1.136-6.294.284-12.554-2.042-17.08-6.573-4.258-4.265-6.606-9.928-6.606-15.954a22.384 22.384 0 0 1 6.606-15.942l63.59-63.588c13.686-13.692 31.954-21.225 51.439-21.225 19.479 0 37.752 7.533 51.438 21.225 28.366 28.36 28.366 74.516 0 102.876l-63.589 63.589c-4.258 4.26-9.921 6.601-15.948 6.601m-6.01-34.388a5.824 5.824 0 0 1-1.7 4.118c-4.253 4.258-4.253 11.184 0 15.441 4.104 4.112 11.309 4.105 15.426-.006l63.589-63.588c23.823-23.823 23.823-62.588 0-86.412-11.491-11.491-26.837-17.813-43.206-17.813-16.376 0-31.721 6.323-43.207 17.813l-63.588 63.588a10.832 10.832 0 0 0-3.194 7.71c0 2.917 1.135 5.657 3.194 7.722 4.123 4.121 11.315 4.109 15.425 0a5.82 5.82 0 0 1 9.939 4.116 5.797 5.797 0 0 1-1.705 4.116 10.842 10.842 0 0 0-3.196 7.709c0 2.911 1.138 5.653 3.196 7.712 4.126 4.126 11.303 4.126 15.43 0a5.816 5.816 0 0 1 8.232 0 5.777 5.777 0 0 1 1.707 4.116 5.803 5.803 0 0 1-1.707 4.116 10.865 10.865 0 0 0-3.194 7.721c0 2.911 1.137 5.651 3.194 7.71 4.128 4.123 11.311 4.128 15.421.007a5.819 5.819 0 0 1 8.232-.013 5.79 5.79 0 0 1 1.712 4.117"/><path fill="#FFF" d="M280.091 290.962c6.532-6.526 6.532-17.124 0-23.651 6.532 6.527 17.125 6.527 23.663 0 6.527-6.538 6.527-17.138 0-23.664l-78.155-78.157c-26.029-26.029-68.616-26.029-94.644 0-26.03 26.03-26.03 68.626 0 94.645l78.149 78.155c6.533 6.539 17.131 6.539 23.664 0 6.533-6.537 6.533-17.126 0-23.663 6.533 6.537 17.126 6.537 23.658 0 6.533-6.527 6.533-17.125 0-23.665 6.533 6.54 17.131 6.54 23.665 0"/><path fill="#22546C" d="M220.936 349.02a22.386 22.386 0 0 1-15.948-6.613l-78.15-78.155c-13.691-13.68-21.226-31.948-21.226-51.433s7.535-37.76 21.226-51.445c13.685-13.692 31.954-21.224 51.438-21.224 19.485 0 37.753 7.532 51.439 21.224l78.155 78.156c8.785 8.784 8.79 23.095.007 31.892-4.544 4.537-10.752 6.863-17.092 6.579.017.374.028.756.028 1.137 0 6.027-2.348 11.689-6.606 15.941-4.527 4.533-10.82 6.812-17.086 6.585.018.377.027.757.027 1.137 0 6.027-2.347 11.689-6.605 15.943-4.531 4.532-10.684 6.964-17.098 6.578.308 6.152-1.876 12.401-6.561 17.085a22.384 22.384 0 0 1-15.948 6.613m-42.66-197.227c-16.374 0-31.714 6.322-43.206 17.814-11.49 11.49-17.812 26.836-17.812 43.211s6.322 31.714 17.812 43.2l78.15 78.155c4.128 4.129 11.304 4.129 15.432 0 4.247-4.252 4.247-11.179 0-15.431a5.803 5.803 0 0 1-1.705-4.116 5.822 5.822 0 0 1 9.938-4.118c4.133 4.128 11.304 4.128 15.425 0a10.831 10.831 0 0 0 3.195-7.709 10.87 10.87 0 0 0-3.195-7.722 5.803 5.803 0 0 1-1.707-4.116c0-1.495.57-2.984 1.707-4.115a5.82 5.82 0 0 1 8.233 0c4.128 4.127 11.304 4.127 15.432 0a10.847 10.847 0 0 0 3.195-7.71c0-2.911-1.139-5.651-3.195-7.709a5.793 5.793 0 0 1-1.706-4.117c0-1.489.567-2.979 1.706-4.115a5.818 5.818 0 0 1 8.232 0c4.116 4.115 11.31 4.121 15.438-.008 4.24-4.253 4.24-11.172-.007-15.425l-78.155-78.155c-11.492-11.492-26.832-17.814-43.207-17.814"/><path fill="#FFF" d="M197.813 319.812l-.365.363c-6.481 6.482-17.041 6.55-23.59 0-6.556-6.55-6.556-17.182-.074-23.652-6.482 6.471-17.034 6.551-23.59 0-6.55-6.562-6.55-17.183-.074-23.665-6.476 6.482-17.033 6.551-23.583 0-6.556-6.561-6.556-17.181-.075-23.663-6.481 6.482-17.035 6.549-23.59 0-6.55-6.551-6.55-17.183-.074-23.663l.364-.365c6.556-6.55 17.183-6.55 23.737 0 6.551 6.55 6.477 17.115-.073 23.664 6.55-6.549 17.182-6.549 23.731 0 6.557 6.551 6.483 17.104-.067 23.664 6.55-6.561 17.181-6.561 23.732 0 6.55 6.55 6.481 17.103-.075 23.653 6.556-6.551 17.183-6.551 23.739 0 6.55 6.561 6.476 17.115-.073 23.664"/><path fill="#22546C" d="M185.645 330.887c-6.005 0-11.651-2.341-15.903-6.595-4.277-4.276-6.635-9.961-6.629-16.017 0-.357.006-.716.022-1.073-6.339.289-12.525-2.034-17.056-6.562-4.69-4.694-6.893-10.956-6.603-17.103-6.338.308-12.531-2.035-17.058-6.561-4.695-4.697-6.894-10.958-6.605-17.104-6.426.355-12.531-2.034-17.057-6.561-8.813-8.812-8.848-23.118-.074-31.896 9.262-9.263 23.788-8.912 32.333-.365 4.674 4.674 6.851 10.922 6.529 17.074 6.294-.283 12.586 2.041 17.13 6.59 4.673 4.668 6.851 10.918 6.527 17.068 6.482-.353 12.599 2.058 17.143 6.602 4.263 4.265 6.601 9.933 6.578 15.96 0 .369-.012.734-.034 1.097 6.442-.272 12.582 2.055 17.113 6.589 8.768 8.786 8.733 23.09-.072 31.898-4.617 4.618-10.269 6.959-16.284 6.959m-7.499-30.503c-.079.09-.166.177-.25.263-2.024 2.018-3.14 4.729-3.14 7.634a10.909 10.909 0 0 0 3.218 7.779c4.118 4.122 11.27 4.104 15.358 0 4.632-4.634 4.668-11.56.432-15.801-4.128-4.128-11.36-4.145-15.5.006l-.118.119m-23.762-23.562c-.044.051-.096.103-.147.154-4.224 4.229-4.191 11.155.079 15.436 4.105 4.094 11.252 4.077 15.359-.011.033-.04.072-.075.112-.113.08-.085.159-.177.245-.258 2.081-2.08 3.235-4.826 3.246-7.73a10.734 10.734 0 0 0-3.171-7.688c-4.139-4.149-11.366-4.144-15.494-.005-.076.074-.15.147-.229.215m-23.629-23.698c-.057.062-.113.126-.176.188-4.231 4.232-4.195 11.155.073 15.431 4.111 4.111 11.252 4.1 15.352 0 .068-.073.147-.143.222-.209.046-.052.098-.104.142-.148 4.276-4.282 4.31-11.206.074-15.438-4.139-4.139-11.36-4.139-15.499 0-.063.063-.127.119-.188.176m-15.721-27.047a10.876 10.876 0 0 0-7.754 3.208c-4.595 4.599-4.56 11.52-.29 15.794 4.116 4.123 11.261 4.1 15.356 0 .063-.062.124-.121.187-.176.057-.063.115-.126.177-.188 4.276-4.275 4.311-11.194.074-15.43a10.883 10.883 0 0 0-7.75-3.208"/><path fill="#FFF" d="M270.163 172.346l7.471-7.425c-7.369-12.167-17.87-22.947-37.537-27.45-26.955-6.164-55.145 3.184-74.699 22.743l-27.479 27.474c-5.708 5.708-6.021 14.852-.716 20.934 6.192 7.108 17.108 7.461 23.75.787l21.439-21.643c7.648-7.686 19.208-10.506 29.243-6.401 15.055 6.163 38.827 10.689 58.528-9.019"/><path fill="#22546C" d="M149.443 220.017a22.07 22.07 0 0 1-16.629-7.567c-7.285-8.352-6.853-21.038.989-28.878l27.479-27.474c21.198-21.202 52.223-30.698 80.113-24.301 23.919 5.475 34.978 19.804 41.221 30.111a5.818 5.818 0 0 1-.875 7.142l-7.471 7.426c-10.593 10.598-23.346 15.976-37.884 15.976-8.648 0-17.718-1.916-26.957-5.697-7.516-3.065-16.875-.938-22.909 5.117l-21.434 21.634c-4.18 4.197-9.728 6.511-15.643 6.511m73.932-78.606c-19.667 0-39.3 8.353-53.86 22.919l-27.48 27.474c-3.525 3.524-3.724 9.233-.443 12.991 3.811 4.379 11.14 4.611 15.232.508l21.436-21.635c9.285-9.331 23.783-12.508 35.581-7.693 20.305 8.314 38.617 5.851 52.207-7.744l4.145-4.116c-5.713-8.279-14.63-17.131-31.396-20.968a69.366 69.366 0 0 0-15.422-1.736"/><path fill="#FFF" d="M352.157 168.981l-87.361-87.366-43.685 43.677 87.368 87.366z"/><path fill="#22546C" d="M308.479 220.894l-95.601-95.602 51.917-51.911 95.596 95.6-51.912 51.913zm-79.133-95.602l79.134 79.134 35.443-35.445-79.127-79.134-35.45 35.445z"/><path fill="#67DDE0" d="M286.636 59.766l87.366 87.366-43.677 43.677-87.366-87.366z"/><path fill="#22546C" d="M330.323 199.048l-95.599-95.602 51.91-51.91 95.599 95.6-51.91 51.912zm-79.134-95.601l79.134 79.134 35.445-35.444-79.134-79.134-35.445 35.444z"/><path fill="#FFF" d="M133.881 81.058l-87.367 87.366 43.685 43.68 87.36-87.37z"/><path fill="#22546C" d="M90.199 220.334l-51.916-51.91 95.6-95.6 51.91 51.91-95.594 95.6zm-35.451-51.91l35.451 35.444 79.128-79.134-35.445-35.444-79.134 79.134z"/><path fill="#67DDE0" d="M112.037 59.212L24.67 146.579l43.684 43.679 87.367-87.368z"/><path fill="#22546C" d="M68.354 198.489l-51.917-51.91 95.6-95.599 51.915 51.91-95.598 95.599zm-35.451-51.91l35.452 35.445 79.133-79.134-35.45-35.445-79.135 79.134zM232.768 320.449a5.804 5.804 0 0 1-4.116-1.706l-13.134-13.123a5.82 5.82 0 0 1 0-8.232 5.82 5.82 0 0 1 8.232 0l13.135 13.121a5.824 5.824 0 0 1-4.117 9.94M256.426 296.784a5.8 5.8 0 0 1-4.116-1.706l-13.128-13.121a5.821 5.821 0 0 1 8.232-8.232l13.129 13.121a5.821 5.821 0 0 1-4.117 9.938M280.227 272.984a5.8 5.8 0 0 1-4.116-1.706l-13.129-13.123a5.821 5.821 0 0 1 8.233-8.232l13.128 13.123a5.82 5.82 0 0 1 0 8.232 5.8 5.8 0 0 1-4.116 1.706"/></svg>