<svg baseProfile="tiny" xmlns="http://www.w3.org/2000/svg" width="50.172" height="342.688" viewBox="0 0 50.172 342.688"><path fill="#B94131" d="M36.922 18.119L26.035 29.007 15.147 18.119l3.162-3.164 7.726 7.726 7.725-7.726zM36.922 55.39L26.035 66.277 15.147 55.39l3.162-3.163 7.726 7.724 7.725-7.724zM36.922 92.66l-10.887 10.89-10.888-10.89 3.162-3.162 7.726 7.726 7.725-7.726zM36.922 129.933L26.035 140.82l-10.888-10.887 3.162-3.163 7.726 7.724 7.725-7.724zM36.922 167.204l-10.887 10.888-10.888-10.888 3.162-3.164 7.726 7.726 7.725-7.726zM36.922 204.475l-10.887 10.887-10.888-10.887 3.162-3.163 7.726 7.724 7.725-7.724zM36.922 241.746l-10.887 10.887-10.888-10.887 3.162-3.164 7.726 7.726 7.725-7.726zM36.922 279.018l-10.887 10.887-10.888-10.887 3.162-3.164 7.726 7.725 7.725-7.725zM36.922 316.289l-10.887 10.887-10.888-10.887 3.162-3.164 7.726 7.726 7.725-7.726z"/></svg>