<svg baseProfile="tiny" xmlns="http://www.w3.org/2000/svg" width="218.637" height="36.273" viewBox="0 0 218.637 36.273"><path fill="#54BCBC" d="M11.043 7.523l10.888 10.888-10.888 10.888-3.164-3.162 7.726-7.726-7.726-7.724zM48.314 7.523l10.888 10.888-10.888 10.888-3.163-3.162 7.724-7.726-7.724-7.724zM85.585 7.523l10.888 10.888-10.888 10.888-3.164-3.162 7.726-7.726-7.726-7.724zM122.856 7.523l10.888 10.888-10.888 10.888-3.163-3.162 7.724-7.726-7.724-7.724zM160.128 7.523l10.888 10.888-10.888 10.888-3.164-3.162 7.727-7.726-7.727-7.724zM197.399 7.523l10.888 10.888-10.888 10.888-3.163-3.162 7.724-7.726-7.724-7.724z"/></svg>