<svg baseProfile="tiny" xmlns="http://www.w3.org/2000/svg" width="1248.882" height="403.903" viewBox="0 0 1248.882 403.903"><path fill="#F5AD2F" d="M0 0h1248.882v403.903H0z"/><path fill="none" stroke="#F47231" stroke-width="2.779" stroke-linecap="round" stroke-linejoin="round" stroke-miterlimit="10" d="M646.657 245.587a8.372 8.372 0 0 0-8.446-8.117c-.107.001-.213.007-.318.012a11.485 11.485 0 0 0-9.8-5.489c-5.099 0-9.419 3.319-10.925 7.914a5.686 5.686 0 0 0-5.513 5.681h35.002zM81.022 233.433a8.248 8.248 0 0 0-6.828-3.497c-.104.002-.208.008-.313.012a11.333 11.333 0 0 0-9.674-5.417c-5.031 0-9.299 3.276-10.783 7.812a5.608 5.608 0 0 0-5.441 5.605h29.483"/><path fill="none" stroke="#F47231" stroke-width="2.779" stroke-linecap="round" stroke-linejoin="round" stroke-miterlimit="10" d="M100.375 243.636a6.612 6.612 0 0 0-6.921-6.403 9.08 9.08 0 0 0-16.369 1.916 4.49 4.49 0 0 0-4.354 4.487h27.644zM1171.062 200.052a8.25 8.25 0 0 0-6.829-3.496c-.104.001-.208.007-.312.012a11.337 11.337 0 0 0-9.675-5.418c-5.032 0-9.299 3.277-10.783 7.812a5.61 5.61 0 0 0-5.441 5.606h29.483"/><path fill="none" stroke="#F47231" stroke-width="2.779" stroke-linecap="round" stroke-linejoin="round" stroke-miterlimit="10" d="M1190.413 210.255a6.61 6.61 0 0 0-6.672-6.411c-.083.002-.166.004-.248.009a9.08 9.08 0 0 0-16.369 1.917 4.49 4.49 0 0 0-4.355 4.486h27.644zM1007.483 50.532c13.729 0 26.121 5.723 34.92 14.913M965.616 74.704c6.723-11.646 17.56-19.436 29.614-22.594M965.616 123.047c-6.554-11.349-7.981-24.252-5.002-36.027M1007.483 147.219c-12.898 0-24.616-5.05-33.284-13.282M1049.35 123.047c-6.27 10.86-16.117 18.366-27.192 21.892M1049.35 74.704c6.537 11.32 7.973 24.187 5.024 35.937M1031.87 74.488c6.926 6.927 10.29 16.065 10.094 25.14M998.557 65.562c9.267-2.482 18.663-.945 26.339 3.543M974.17 89.949c2.421-9.03 8.21-16.26 15.651-20.696M983.097 123.263c-6.506-6.505-9.87-14.964-10.09-23.489M1016.409 132.189a34.37 34.37 0 0 1-24.76-2.674M1040.796 107.802c-2.413 9.008-8.179 16.223-15.594 20.662M1027.381 90.688a21.41 21.41 0 0 1 .96 13.476M1010.345 77.551c4.97.667 9.315 2.98 12.56 6.317M990.447 85.738a21.417 21.417 0 0 1 10.785-7.45M987.591 107.061a21.414 21.414 0 0 1-1.134-12.74M1004.628 120.197a21.406 21.406 0 0 1-10.453-4.416M1024.523 112.011a21.413 21.413 0 0 1-9.644 7.07M378.454 248.801h64.669v85.267h-64.669z"/><path fill="none" stroke="#F47231" stroke-width="2.779" stroke-linecap="round" stroke-linejoin="round" stroke-miterlimit="10" d="M378.454 263.566h64.669v5.864h-64.669zM378.454 288.502h64.669v5.865h-64.669zM378.454 313.438h64.669v5.865h-64.669zM390.148 237.558h41.281v11.243h-41.281zM396.522 226.824h28.533v10.733h-28.533zM370.825 334.067h79.928v30.134h-79.928z"/><path fill="none" stroke="#F47231" stroke-width="2.779" stroke-linecap="round" stroke-linejoin="round" stroke-miterlimit="10" d="M378.454 341.366h12.318v22.835h-12.318zM430.806 341.366h12.318v22.835h-12.318zM404.63 341.366h12.317v22.835H404.63zM410.789 226.611v-13.413M390.314 248.803v84.587M431.262 248.803v84.587M403.964 248.803v84.587M417.613 248.803v84.587M288.955 247h42.587v14.545h-42.587zM274.996 261.545h70.505v102.658h-70.505zM319.05 240.063h-17.961l-3.573 6.936h25.466zM319.05 240.063h-17.602V228.44l8.801-9.62 8.801 9.62zM310.249 246.75v-34.792"/><path fill="none" stroke="#F47231" stroke-width="2.779" stroke-linecap="round" stroke-linejoin="round" stroke-miterlimit="10" d="M283.19 269.394h6.075v8.88h-6.075zM295.201 269.394h6.075v8.88h-6.075zM307.211 269.394h6.074v8.88h-6.074zM319.221 269.394h6.074v8.88h-6.074zM331.233 269.394h6.074v8.88h-6.074zM283.19 284.46h6.075v8.881h-6.075zM295.201 284.46h6.075v8.881h-6.075zM307.211 284.46h6.074v8.881h-6.074zM319.221 284.46h6.074v8.881h-6.074zM331.233 284.46h6.074v8.881h-6.074zM283.19 314.594h6.075v8.881h-6.075zM295.201 314.594h6.075v8.881h-6.075zM307.211 314.594h6.074v8.881h-6.074zM319.221 314.594h6.074v8.881h-6.074zM331.233 314.594h6.074v8.881h-6.074zM283.19 344.726h6.075v8.88h-6.075zM295.201 344.726h6.075v8.88h-6.075zM307.211 344.726h6.074v8.88h-6.074zM319.221 344.726h6.074v8.88h-6.074zM331.233 344.726h6.074v8.88h-6.074zM283.19 299.525h54.117M283.19 308.406h54.117M283.19 303.967h54.117M295.706 252.052h29.085M295.706 256.492h29.085M283.19 329.658h54.117M283.19 338.539h54.117M283.19 334.099h54.117M518.287 208.143c-7.418 0-13.692 2.701-15.751 6.413M518.287 208.143c7.419 0 13.693 2.701 15.75 6.413"/><path fill="none" stroke="#F47231" stroke-width="2.779" stroke-linecap="round" stroke-linejoin="round" stroke-miterlimit="10" d="M532.357 212.497c-2.891-2.61-8.11-4.355-14.07-4.355s-11.18 1.745-14.071 4.355v151.704h28.142V212.497z"/><path fill="none" stroke="#F47231" stroke-width="2.779" stroke-linecap="round" stroke-linejoin="round" stroke-miterlimit="10" d="M560.498 242.648V235.1c-19.167-2.518-28.141 9.312-28.141 9.312v119.791H560.498V242.648zM560.498 235.1l1.83.229M476.076 242.648V235.1c19.168-2.518 28.14 9.312 28.14 9.312v119.791h-28.141V242.648zM476.076 235.1l-1.83.229M508.735 228.258h3.815v11.885h-3.815zM516.379 228.258h3.815v11.886h-3.815zM524.023 228.258h3.816v11.886h-3.816zM508.735 248.463h3.815v11.886h-3.815zM516.379 248.463h3.815v11.886h-3.815zM524.023 248.463h3.816v11.886h-3.816zM489.986 245.074v114.058M513.515 267.729v91.404M523.059 267.729v91.404M547.444 245.074v114.058M507.363 273.59h2.607M516.855 273.59h2.607M526.346 273.59h2.607M507.363 284.995h2.607M516.855 284.995h2.607M526.346 284.995h2.607M507.363 296.4h2.607M516.855 296.4h2.607M526.346 296.4h2.607M507.363 307.807h2.607M516.855 307.807h2.607M526.346 307.807h2.607M507.363 319.212h2.607M516.855 319.212h2.607M526.346 319.212h2.607M507.363 330.618h2.607M516.855 330.618h2.607M526.346 330.618h2.607M507.363 342.022h2.607M516.855 342.022h2.607M526.346 342.022h2.607M507.363 353.431h2.607M516.855 353.431h2.607M526.346 353.431h2.607M483.834 250.777h2.608M493.326 250.777h2.607M483.834 262.183h2.608M493.326 262.183h2.607M483.834 273.59h2.608M493.326 273.59h2.607M483.834 284.995h2.608M493.326 284.995h2.607M483.834 296.4h2.608M493.326 296.4h2.607M483.834 307.807h2.608M493.326 307.807h2.607M483.834 319.212h2.608M493.326 319.212h2.607M483.834 330.618h2.608M493.326 330.618h2.607M483.834 342.022h2.608M493.326 342.022h2.607M483.834 353.431h2.608M493.326 353.431h2.607M541.293 250.777h2.608M550.785 250.777h2.607M541.293 262.183h2.608M550.785 262.183h2.607M541.293 273.59h2.608M550.785 273.59h2.607M541.293 284.995h2.608M550.785 284.995h2.607M541.293 296.4h2.608M550.785 296.4h2.607M541.293 307.807h2.608M550.785 307.807h2.607M541.293 319.212h2.608M550.785 319.212h2.607M541.293 330.618h2.608M550.785 330.618h2.607M541.293 342.022h2.608M550.785 342.022h2.607M541.293 353.431h2.608M550.785 353.431h2.607M504.275 220.452h27.824M190.851 322.327c-3.173 8.769-11.575 15.033-21.438 15.033-12.588 0-22.793-10.204-22.793-22.792 0-12.589 10.205-22.791 22.793-22.791a22.734 22.734 0 0 1 16.538 7.105M169.414 301.561v62.641"/><path fill="none" stroke="#F47231" stroke-width="2.779" stroke-linecap="round" stroke-linejoin="round" stroke-miterlimit="10" d="M182.608 314.212l-13.129 13.129-13.129-13.129M175.293 305.784l-5.814 5.816-5.814-5.816"/><circle fill="none" stroke="#F47231" stroke-width="2.779" stroke-linecap="round" stroke-linejoin="round" stroke-miterlimit="10" cx="217.602" cy="304.388" r="31.927"/><path fill="none" stroke="#F47231" stroke-width="2.779" stroke-linecap="round" stroke-linejoin="round" stroke-miterlimit="10" d="M217.602 282.246v81.957M193.726 301.641l23.81 23.808 23.809-23.808"/><path fill="none" stroke="#F47231" stroke-width="2.779" stroke-linecap="round" stroke-linejoin="round" stroke-miterlimit="10" d="M204.407 294.896l13.129 13.128 13.129-13.128M211.722 286.469l5.814 5.814 5.814-5.814M0 364.202h1248.882"/><path fill="#F47231" d="M998.372 364.945h-35.565c-.636 0-1.15-.518-1.15-1.151v-88.616a1.15 1.15 0 0 1 2.301 0v87.466h33.263v-87.466a1.15 1.15 0 1 1 2.301 0v88.616c0 .634-.515 1.151-1.15 1.151"/><path fill="#F47231" d="M1020.936 364.945h-22.563a1.151 1.151 0 0 1-1.151-1.151v-88.636c0-.347.157-.676.428-.896l11.415-9.208a1.147 1.147 0 0 1 1.455.007l11.149 9.21c.265.219.418.545.418.888v88.636a1.153 1.153 0 0 1-1.151 1.15m-21.414-2.301h20.262v-86.942l-10.006-8.267-10.256 8.274v86.935z"/><path fill="#F47231" d="M962.807 276.314a1.152 1.152 0 0 1-.719-2.05l11.551-9.216c.205-.162.456-.251.718-.251h35.431c.485 0 .922.308 1.083.769.164.459.019.972-.361 1.279l-11.415 9.208a1.145 1.145 0 0 1-.722.256l-35.566.005zm11.952-9.214l-8.658 6.908h31.863l8.562-6.908h-31.767zM1014.685 291.208h-9.033a1.151 1.151 0 0 1-1.152-1.15v-9.796c0-.633.516-1.15 1.152-1.15h9.033c.636 0 1.151.518 1.151 1.15v9.796c0 .634-.516 1.15-1.151 1.15m-7.883-2.302h6.733v-7.491h-6.733v7.491zM1014.685 307.503h-9.033a1.151 1.151 0 0 1-1.152-1.151v-9.79a1.15 1.15 0 0 1 1.152-1.151h9.033a1.15 1.15 0 0 1 1.151 1.151v9.79c0 .635-.516 1.151-1.151 1.151m-7.883-2.303h6.733v-7.488h-6.733v7.488zM1014.685 323.802h-9.033a1.152 1.152 0 0 1-1.152-1.15v-9.795c0-.635.516-1.151 1.152-1.151h9.033c.636 0 1.151.517 1.151 1.151v9.795c0 .633-.516 1.15-1.151 1.15m-7.883-2.302h6.733v-7.49h-6.733v7.49zM1014.685 340.096h-9.033a1.15 1.15 0 0 1-1.152-1.15v-9.79a1.15 1.15 0 0 1 1.152-1.151h9.033a1.15 1.15 0 0 1 1.151 1.151v9.79c0 .635-.516 1.15-1.151 1.15m-7.883-2.302h6.733v-7.489h-6.733v7.489zM1014.685 356.395h-9.033a1.151 1.151 0 0 1-1.152-1.151v-9.794c0-.634.516-1.151 1.152-1.151h9.033c.636 0 1.151.518 1.151 1.151v9.794c0 .635-.516 1.151-1.151 1.151m-7.883-2.302h6.733v-7.49h-6.733v7.49zM992.845 291.208h-9.035a1.15 1.15 0 0 1-1.15-1.15v-9.796c0-.633.516-1.15 1.15-1.15h9.035c.634 0 1.15.518 1.15 1.15v9.796c0 .634-.516 1.15-1.15 1.15m-7.884-2.302h6.731v-7.491h-6.731v7.491zM992.845 307.503h-9.035c-.635 0-1.15-.516-1.15-1.151v-9.79a1.15 1.15 0 0 1 1.15-1.151h9.035c.634 0 1.15.515 1.15 1.151v9.79c0 .635-.516 1.151-1.15 1.151m-7.884-2.303h6.731v-7.488h-6.731v7.488zM992.845 323.802h-9.035c-.635 0-1.15-.517-1.15-1.15v-9.795c0-.635.516-1.151 1.15-1.151h9.035c.634 0 1.15.517 1.15 1.151v9.795c0 .633-.516 1.15-1.15 1.15m-7.884-2.302h6.731v-7.49h-6.731v7.49zM992.845 340.096h-9.035a1.15 1.15 0 0 1-1.15-1.15v-9.79a1.15 1.15 0 0 1 1.15-1.151h9.035c.634 0 1.15.515 1.15 1.151v9.79a1.15 1.15 0 0 1-1.15 1.15m-7.884-2.302h6.731v-7.489h-6.731v7.489zM992.845 356.395h-9.035c-.635 0-1.15-.516-1.15-1.151v-9.794c0-.634.516-1.151 1.15-1.151h9.035c.634 0 1.15.518 1.15 1.151v9.794c0 .635-.516 1.151-1.15 1.151m-7.884-2.302h6.731v-7.49h-6.731v7.49zM977.109 291.208h-9.034a1.152 1.152 0 0 1-1.151-1.15v-9.796c0-.633.517-1.15 1.151-1.15h9.034c.635 0 1.151.518 1.151 1.15v9.796a1.151 1.151 0 0 1-1.151 1.15m-7.883-2.302h6.732v-7.491h-6.732v7.491zM977.109 307.503h-9.034a1.152 1.152 0 0 1-1.151-1.151v-9.79c0-.637.517-1.151 1.151-1.151h9.034c.635 0 1.151.515 1.151 1.151v9.79a1.151 1.151 0 0 1-1.151 1.151m-7.883-2.303h6.732v-7.488h-6.732v7.488zM977.109 323.802h-9.034a1.152 1.152 0 0 1-1.151-1.15v-9.795c0-.635.517-1.151 1.151-1.151h9.034c.635 0 1.151.517 1.151 1.151v9.795a1.152 1.152 0 0 1-1.151 1.15m-7.883-2.302h6.732v-7.49h-6.732v7.49zM977.109 340.096h-9.034a1.151 1.151 0 0 1-1.151-1.15v-9.79c0-.637.517-1.151 1.151-1.151h9.034c.635 0 1.151.515 1.151 1.151v9.79a1.15 1.15 0 0 1-1.151 1.15m-7.883-2.302h6.732v-7.489h-6.732v7.489zM977.109 356.395h-9.034a1.152 1.152 0 0 1-1.151-1.151v-9.794c0-.634.517-1.151 1.151-1.151h9.034c.635 0 1.151.518 1.151 1.151v9.794a1.151 1.151 0 0 1-1.151 1.151m-7.883-2.302h6.732v-7.49h-6.732v7.49zM1095.82 296.261a1.43 1.43 0 0 1-1.431-1.431v-53.251h-15.049v52.804a1.429 1.429 0 1 1-2.859 0V240.15c0-.791.64-1.43 1.43-1.43h17.908c.789 0 1.43.639 1.43 1.43v54.681c.001.791-.64 1.43-1.429 1.43"/><path fill="#F47231" d="M1077.912 296.261c-.791 0-1.43-.639-1.43-1.431v-53.251h-25.366v53.251a1.43 1.43 0 1 1-2.861 0v-54.681c0-.791.642-1.43 1.431-1.43h28.226c.791 0 1.429.639 1.429 1.43v54.681c0 .792-.638 1.431-1.429 1.431"/><path fill="#F47231" d="M1077.912 249.228h-28.226a1.433 1.433 0 0 1-1.431-1.431v-4.036a1.431 1.431 0 0 1 2.861 0v2.606h25.366v-2.606a1.43 1.43 0 1 1 2.859 0v4.036a1.43 1.43 0 0 1-1.429 1.431"/><path fill="#F47231" d="M1077.912 256.062h-28.226a1.432 1.432 0 0 1-1.431-1.431v-4.037a1.43 1.43 0 1 1 2.861 0v2.607h25.366v-2.607c0-.792.639-1.43 1.43-1.43s1.429.638 1.429 1.43v4.037a1.43 1.43 0 0 1-1.429 1.431"/><path fill="#F47231" d="M1077.912 262.896h-28.226a1.432 1.432 0 0 1-1.431-1.431v-4.036a1.432 1.432 0 0 1 2.861 0v2.607h25.366v-2.607a1.43 1.43 0 1 1 2.859 0v4.036a1.43 1.43 0 0 1-1.429 1.431"/><path fill="#F47231" d="M1077.912 269.729h-28.226c-.789 0-1.431-.64-1.431-1.43v-4.04a1.431 1.431 0 0 1 2.861 0v2.609h25.366v-2.609a1.429 1.429 0 1 1 2.859 0v4.04c0 .791-.638 1.43-1.429 1.43"/><path fill="#F47231" d="M1077.912 276.562h-28.226a1.432 1.432 0 0 1-1.431-1.429v-4.038a1.43 1.43 0 0 1 2.861 0v2.607h25.366v-2.607a1.428 1.428 0 1 1 2.859 0v4.038a1.43 1.43 0 0 1-1.429 1.429"/><path fill="#F47231" d="M1077.912 283.396h-28.226a1.432 1.432 0 0 1-1.431-1.43v-4.038a1.43 1.43 0 0 1 2.861 0v2.608h25.366v-2.608a1.428 1.428 0 1 1 2.859 0v4.038c0 .789-.638 1.43-1.429 1.43"/><path fill="#F47231" d="M1077.912 290.23h-28.226a1.432 1.432 0 0 1-1.431-1.43v-4.039c0-.79.642-1.432 1.431-1.432s1.43.642 1.43 1.432v2.609h25.366v-2.609a1.43 1.43 0 0 1 2.859 0v4.039c0 .789-.638 1.43-1.429 1.43"/><path fill="#F47231" d="M1049.687 292.756a1.433 1.433 0 0 1-1.431-1.432v-4.038c0-.789.642-1.431 1.431-1.431s1.43.642 1.43 1.431v4.038a1.433 1.433 0 0 1-1.43 1.432M1077.912 292.756a1.43 1.43 0 0 1-1.43-1.432v-4.038a1.43 1.43 0 1 1 2.859 0v4.038a1.43 1.43 0 0 1-1.429 1.432M1095.82 249.228h-17.908c-.79 0-1.43-.642-1.43-1.431v-4.036a1.43 1.43 0 1 1 2.859 0v2.606h15.049v-2.606a1.432 1.432 0 1 1 2.861 0v4.036a1.433 1.433 0 0 1-1.431 1.431"/><path fill="#F47231" d="M1095.82 256.062h-17.908a1.43 1.43 0 0 1-1.43-1.431v-4.037c0-.792.64-1.43 1.43-1.43.791 0 1.429.638 1.429 1.43v2.607h15.049v-2.607c0-.792.641-1.43 1.431-1.43.789 0 1.43.638 1.43 1.43v4.037a1.433 1.433 0 0 1-1.431 1.431"/><path fill="#F47231" d="M1095.82 262.896h-17.908a1.43 1.43 0 0 1-1.43-1.431v-4.036a1.43 1.43 0 1 1 2.859 0v2.607h15.049v-2.607a1.432 1.432 0 0 1 2.861 0v4.036a1.433 1.433 0 0 1-1.431 1.431"/><path fill="#F47231" d="M1095.82 269.729h-17.908c-.79 0-1.43-.64-1.43-1.43v-4.04a1.43 1.43 0 0 1 2.859 0v2.609h15.049v-2.609a1.43 1.43 0 0 1 2.861 0v4.04a1.431 1.431 0 0 1-1.431 1.43"/><path fill="#F47231" d="M1095.82 276.562h-17.908a1.43 1.43 0 0 1-1.43-1.429v-4.038a1.43 1.43 0 1 1 2.859 0v2.607h15.049v-2.607a1.43 1.43 0 1 1 2.861 0v4.038a1.433 1.433 0 0 1-1.431 1.429"/><path fill="#F47231" d="M1095.82 283.396h-17.908c-.79 0-1.43-.642-1.43-1.43v-4.038a1.43 1.43 0 1 1 2.859 0v2.608h15.049v-2.608a1.43 1.43 0 1 1 2.861 0v4.038a1.432 1.432 0 0 1-1.431 1.43"/><path fill="#F47231" d="M1095.82 290.23h-17.908c-.79 0-1.43-.642-1.43-1.43v-4.039a1.43 1.43 0 0 1 2.859 0v2.609h15.049v-2.609c0-.79.641-1.432 1.431-1.432.789 0 1.43.642 1.43 1.432v4.039a1.432 1.432 0 0 1-1.431 1.43"/><path fill="#F47231" d="M1077.912 292.756a1.43 1.43 0 0 1-1.43-1.432v-4.038a1.43 1.43 0 1 1 2.859 0v4.038a1.43 1.43 0 0 1-1.429 1.432M1095.82 292.756c-.79 0-1.431-.642-1.431-1.432v-4.038c0-.789.641-1.431 1.431-1.431.789 0 1.43.642 1.43 1.431v4.038c0 .79-.641 1.432-1.43 1.432M1100.938 363.794h-21.882a1.432 1.432 0 0 1-1.431-1.43v-67.581c0-.791.642-1.432 1.431-1.432h21.882c.79 0 1.432.641 1.432 1.432v67.581c0 .789-.641 1.43-1.432 1.43m-20.452-2.861h19.022v-64.721h-19.022v64.721z"/><path fill="#F47231" d="M1079.057 363.794h-34.489a1.431 1.431 0 0 1-1.432-1.43v-67.581c0-.791.641-1.432 1.432-1.432h34.489c.792 0 1.43.641 1.43 1.432v67.581a1.43 1.43 0 0 1-1.43 1.43m-33.061-2.861h31.629v-64.721h-31.629v64.721z"/><path fill="#F47231" d="M1079.057 303.554h-34.489a1.432 1.432 0 0 1-1.432-1.431v-3.876a1.43 1.43 0 1 1 2.861 0v2.446h31.63v-2.446a1.431 1.431 0 0 1 2.861 0v3.876a1.433 1.433 0 0 1-1.431 1.431"/><path fill="#F47231" d="M1079.057 310.113h-34.489a1.43 1.43 0 0 1-1.432-1.431v-3.875a1.43 1.43 0 0 1 2.861 0v2.445h31.63v-2.445a1.431 1.431 0 0 1 2.861 0v3.875a1.43 1.43 0 0 1-1.431 1.431"/><path fill="#F47231" d="M1079.057 316.673h-34.489a1.43 1.43 0 0 1-1.432-1.43v-3.876a1.431 1.431 0 1 1 2.861 0v2.445h31.63v-2.445a1.431 1.431 0 0 1 2.861 0v3.876a1.43 1.43 0 0 1-1.431 1.43"/><path fill="#F47231" d="M1079.057 323.232h-34.489a1.43 1.43 0 0 1-1.432-1.43v-3.876a1.43 1.43 0 1 1 2.861 0v2.447h31.63v-2.447a1.43 1.43 0 0 1 2.861 0v3.876a1.431 1.431 0 0 1-1.431 1.43"/><path fill="#F47231" d="M1079.057 329.793h-34.489a1.432 1.432 0 0 1-1.432-1.433v-3.873a1.43 1.43 0 0 1 2.861 0v2.445h31.63v-2.445a1.431 1.431 0 0 1 2.861 0v3.873a1.433 1.433 0 0 1-1.431 1.433"/><path fill="#F47231" d="M1079.057 336.353h-34.489c-.791 0-1.432-.64-1.432-1.431v-3.876a1.43 1.43 0 0 1 2.861 0v2.446h31.63v-2.446a1.431 1.431 0 0 1 2.861 0v3.876a1.432 1.432 0 0 1-1.431 1.431"/><path fill="#F47231" d="M1079.057 342.913h-34.489a1.43 1.43 0 0 1-1.432-1.43v-3.879a1.431 1.431 0 0 1 2.861 0v2.448h31.63v-2.448a1.432 1.432 0 0 1 2.861 0v3.879a1.432 1.432 0 0 1-1.431 1.43"/><path fill="#F47231" d="M1079.057 349.474h-34.489a1.432 1.432 0 0 1-1.432-1.431v-3.877a1.432 1.432 0 0 1 2.861 0v2.448h31.63v-2.448a1.43 1.43 0 0 1 2.861 0v3.877a1.433 1.433 0 0 1-1.431 1.431"/><path fill="#F47231" d="M1079.057 356.032h-34.489c-.791 0-1.432-.64-1.432-1.432v-3.875a1.43 1.43 0 0 1 2.861 0v2.446h31.63v-2.446a1.43 1.43 0 0 1 2.861 0v3.875a1.432 1.432 0 0 1-1.431 1.432M1100.938 303.554h-21.882a1.432 1.432 0 0 1-1.431-1.431v-3.876a1.431 1.431 0 0 1 2.861 0v2.446h19.022v-2.446a1.43 1.43 0 0 1 2.862 0v3.876c0 .79-.641 1.431-1.432 1.431"/><path fill="#F47231" d="M1100.938 310.113h-21.882a1.43 1.43 0 0 1-1.431-1.431v-3.875a1.431 1.431 0 0 1 2.861 0v2.445h19.022v-2.445a1.431 1.431 0 0 1 2.862 0v3.875a1.43 1.43 0 0 1-1.432 1.431"/><path fill="#F47231" d="M1100.938 316.673h-21.882a1.43 1.43 0 0 1-1.431-1.43v-3.876a1.431 1.431 0 0 1 2.861 0v2.445h19.022v-2.445a1.432 1.432 0 0 1 2.862 0v3.876a1.43 1.43 0 0 1-1.432 1.43"/><path fill="#F47231" d="M1100.938 323.232h-21.882c-.789 0-1.431-.64-1.431-1.43v-3.876a1.43 1.43 0 0 1 2.861 0v2.447h19.022v-2.447a1.43 1.43 0 1 1 2.862 0v3.876a1.43 1.43 0 0 1-1.432 1.43"/><path fill="#F47231" d="M1100.938 329.793h-21.882a1.432 1.432 0 0 1-1.431-1.433v-3.873a1.431 1.431 0 0 1 2.861 0v2.445h19.022v-2.445a1.431 1.431 0 0 1 2.862 0v3.873c0 .792-.641 1.433-1.432 1.433"/><path fill="#F47231" d="M1100.938 336.353h-21.882c-.789 0-1.431-.64-1.431-1.431v-3.876a1.431 1.431 0 0 1 2.861 0v2.446h19.022v-2.446a1.431 1.431 0 0 1 2.862 0v3.876c0 .791-.641 1.431-1.432 1.431"/><path fill="#F47231" d="M1100.938 342.913h-21.882c-.789 0-1.431-.64-1.431-1.43v-3.879a1.432 1.432 0 0 1 2.861 0v2.448h19.022v-2.448a1.432 1.432 0 0 1 2.862 0v3.879c0 .79-.641 1.43-1.432 1.43"/><path fill="#F47231" d="M1100.938 349.474h-21.882a1.432 1.432 0 0 1-1.431-1.431v-3.877a1.43 1.43 0 0 1 2.861 0v2.448h19.022v-2.448a1.43 1.43 0 1 1 2.862 0v3.877c0 .79-.641 1.431-1.432 1.431"/><path fill="#F47231" d="M1100.938 356.032h-21.882c-.789 0-1.431-.64-1.431-1.432v-3.875a1.43 1.43 0 0 1 2.861 0v2.446h19.022v-2.446a1.43 1.43 0 1 1 2.862 0v3.875a1.43 1.43 0 0 1-1.432 1.432M1095.82 241.606h-.002l-17.909-.027c-.358 0-.706-.136-.968-.38l-13.055-12.078a1.432 1.432 0 0 1-.362-1.572 1.434 1.434 0 0 1 1.333-.907h17.249c.348 0 .685.128.945.357l13.555 11.963a1.432 1.432 0 0 1-.758 2.645c-.011-.001-.02-.003-.028-.001m-17.347-2.886l13.56.02-10.467-9.237h-13.057l9.964 9.217z"/><path fill="#F47231" d="M1049.687 241.604a1.43 1.43 0 0 1-.892-2.549l15.172-12.102a1.43 1.43 0 1 1 1.783 2.236l-15.17 12.104a1.436 1.436 0 0 1-.893.311M656.111 357.759h-26.804a1.15 1.15 0 1 1 0-2.301h26.804a1.15 1.15 0 1 1 0 2.301M675.517 349.914h-2.504c-.484 0-.915-.302-1.082-.756l-1.155-3.159a1.151 1.151 0 0 1 1.082-1.549h3.659a1.15 1.15 0 0 1 1.151 1.151v3.161a1.15 1.15 0 0 1-1.151 1.152m-1.701-2.302h.55v-.859h-.863l.313.859z"/><path fill="#F47231" d="M662.43 363.867c-4.118 0-7.469-3.349-7.469-7.47 0-4.118 3.351-7.471 7.469-7.471 4.12 0 7.471 3.353 7.471 7.471a7.477 7.477 0 0 1-7.471 7.47m0-12.638a5.175 5.175 0 0 0-5.167 5.169 5.172 5.172 0 0 0 5.167 5.168 5.172 5.172 0 0 0 5.169-5.168 5.176 5.176 0 0 0-5.169-5.169"/><path fill="#F47231" d="M662.43 359.656a3.262 3.262 0 0 1-3.257-3.259 3.26 3.26 0 0 1 3.257-3.257 3.263 3.263 0 0 1 3.26 3.257 3.264 3.264 0 0 1-3.26 3.259m0-4.214a.957.957 0 0 0-.954.955.957.957 0 0 0 1.911 0 .958.958 0 0 0-.957-.955M622.331 363.867a7.476 7.476 0 0 1-7.471-7.47c0-4.118 3.349-7.471 7.471-7.471 4.119 0 7.47 3.353 7.47 7.471 0 4.122-3.352 7.47-7.47 7.47m0-12.638a5.175 5.175 0 0 0-5.168 5.169 5.171 5.171 0 0 0 5.168 5.168 5.173 5.173 0 0 0 5.168-5.168 5.176 5.176 0 0 0-5.168-5.169"/><path fill="#F47231" d="M622.331 359.656a3.262 3.262 0 0 1-3.258-3.259 3.26 3.26 0 0 1 3.258-3.257 3.26 3.26 0 0 1 3.256 3.257 3.261 3.261 0 0 1-3.256 3.259m0-4.214a.955.955 0 1 0 0 0M672.548 338.595h-62.139a1.15 1.15 0 0 1-1.15-1.151v-14.335a3.466 3.466 0 0 1 3.462-3.461h52.34c1.468 0 4.048.602 4.85 4.645l3.658 12.621a1.15 1.15 0 0 1-1.021 1.681m-60.988-2.302h59.432l-3.317-11.457c-.513-2.57-1.663-2.887-2.614-2.887h-52.34c-.64 0-1.161.521-1.161 1.159v13.185z"/><path fill="#F47231" d="M676.442 357.759h-7.296a1.15 1.15 0 1 1 0-2.301h7.296a.838.838 0 0 0 .826-.827v-14.783l-5.483-18.932c-.621-3.11-2.111-3.459-3.183-3.459h-58.749a3.14 3.14 0 0 0-3.138 3.138v33.631c0 .681.553 1.232 1.232 1.232h7.669a1.15 1.15 0 1 1 0 2.301h-7.669a3.539 3.539 0 0 1-3.534-3.534v-33.631c0-3 2.44-5.439 5.44-5.439h58.749c1.638 0 4.518.678 5.418 5.218l5.506 18.992c.029.104.045.213.045.321v14.944a3.132 3.132 0 0 1-3.129 3.129"/><path fill="#F47231" d="M656.464 338.439a1.15 1.15 0 0 1-1.15-1.15v-16.472a1.15 1.15 0 0 1 2.301 0v16.472a1.15 1.15 0 0 1-1.151 1.15M640.381 338.439a1.15 1.15 0 0 1-1.151-1.15v-16.472a1.15 1.15 0 0 1 2.302 0v16.472a1.15 1.15 0 0 1-1.151 1.15M624.295 338.439a1.15 1.15 0 0 1-1.15-1.15v-16.472a1.15 1.15 0 0 1 2.301 0v16.472a1.15 1.15 0 0 1-1.151 1.15"/><path fill="none" stroke="#F47231" stroke-width="2.779" stroke-linecap="round" stroke-linejoin="round" stroke-miterlimit="10" d="M799.149 318.755c.934 4.076 4.485 6.879 8.848 6.879 4.657 0 8.503-3.469 9.098-7.961 6.508-.771 11.556-6.305 11.556-13.02 0-4.969-2.767-9.292-6.842-11.517a13.058 13.058 0 0 0 1.923-6.841c0-7.242-5.87-13.11-13.111-13.11a13.07 13.07 0 0 0-5.581 1.244c-2.464-7.024-9.151-12.063-17.018-12.063-7.867 0-14.554 5.039-17.018 12.063a13.065 13.065 0 0 0-5.582-1.244c-7.241 0-13.11 5.868-13.11 13.11 0 2.508.702 4.85 1.923 6.841a13.106 13.106 0 0 0-6.841 11.517c0 6.715 5.046 12.249 11.554 13.02.596 4.492 4.44 7.961 9.099 7.961 4.344 0 7.984-2.737 8.935-6.792"/><path fill="none" stroke="#F47231" stroke-width="2.779" stroke-linecap="round" stroke-linejoin="round" stroke-miterlimit="10" d="M766.072 307.712l16.902 16.901-1.706 39.589h5.537M772.434 301.539l1.952 8.617-5.161-4.576M784.896 296.748l-1.478 21.416-5.026-4.456-3.467-12.859"/><path fill="none" stroke="#F47231" stroke-width="2.779" stroke-linecap="round" stroke-linejoin="round" stroke-miterlimit="10" d="M781.518 297.324a9.144 9.144 0 0 0 6.504-2.703 9.142 9.142 0 0 0 6.504 2.703M781.518 297.324a6.398 6.398 0 0 1-8.62 2.758M772.897 300.083c-2.311 6.633-9.561 10.139-16.194 7.829M810.102 307.712L793.2 324.613l1.705 39.589h-8.1M803.741 301.539l-1.953 8.617 5.161-4.576"/><path fill="none" stroke="#F47231" stroke-width="2.779" stroke-linecap="round" stroke-linejoin="round" stroke-miterlimit="10" d="M791.279 296.748l1.477 21.416 5.026-4.456 3.497-12.969"/><path fill="none" stroke="#F47231" stroke-width="2.779" stroke-linecap="round" stroke-linejoin="round" stroke-miterlimit="10" d="M794.656 297.324a9.142 9.142 0 0 1-6.503-2.703 9.146 9.146 0 0 1-6.505 2.703M794.656 297.324a6.399 6.399 0 0 0 8.621 2.758M803.277 300.083c2.31 6.633 9.56 10.139 16.194 7.829M742.159 310.243v53.958M753.509 324.433l-11.312 11.307-14.051-14.052"/><path fill="none" stroke="#F47231" stroke-width="2.779" stroke-linecap="round" stroke-linejoin="round" stroke-miterlimit="10" d="M748.651 319.134l-6.453 6.324-7.748-7.749M745.63 312.737l-3.432 3.431-3.43-3.431"/><path fill="none" stroke="#F47231" stroke-width="2.779" stroke-linecap="round" stroke-linejoin="round" stroke-miterlimit="10" d="M748.038 300.272a11.694 11.694 0 0 0-6.126-1.724c-5.123 0-9.479 3.279-11.082 7.855a8.506 8.506 0 0 0-3.636-.811 8.536 8.536 0 0 0-8.537 8.538c0 1.632.457 3.157 1.251 4.455a8.534 8.534 0 0 0-4.455 7.499c0 4.372 3.287 7.976 7.525 8.479M760.844 334.564c4.239-.503 7.525-4.106 7.525-8.479M722.979 334.564c.977 4.748 4.855 8.582 9.932 9.27a11.722 11.722 0 0 0 9.24-2.75"/><path fill="none" stroke="#F47231" stroke-width="2.779" stroke-linecap="round" stroke-linejoin="round" stroke-miterlimit="10" d="M760.844 334.564c-.976 4.748-4.854 8.582-9.93 9.27-3.469.466-6.308-.632-8.764-2.75M833.885 310.243v53.958M822.534 324.433l11.311 11.307 14.051-14.052"/><path fill="none" stroke="#F47231" stroke-width="2.779" stroke-linecap="round" stroke-linejoin="round" stroke-miterlimit="10" d="M827.392 319.134l6.453 6.324 7.748-7.749M830.413 312.737l3.431 3.431 3.431-3.431"/><path fill="none" stroke="#F47231" stroke-width="2.779" stroke-linecap="round" stroke-linejoin="round" stroke-miterlimit="10" d="M828.004 300.272a11.698 11.698 0 0 1 6.128-1.724c5.121 0 9.479 3.279 11.081 7.855a8.538 8.538 0 0 1 10.922 12.182 8.54 8.54 0 0 1-3.069 15.978M815.197 334.564a8.54 8.54 0 0 1-7.522-8.479M853.065 334.564c-.979 4.748-4.855 8.582-9.934 9.27a11.716 11.716 0 0 1-9.239-2.75"/><path fill="none" stroke="#F47231" stroke-width="2.779" stroke-linecap="round" stroke-linejoin="round" stroke-miterlimit="10" d="M815.197 334.564c.979 4.748 4.854 8.582 9.931 9.27 3.469.466 6.308-.632 8.765-2.75"/><path fill="#F47231" d="M252.937 61.126c-1.435 0-23.9-2.309-26.457-2.572a1.153 1.153 0 0 1 0-2.292c2.557-.264 25.021-2.572 26.457-2.572a3.723 3.723 0 0 1 3.719 3.718 3.723 3.723 0 0 1-3.719 3.718m-14.971-3.717c7.458.75 14.313 1.416 14.971 1.416a1.417 1.417 0 1 0 0-2.832c-.658 0-7.514.667-14.971 1.416"/><path fill="#F47231" d="M200.257 61.127a3.722 3.722 0 0 1-3.718-3.719 3.722 3.722 0 0 1 3.718-3.718c1.436 0 23.902 2.31 26.458 2.574a1.15 1.15 0 0 1 0 2.289c-2.556.264-25.022 2.574-26.458 2.574m0-5.134a1.417 1.417 0 0 0 0 2.833c.657 0 7.513-.667 14.97-1.417-7.456-.749-14.313-1.416-14.97-1.416M248.069 96.247l-33.994-.001c-2.984-.064-5.868-1.402-7.915-3.67l-10.064-11.169h-16.148c-3.164 0-4.791-3.181-4.858-3.315l-4.479-9.531a1.14 1.14 0 0 1-.111-.49 2.42 2.42 0 0 1 2.417-2.417h2.393c.668 0 1.075 0 7.49 7.899h27.099v-1.907c0-4.944 4.023-8.967 8.967-8.967h13.568c13.567 0 24.603 11.037 24.603 24.601-.001 4.946-4.024 8.967-8.968 8.967M177.16 77.086c.001 0 1.059 2.019 2.788 2.019h16.661c.326 0 .637.14.855.381l10.408 11.549c1.621 1.798 3.9 2.857 6.254 2.908l.204.001h33.74a6.672 6.672 0 0 0 6.665-6.664c0-12.297-10.003-22.3-22.301-22.3h-13.568a6.673 6.673 0 0 0-6.665 6.665v3.058c0 .635-.515 1.151-1.151 1.151h-28.8a1.15 1.15 0 0 1-.93-.472c-4.473-5.519-5.915-7.022-6.355-7.428h-2.047a.113.113 0 0 0-.044.01l4.286 9.122z"/><path fill="#F47231" d="M248.545 76.932a1.15 1.15 0 0 1-1.005-.588 13.185 13.185 0 0 0-11.486-6.732 1.152 1.152 0 0 1 0-2.302c5.586 0 10.758 3.03 13.493 7.909a1.148 1.148 0 0 1-1.002 1.713M248.659 106.273h-44.984a1.153 1.153 0 0 1-1.152-1.151c0-.614.544-1.115 1.152-1.149v-.002h.067c.905 0 10.712 0 10.937-.002v.002h33.98a6.671 6.671 0 0 0 6.665-6.665c0-.634.516-1.151 1.151-1.151s1.151.517 1.151 1.151c0 4.944-4.023 8.967-8.967 8.967"/><path fill="#F47231" d="M254.695 82.233h-28.098a1.151 1.151 0 0 1-1.151-1.151V49.443a1.151 1.151 0 0 1 2.302 0v30.488h26.947a1.152 1.152 0 0 1 0 2.302M244.724 105.753c-.466 0-.906-.287-1.079-.75l-3.513-9.41a1.15 1.15 0 1 1 2.157-.804l3.513 9.411a1.151 1.151 0 0 1-1.078 1.553M213.751 105.753a1.153 1.153 0 0 1-1.078-1.554l3.513-9.411a1.15 1.15 0 1 1 2.157.804l-3.514 9.41a1.149 1.149 0 0 1-1.078.751M1200.082 342.476c-4.851 0-8.817-3.095-9.873-7.696a1.15 1.15 0 1 1 2.243-.515c.811 3.534 3.878 5.907 7.63 5.907 3.958 0 7.335-2.954 7.854-6.871.067-.521.482-.93 1.006-.992 5.935-.701 10.41-5.746 10.41-11.729 0-4.329-2.364-8.306-6.165-10.382a1.147 1.147 0 0 1-.56-.713 1.137 1.137 0 0 1 .13-.897 11.783 11.783 0 0 0 1.731-6.164c0-6.514-5.299-11.815-11.814-11.815-1.759 0-3.451.379-5.029 1.121a1.15 1.15 0 0 1-1.578-.66 16.703 16.703 0 0 0-15.743-11.161 16.697 16.697 0 0 0-15.741 11.161 1.15 1.15 0 0 1-1.578.66 11.735 11.735 0 0 0-5.029-1.121c-6.516 0-11.814 5.302-11.814 11.815a11.8 11.8 0 0 0 1.73 6.164c.166.268.214.592.131.897a1.144 1.144 0 0 1-.561.713 11.82 11.82 0 0 0-6.164 10.382c0 5.983 4.475 11.028 10.409 11.729.521.062.935.471 1.006.992.52 3.917 3.898 6.871 7.855 6.871 3.798 0 6.898-2.341 7.718-5.828a1.15 1.15 0 1 1 2.24.527c-1.068 4.55-5.069 7.605-9.958 7.605-4.813 0-8.96-3.387-9.984-8.009-6.665-1.201-11.588-7.027-11.588-13.888 0-4.785 2.413-9.207 6.368-11.807a14.104 14.104 0 0 1-1.506-6.35c0-7.783 6.332-14.117 14.117-14.117 1.686 0 3.319.29 4.873.863a19.013 19.013 0 0 1 17.475-11.562 19.017 19.017 0 0 1 17.477 11.562 14.016 14.016 0 0 1 4.873-.863c7.785 0 14.117 6.334 14.117 14.117 0 2.216-.52 4.39-1.507 6.35a14.123 14.123 0 0 1 6.369 11.807c0 6.86-4.924 12.687-11.589 13.888-1.021 4.622-5.167 8.009-9.981 8.009"/><path fill="#F47231" d="M1179.124 365.918h-5.477c-.32 0-.625-.132-.842-.366a1.15 1.15 0 0 1-.308-.864l1.651-23.93-16.345-16.342a1.155 1.155 0 0 1 0-1.629 1.155 1.155 0 0 1 1.63 0l16.713 16.714c.236.236.358.562.335.893l-1.604 23.223h4.245a1.15 1.15 0 0 1 .002 2.301M1166.843 327.17a1.15 1.15 0 0 1-.764-.288l-5.104-4.526a1.15 1.15 0 1 1 1.525-1.724l2.428 2.152-1.142-5.031a1.15 1.15 0 1 1 2.246-.509l1.934 8.521a1.155 1.155 0 0 1-1.123 1.405M1175.772 335.088a1.14 1.14 0 0 1-.763-.29l-4.97-4.407a1.135 1.135 0 0 1-.349-.56l-3.429-12.718a1.151 1.151 0 0 1 2.223-.598l3.339 12.383 2.963 2.625 1.3-18.846a1.15 1.15 0 0 1 2.295.16l-1.46 21.181a1.153 1.153 0 0 1-1.149 1.07"/><path fill="#F47231" d="M1186.757 314.479a10.15 10.15 0 0 1-6.432-2.275 10.134 10.134 0 0 1-6.432 2.275 1.15 1.15 0 0 1 0-2.301c2.123 0 4.119-.83 5.617-2.335.431-.434 1.199-.434 1.631 0a7.87 7.87 0 0 0 5.615 2.335c.638 0 1.151.515 1.151 1.15s-.512 1.151-1.15 1.151"/><path fill="#F47231" d="M1168.259 317.914a7.406 7.406 0 0 1-3.416-.834 1.15 1.15 0 1 1 1.053-2.045 5.149 5.149 0 0 0 3.949.327 5.144 5.144 0 0 0 3.026-2.561 1.151 1.151 0 1 1 2.045 1.054 7.427 7.427 0 0 1-4.368 3.698 7.46 7.46 0 0 1-2.289.361"/><path fill="#F47231" d="M1153.479 325.649c-1.494 0-3.013-.246-4.503-.766a1.149 1.149 0 0 1-.708-1.464 1.149 1.149 0 0 1 1.466-.708c5.946 2.07 12.477-1.082 14.549-7.034a1.146 1.146 0 0 1 1.465-.706c.601.207.918.865.708 1.465-1.972 5.66-7.298 9.213-12.977 9.213M1187.135 365.918h-8.011a1.151 1.151 0 0 1 0-2.301h6.776l-1.602-23.223a1.163 1.163 0 0 1 .335-.893l16.714-16.714a1.151 1.151 0 1 1 1.627 1.629l-16.343 16.342 1.651 23.93a1.155 1.155 0 0 1-1.147 1.23M1193.94 327.17a1.149 1.149 0 0 1-1.123-1.405l1.931-8.521a1.151 1.151 0 1 1 2.246.509l-1.14 5.031 2.425-2.152a1.153 1.153 0 0 1 1.528 1.724l-5.104 4.526a1.15 1.15 0 0 1-.763.288M1185.009 335.088a1.17 1.17 0 0 1-.437-.084 1.155 1.155 0 0 1-.713-.986l-1.46-21.181a1.151 1.151 0 0 1 1.069-1.226 1.167 1.167 0 0 1 1.228 1.066l1.299 18.846 2.963-2.625 3.366-12.491a1.146 1.146 0 0 1 1.413-.811c.614.165.977.798.811 1.41l-3.457 12.824c-.06.217-.181.411-.35.56l-4.97 4.407a1.128 1.128 0 0 1-.762.291"/><path fill="#F47231" d="M1186.887 314.479a10.15 10.15 0 0 1-6.432-2.275 10.14 10.14 0 0 1-6.432 2.275 1.15 1.15 0 1 1 0-2.301c2.123 0 4.118-.83 5.615-2.335.433-.434 1.2-.434 1.631 0a7.881 7.881 0 0 0 5.617 2.335 1.15 1.15 0 1 1 .001 2.301"/><path fill="#F47231" d="M1192.528 317.909a7.487 7.487 0 0 1-6.664-4.054 1.152 1.152 0 1 1 2.046-1.054 5.187 5.187 0 0 0 6.976 2.232 1.151 1.151 0 0 1 1.055 2.046 7.403 7.403 0 0 1-3.413.83"/><path fill="#F47231" d="M1207.279 325.657c-2.042 0-4.071-.462-5.964-1.376a13.644 13.644 0 0 1-6.989-7.846 1.153 1.153 0 0 1 2.175-.757 11.348 11.348 0 0 0 5.816 6.529 11.347 11.347 0 0 0 8.729.503 1.151 1.151 0 0 1 .759 2.174c-1.48.516-3.005.773-4.526.773M48.339 357.763a1.15 1.15 0 0 1-1.151-1.152v-37.468a1.151 1.151 0 1 1 2.302 0v37.468a1.15 1.15 0 0 1-1.151 1.152M112.655 357.93a1.15 1.15 0 0 1-1.151-1.15v-37.536a1.15 1.15 0 0 1 2.302 0v37.536a1.15 1.15 0 0 1-1.151 1.15M107.701 357.425a1.15 1.15 0 0 1-1.151-1.15v-30.99H90.645v30.99a1.15 1.15 0 0 1-1.151 1.15 1.15 1.15 0 0 1-1.151-1.15v-32.142a1.15 1.15 0 0 1 1.151-1.152h18.207a1.15 1.15 0 0 1 1.151 1.152v32.142a1.15 1.15 0 0 1-1.151 1.15M83.365 347.578H54.244a1.151 1.151 0 0 1-1.151-1.151v-22.294c0-.637.516-1.152 1.151-1.152h29.121a1.15 1.15 0 0 1 1.151 1.152v22.294a1.15 1.15 0 0 1-1.151 1.151m-27.97-2.302h26.819v-19.992H55.395v19.992z"/><path fill="#F47231" d="M80.349 344.824H57.262a1.15 1.15 0 0 1-1.151-1.15v-16.582a1.15 1.15 0 0 1 1.151-1.151h23.087c.635 0 1.151.515 1.151 1.151v16.582a1.15 1.15 0 0 1-1.151 1.15m-21.936-2.303h20.785v-14.279H58.413v14.279zM117.362 363.317h-73.73a1.15 1.15 0 0 1-1.151-1.151v-2.521a4.306 4.306 0 0 1 4.302-4.302h67.426a4.307 4.307 0 0 1 4.303 4.302v2.521a1.148 1.148 0 0 1-1.15 1.151m-72.579-2.301h71.428v-1.37c0-1.102-.898-2-2.001-2H46.784c-1.103 0-2 .898-2 2v1.37zM85.812 315.771H75.181a1.152 1.152 0 0 1-1.151-1.15v-18.787c0-.635.516-1.151 1.151-1.151h10.631c.636 0 1.151.517 1.151 1.151v18.787c0 .633-.515 1.15-1.151 1.15m-9.48-2.302h8.328v-16.482h-8.328v16.482zM64.552 315.77H53.921a1.15 1.15 0 0 1-1.089-1.52l6.341-18.786a1.15 1.15 0 0 1 1.09-.781h7.46a1.149 1.149 0 0 1 1.133 1.343l-3.17 18.784a1.15 1.15 0 0 1-1.134.96m-9.028-2.302h8.055l2.782-16.483H61.09l-5.566 16.483z"/><path fill="#F47231" d="M75.182 315.77h-10.63a1.148 1.148 0 0 1-1.135-1.343l3.171-18.783a1.15 1.15 0 0 1 1.135-.961h7.458a1.15 1.15 0 0 1 1.151 1.151v18.785a1.15 1.15 0 0 1-1.15 1.151m-9.269-2.302h8.118v-16.483h-5.335l-2.783 16.483zM53.921 315.77h-10.63c-.4 0-.771-.207-.98-.549a1.145 1.145 0 0 1-.047-1.122l9.515-18.786c.197-.386.593-.63 1.027-.63h7.458c.37 0 .72.179.936.479.215.302.272.688.154 1.04l-6.342 18.784a1.15 1.15 0 0 1-1.091.784m-8.757-2.302h7.932l5.565-16.483h-5.149l-8.348 16.483zM107.073 315.77H96.442a1.15 1.15 0 0 1-1.134-.96l-3.171-18.784a1.149 1.149 0 0 1 1.135-1.343h7.459c.493 0 .932.314 1.09.781l6.342 18.786a1.15 1.15 0 0 1-1.09 1.52m-9.657-2.302h8.054l-5.565-16.483h-5.271l2.782 16.483z"/><path fill="#F47231" d="M96.442 315.77h-10.63a1.151 1.151 0 0 1-1.151-1.15v-18.785a1.15 1.15 0 0 1 1.151-1.151h7.458a1.15 1.15 0 0 1 1.135.961l3.171 18.783a1.15 1.15 0 0 1-1.134 1.342m-9.479-2.302h8.117l-2.782-16.483h-5.335v16.483zM117.704 315.77h-10.632c-.493 0-.932-.313-1.089-.783l-6.342-18.784a1.154 1.154 0 0 1 .154-1.04c.216-.301.565-.479.937-.479h7.458c.434 0 .832.244 1.028.63l9.514 18.786a1.153 1.153 0 0 1-1.028 1.67m-9.805-2.302h7.932l-8.349-16.483h-5.148l5.565 16.483z"/><path fill="#F47231" d="M80.498 320.294c-3.566 0-6.467-2.546-6.467-5.675a1.15 1.15 0 0 1 1.151-1.151h10.631a1.15 1.15 0 0 1 1.151 1.151c0 3.129-2.901 5.675-6.466 5.675m-3.915-4.524c.583 1.294 2.117 2.222 3.915 2.222 1.796 0 3.332-.928 3.915-2.222h-7.83z"/><path fill="#F47231" d="M91.127 320.294c-3.565 0-6.466-2.546-6.466-5.675a1.15 1.15 0 0 1 1.151-1.151h10.63a1.15 1.15 0 0 1 1.151 1.151c.001 3.129-2.899 5.675-6.466 5.675m-3.914-4.524c.582 1.294 2.116 2.222 3.914 2.222 1.797 0 3.333-.928 3.915-2.222h-7.829z"/><path fill="#F47231" d="M101.758 320.294c-3.565 0-6.466-2.546-6.466-5.675a1.15 1.15 0 0 1 1.151-1.151h10.631c.635 0 1.152.514 1.152 1.151-.001 3.129-2.902 5.675-6.468 5.675m-3.915-4.524c.583 1.294 2.117 2.222 3.915 2.222 1.797 0 3.333-.928 3.915-2.222h-7.83z"/><path fill="#F47231" d="M112.388 320.294c-3.565 0-6.466-2.546-6.466-5.675a1.15 1.15 0 0 1 1.151-1.151h10.631a1.15 1.15 0 0 1 1.151 1.151c0 3.129-2.901 5.675-6.467 5.675m-3.914-4.524c.581 1.294 2.117 2.222 3.914 2.222 1.798 0 3.333-.928 3.915-2.222h-7.829zM69.867 320.294c-3.565 0-6.466-2.546-6.466-5.675a1.15 1.15 0 0 1 1.151-1.151h10.63a1.15 1.15 0 0 1 1.151 1.151c0 3.129-2.9 5.675-6.466 5.675m-3.914-4.524c.582 1.294 2.116 2.222 3.915 2.222 1.797 0 3.332-.928 3.916-2.222h-7.831z"/><path fill="#F47231" d="M59.237 320.294c-3.565 0-6.466-2.546-6.466-5.675 0-.638.514-1.151 1.151-1.151h10.63a1.15 1.15 0 0 1 1.151 1.151c0 3.129-2.9 5.675-6.466 5.675m-3.915-4.524c.583 1.294 2.117 2.222 3.915 2.222 1.797 0 3.332-.928 3.914-2.222h-7.829z"/><path fill="#F47231" d="M48.606 320.294c-3.565 0-6.466-2.546-6.466-5.675a1.15 1.15 0 0 1 1.151-1.151h10.631a1.15 1.15 0 0 1 1.151 1.151c0 3.129-2.901 5.675-6.467 5.675m-3.915-4.524c.582 1.294 2.116 2.222 3.915 2.222 1.797 0 3.332-.928 3.916-2.222h-7.831zM103.782 339.192H93.413a1.15 1.15 0 0 1-1.151-1.151v-9.678a1.15 1.15 0 0 1 1.151-1.151h10.369c.635 0 1.151.515 1.151 1.151v9.678a1.15 1.15 0 0 1-1.151 1.151m-9.218-2.301h8.066v-7.377h-8.066v7.377zM103.782 353.565H93.413a1.152 1.152 0 0 1-1.151-1.15v-9.68c0-.635.516-1.151 1.151-1.151h10.369c.635 0 1.151.517 1.151 1.151v9.68c0 .635-.516 1.15-1.151 1.15m-9.218-2.301h8.066v-7.375h-8.066v7.375zM70.065 337.153a1.15 1.15 0 0 1-.815-1.964l5.799-5.799a1.152 1.152 0 0 1 1.628 1.628l-5.799 5.798a1.14 1.14 0 0 1-.813.337M70.66 341.319a1.152 1.152 0 0 1-.814-1.965l5.921-5.922a1.151 1.151 0 0 1 1.627 1.628l-5.921 5.922a1.145 1.145 0 0 1-.813.337"/><path fill="none" stroke="#F47231" stroke-width="2.779" stroke-linecap="round" stroke-linejoin="round" stroke-miterlimit="10" d="M923.028 237.668h-27.174a6.47 6.47 0 0 1-6.471-6.47v-2.45a6.471 6.471 0 0 1 6.471-6.471h27.174a6.471 6.471 0 0 1 6.471 6.471v2.45a6.47 6.47 0 0 1-6.471 6.47zM884.729 229.972h48.768M903.379 237.668s5.741 109.613-18.417 126.522M914.849 237.668s-5.741 109.613 18.416 126.522M901.604 212.254h14.494v8.862h-14.494zM908.852 192.11v18.419M896.088 230.671v6.906M904.146 230.671v6.906M913.354 230.671v6.906M922.562 230.671v6.906M904.146 250.238h9.208M904.146 269.807h8.057M904.146 291.676h10.359M904.146 308.941h11.51M898.965 337.143h20.719"/></svg>